<svg id="レイヤー_1" data-name="レイヤー 1" xmlns="http://www.w3.org/2000/svg" viewBox="0 0 73 73"><defs><style>.cls-1{fill:#fff;}</style></defs><title>アートボード 1</title><path class="cls-1" d="M62.5,73h-52A10.51,10.51,0,0,1,0,62.5v-52A10.51,10.51,0,0,1,10.5,0h52A10.51,10.51,0,0,1,73,10.5v52A10.51,10.51,0,0,1,62.5,73ZM10.5,1A9.51,9.51,0,0,0,1,10.5v52A9.51,9.51,0,0,0,10.5,72h52A9.51,9.51,0,0,0,72,62.5v-52A9.51,9.51,0,0,0,62.5,1Z"/><path class="cls-1" d="M56.57,52.7a4,4,0,0,0,2.75-1L46,38.33l-.92.66c-1,.74-1.81,1.31-2.43,1.72A14.83,14.83,0,0,1,40.16,42a7.51,7.51,0,0,1-2.89.64h-.05A7.58,7.58,0,0,1,34.33,42a15.24,15.24,0,0,1-2.48-1.26c-.62-.41-1.43-1-2.42-1.72l-.92-.66L15.17,51.66a4,4,0,0,0,2.76,1Z"/><path class="cls-1" d="M16.92,29.94a14,14,0,0,1-2.65-2.29V47.93L26,36.18Q22.5,33.72,16.92,29.94Z"/><path class="cls-1" d="M57.6,29.94q-5.35,3.63-9.11,6.25L60.23,47.93V27.65A14.67,14.67,0,0,1,57.6,29.94Z"/><path class="cls-1" d="M56.57,16.28H17.93a3.73,3.73,0,0,0-3.11,1.36,5.28,5.28,0,0,0-1.09,3.41,6.15,6.15,0,0,0,1.44,3.59,13.29,13.29,0,0,0,3.07,3l5.38,3.74c1.62,1.12,3,2.09,4.23,2.94L30.5,36.2l.39.28.73.52c.57.41,1,.75,1.42,1s.83.54,1.36.85a8.06,8.06,0,0,0,1.51.71,4.1,4.1,0,0,0,1.31.24h.06a4.1,4.1,0,0,0,1.31-.24,8.06,8.06,0,0,0,1.51-.71c.53-.31,1-.6,1.36-.85s.85-.59,1.42-1l.72-.52.4-.28,2.65-1.85,9.63-6.68a12.48,12.48,0,0,0,3.21-3.23,7,7,0,0,0,1.28-4,4.23,4.23,0,0,0-4.2-4.2Z"/></svg>