<svg id="レイヤー_1" data-name="レイヤー 1" xmlns="http://www.w3.org/2000/svg" viewBox="0 0 50 50"><defs><style>.cls-1{fill:#fff;}</style></defs><title>アートボード 1</title><path class="cls-1" d="M49.72,14.25l-14-14a.78.78,0,0,0-1.34.23l-1.87,3.9,13.05,13,3.9-1.87A.79.79,0,0,0,49.72,14.25Z"/><path class="cls-1" d="M30,6.61,17.19,7.68c-.86.11-1.57.29-1.82,1.41h0C11.89,25.84,0,42.19,0,42.19L2.8,45,16.08,31.7a4.69,4.69,0,1,1,4.23,2.67,4.57,4.57,0,0,1-2-.46L5,47.2,7.81,50s16.34-11.89,33.1-15.38h0c1.11-.24,1.3-1,1.4-1.81L43.38,20,30,6.61Z"/></svg>