<svg id="レイヤー_1" data-name="レイヤー 1" xmlns="http://www.w3.org/2000/svg" viewBox="0 0 200.24 291.52"><defs><style>.cls-1{fill:#fff;}</style></defs><title>アートボード 1</title><path class="cls-1" d="M169.38,79.65a116.59,116.59,0,0,0-4.19-20.77,165,165,0,0,0-7.62-20.28c-7.64-13.89-17.49-24.4-29.28-31.24C116.9.76,105.4-1.37,93.14.85a64.53,64.53,0,0,0-19,6.8l-6.6,3.51.66-.12a6.49,6.49,0,0,0-.82.72l-.08-.2-.92.15a5.21,5.21,0,0,0-2.73,1.49l-.15-.49-2.25,1.78C59.32,16,58.06,17,57.42,17.58a28.15,28.15,0,0,0-3.85,3.6L52.65,21l-.47.41c-4.83,4.25-8.91,8-12.46,11.6a117.41,117.41,0,0,0-10.53,12.1l-.05.09c-.55.87-1.1,1.75-1.64,2.64l-1.05,1.7a11.34,11.34,0,0,1-2.09,2.7l-.18.14-.11.2c-.29.51-.69,1.32-1.24,2.43l-.08.14A7,7,0,0,0,21.88,58a15.83,15.83,0,0,0-2.54,4.46c-2,4.82-3,7-3.09,7.19l-.09.17,0,.21-.78,5a63,63,0,0,0-.76,7.13A19,19,0,0,0,15.19,88c.51,12.81,6.34,24.17,18.34,35.74,11.43,11,25.88,19.71,43,26a95.91,95.91,0,0,0,16.12,4.55,84.45,84.45,0,0,0,14.94,1.39,67.3,67.3,0,0,0,22.3-3.67,56.05,56.05,0,0,0,28.45-21.77,62.12,62.12,0,0,0,10-23.61A88.46,88.46,0,0,0,169.38,79.65Zm-15.54,8.81v.1a86.28,86.28,0,0,1-3.22,14.94,53.7,53.7,0,0,1-6,12.9A41.22,41.22,0,0,1,115,135.46a57.36,57.36,0,0,1-9.25.74,70.79,70.79,0,0,1-19.5-2.89,83.22,83.22,0,0,1-26-12.46,60.85,60.85,0,0,1-8.47-7.38C43.4,104.9,39,96.29,38.17,87.17s2-18,8.82-27.75a26.31,26.31,0,0,1,2.68-4.29c1-1.32,2.22-2.83,3.93-4.89.94-1.13,1.87-2.26,2.8-3.41l.2-.2c.12-.1,1.7-1.44,4.89-4.41a15.78,15.78,0,0,1,3.29-2.54,8.15,8.15,0,0,1,1.66-1.87l.87-.76c.37-.33.67-.59.89-.77l.18-.14.21-.07a8,8,0,0,0,2.08-1.29l2-1.48,1.27-.95A64.77,64.77,0,0,1,84,27a80.91,80.91,0,0,1,10.77-3.57l.8-.2.39.54a13.69,13.69,0,0,1,3-.8c.65-.15,2-.36,3.86-.6l1.6-.21-.06.41a3,3,0,0,1,1.71.28l5.84,1a37.14,37.14,0,0,1,13.86,5.49c8.29,5.28,15.18,13.46,20.46,24.29A72.15,72.15,0,0,1,153.84,88.46Z"/><path class="cls-1" d="M101.14,68.61a39,39,0,0,1-5,4.39l4.5,7.24c.14-.41.34-.95.59-1.61a44.77,44.77,0,0,1,2.88-6.54,15.71,15.71,0,0,1,5.36-5.62,12.86,12.86,0,0,1,6.92-2.11,10.81,10.81,0,0,1,8.09,3.5,11.74,11.74,0,0,1,3.37,8.5,10.5,10.5,0,0,1-2.19,6.71,6.52,6.52,0,0,1-5.29,2.78,5.34,5.34,0,0,1-4-1.8,6,6,0,0,1-1.71-4.3,4.49,4.49,0,0,1,.68-2.41l.45-.72a4.52,4.52,0,0,0,.15-.72c0-.35-.27-.54-.82-.54q-2.5,0-4.73,4.31c-1.17,2.28-2.62,5.55-4.29,9.8a10.54,10.54,0,0,0,.67,1.09,22,22,0,0,0,3.48,4.67A6.76,6.76,0,0,0,115,96.84q6.28.09,6.29,6.34a6.52,6.52,0,0,1-1.11,3.92,3.34,3.34,0,0,1-2.81,1.52,15.23,15.23,0,0,1-2.55-.3,15,15,0,0,0-2.55-.31,18.38,18.38,0,0,0-3.34.31,16.59,16.59,0,0,1-2.22.3,4.12,4.12,0,0,1-2.88-1.27,28.72,28.72,0,0,1-2.15-2.9L100,101.91a15.38,15.38,0,0,1-6,6,17.41,17.41,0,0,1-8.2,2.06,16.81,16.81,0,0,1-12.88-5.63,20,20,0,0,1-5.17-14q0-9.41,6.44-14.59a67,67,0,0,1,6-4.22l1.49-.9C79.5,66.67,78.44,63.11,78.44,60a12.65,12.65,0,0,1,3.7-9.45,13.25,13.25,0,0,1,9.69-3.63,12.89,12.89,0,0,1,9.32,3.48,12,12,0,0,1,3.62,9A13.5,13.5,0,0,1,101.14,68.61ZM94.48,93.14,86.71,79.8A26.75,26.75,0,0,0,81.48,85a9.59,9.59,0,0,0-1.22,5.15,8,8,0,0,0,1.93,5.55,6.42,6.42,0,0,0,5,2.15,6.62,6.62,0,0,0,3.78-1A14.9,14.9,0,0,0,94.48,93.14Zm-5-33.86A10.91,10.91,0,0,0,91.54,65a5.46,5.46,0,0,0,3.7-5.46,4.18,4.18,0,0,0-.84-2.69,2.64,2.64,0,0,0-2.12-1.09Q89.45,55.78,89.44,59.28Z"/><path class="cls-1" d="M42.94,221.13c-.46.42-1.07,1-1.83,1.78s-1.62,1.58-2.6,2.46-2,1.79-3.11,2.68A34.7,34.7,0,0,1,32,230.5a22.94,22.94,0,0,1-3.4,1.8,8,8,0,0,1-3.16.7,4.48,4.48,0,0,1-2.28-.56A5,5,0,0,1,21.62,231a6.5,6.5,0,0,1-.93-2.07,9,9,0,0,1-.31-2.38,10.28,10.28,0,0,1,.12-1.57,6.39,6.39,0,0,1,.38-1.46c-.79,1.06-1.68,2.16-2.68,3.29A26.62,26.62,0,0,1,15,229.84a19.13,19.13,0,0,1-3.61,2.28,8.86,8.86,0,0,1-3.81.9,7.94,7.94,0,0,1-2.3-.41,7.73,7.73,0,0,1-2.49-1.3,7.81,7.81,0,0,1-2-2.36A7.22,7.22,0,0,1,0,225.42a17.45,17.45,0,0,1,.47-3.72,27.36,27.36,0,0,1,3.91-9.11,20.67,20.67,0,0,1,3.55-4.09,17.45,17.45,0,0,1,4.67-2.92,14.67,14.67,0,0,1,5.85-1.12,9.48,9.48,0,0,1,2.92.41,13.57,13.57,0,0,1,2.13.92,10.36,10.36,0,0,1,1.74,1.33c.43-.23.87-.45,1.33-.65a9.06,9.06,0,0,1,1.2-.47,3.51,3.51,0,0,1,1.08-.22,3.43,3.43,0,0,1,2.35.8,2.31,2.31,0,0,1,.91,1.75,2.34,2.34,0,0,1,0,.42c-.13.48-.32,1.08-.59,1.82L30.6,213c-.33.9-.67,1.83-1,2.81s-.65,1.93-.93,2.86-.51,1.82-.68,2.64a10.13,10.13,0,0,0-.27,2.11,4.14,4.14,0,0,0,.38,1.88,1.33,1.33,0,0,0,1.29.74,3.32,3.32,0,0,0,1.35-.36,12.3,12.3,0,0,0,1.69-1c.61-.41,1.24-.87,1.88-1.39s1.27-1,1.88-1.57c1.42-1.27,2.92-2.71,4.52-4.33a1.85,1.85,0,0,1,1.17-.49,1.51,1.51,0,0,1,1.27.74,2.76,2.76,0,0,1,.52,1.64A2.46,2.46,0,0,1,42.94,221.13Zm-26.32-9.8a7.09,7.09,0,0,0-3.45.91,10.93,10.93,0,0,0-3,2.39A12.1,12.1,0,0,0,8.16,218a9.57,9.57,0,0,0-.76,3.7,12.26,12.26,0,0,0,.1,1.57,4.28,4.28,0,0,0,.43,1.5,3,3,0,0,0,1,1.14,2.78,2.78,0,0,0,1.69.46,3.76,3.76,0,0,0,2-.74,17.48,17.48,0,0,0,2.31-1.9,30.35,30.35,0,0,0,2.34-2.54c.76-.93,1.44-1.84,2.05-2.72a25.57,25.57,0,0,0,1.48-2.4,3.77,3.77,0,0,0,.56-1.55,2,2,0,0,0-.49-1.31,4.59,4.59,0,0,0-1.21-1,6.09,6.09,0,0,0-1.54-.63A5.81,5.81,0,0,0,16.62,211.33Z"/><path class="cls-1" d="M45.06,209a6,6,0,0,1,1.9-2.43,3.91,3.91,0,0,1,2.24-.8,2.37,2.37,0,0,1,1.63.67,2.53,2.53,0,0,1,.72,2,6,6,0,0,1-.11,1.07,5.84,5.84,0,0,1-.42,1.21,11.83,11.83,0,0,1,2.39-2.18,21.28,21.28,0,0,1,3.44-2A24.45,24.45,0,0,1,60.72,205a14.16,14.16,0,0,1,3.78-.57,5.59,5.59,0,0,1,3.36,1,3.76,3.76,0,0,1,1.34,3.28,10.39,10.39,0,0,1-.41,2.85,22.68,22.68,0,0,1-1.08,3c-.45,1-.94,1.95-1.49,2.9s-1.08,1.84-1.61,2.67-1,1.61-1.46,2.3-.79,1.28-1,1.73a2.14,2.14,0,0,0-.49,1.41.8.8,0,0,0,.19.53.73.73,0,0,0,.6.23,3.58,3.58,0,0,0,.61-.06,2.2,2.2,0,0,0,.83-.4,34.9,34.9,0,0,0,4.2-1.9q2.15-1.14,4.12-2.41T75.8,219c1.09-.85,2-1.61,2.75-2.29a1.82,1.82,0,0,1,.6-.38,1.62,1.62,0,0,1,.57-.12,1.19,1.19,0,0,1,1,.5,2,2,0,0,1,.36,1.24,5.76,5.76,0,0,1-.74,2.63A8.17,8.17,0,0,1,78,223.24l-4,2.85c-1.21.87-2.43,1.66-3.68,2.41a38.08,38.08,0,0,1-4,2.09,37.41,37.41,0,0,1-5,1.81,16.86,16.86,0,0,1-1.8.45A8.28,8.28,0,0,1,58,233a3.6,3.6,0,0,1-2.94-1.12,4.74,4.74,0,0,1-.93-3.12,4.27,4.27,0,0,1,0-.52c0-.16,0-.35.05-.55a8.56,8.56,0,0,1,.63-2.58,27.11,27.11,0,0,1,1.33-2.89q.78-1.49,1.65-2.94c.58-1,1.12-1.9,1.61-2.77s.9-1.66,1.23-2.34a4.11,4.11,0,0,0,.5-1.67,1.48,1.48,0,0,0-.33-1,1.16,1.16,0,0,0-1-.39,8.25,8.25,0,0,0-4.62,1.44,21.67,21.67,0,0,0-4.08,3.54,42.94,42.94,0,0,0-3.49,4.47c-1.06,1.57-2,3-2.81,4.21a21.77,21.77,0,0,0-1.38,2.68c-.42,1-.86,1.84-1.31,2.66a8.59,8.59,0,0,1-1.54,2.05,3,3,0,0,1-2.15.81,2.65,2.65,0,0,1-2.08-.83,2.92,2.92,0,0,1-.76-2,7.28,7.28,0,0,1,.53-2.09c.35-1,.81-2.07,1.37-3.34s1.18-2.63,1.87-4.08,1.39-2.9,2.09-4.33,1.36-2.78,2-4S44.66,209.9,45.06,209Z"/><path class="cls-1" d="M98.21,224.35a.45.45,0,0,0,0,.18.49.49,0,0,1,0,.19,3.28,3.28,0,0,0,.34,1.42,1.14,1.14,0,0,0,1.1.75,1.12,1.12,0,0,0,.46-.08,17.94,17.94,0,0,0,4.38-2.05,43.87,43.87,0,0,0,4.27-3.07,50.8,50.8,0,0,0,3.78-3.42c1.15-1.17,2.11-2.21,2.86-3.11a1.51,1.51,0,0,1,1.18-.65,1.27,1.27,0,0,1,1,.53,2.19,2.19,0,0,1,.43,1.44,4.63,4.63,0,0,1-.4,1.71,8.71,8.71,0,0,1-1.3,2.13q-2.25,2.46-4.6,4.74a47.75,47.75,0,0,1-4.74,4.05,25.67,25.67,0,0,1-4.77,2.82A11.3,11.3,0,0,1,97.49,233a5.92,5.92,0,0,1-4.36-1.58,6.38,6.38,0,0,1-1.6-4.73v-.39a1.7,1.7,0,0,1,0-.4,11.74,11.74,0,0,1-2.24,2.9,15.28,15.28,0,0,1-3,2.25A16.14,16.14,0,0,1,83,232.49a12,12,0,0,1-3.38.51,8.46,8.46,0,0,1-2.58-.38,5.07,5.07,0,0,1-2-1.22,5.61,5.61,0,0,1-1.33-2.12,9.21,9.21,0,0,1-.47-3.11,18.42,18.42,0,0,1,1-6.06,22.43,22.43,0,0,1,2.62-5.28,24.6,24.6,0,0,1,3.74-4.32,26.89,26.89,0,0,1,4.37-3.27,21.49,21.49,0,0,1,4.5-2.07,13.43,13.43,0,0,1,4.1-.72,8.82,8.82,0,0,1,3.72.72,5.63,5.63,0,0,1,1.4,1c.1-.22.2-.44.3-.64.26-.61.48-1.13.68-1.57s.35-.77.43-1,.28-.76.64-1.6.77-1.82,1.23-2.94,1-2.33,1.52-3.63,1-2.5,1.5-3.64.85-2.12,1.18-2.95.53-1.35.6-1.57a9.66,9.66,0,0,1,.73-1.84,6.61,6.61,0,0,1,1.07-1.56,5.16,5.16,0,0,1,1.47-1.06,4.31,4.31,0,0,1,1.9-.4,4.25,4.25,0,0,1,2.39.63,2.69,2.69,0,0,1,1,2.4,6.48,6.48,0,0,1-.19,1.49c-.13.51-.28,1-.44,1.48s-.34,1-.53,1.43-.36.9-.51,1.3q-1.91,3.8-4,8.26t-4.13,9q-2.06,4.52-3.92,8.81T98.21,224.35ZM97.07,209.5a15.35,15.35,0,0,0-4.78,1A16.85,16.85,0,0,0,87,213.43a17.52,17.52,0,0,0-4,4.8,14.77,14.77,0,0,0-1.88,6.53c0,1,.43,1.52,1.29,1.52a7.2,7.2,0,0,0,3-.66,11.67,11.67,0,0,0,2.75-1.79,18.11,18.11,0,0,0,2.45-2.56,33,33,0,0,0,2.11-3q1-1.56,1.74-3.09c.52-1,1-2,1.35-2.87.13-.28.31-.67.53-1.18S96.8,210.1,97.07,209.5Z"/><path class="cls-1" d="M142.45,204.46a14.16,14.16,0,0,1,3.1.38,9.26,9.26,0,0,1,3,1.29,7.6,7.6,0,0,1,2.34,2.41,6.89,6.89,0,0,1,.93,3.7,12.42,12.42,0,0,1-.31,2.6,19.35,19.35,0,0,1-.91,3.06,2.15,2.15,0,0,0,.88.64,2.81,2.81,0,0,0,1.06.19,4.06,4.06,0,0,0,1.76-.45,14.26,14.26,0,0,0,2-1.18,24.12,24.12,0,0,0,2.05-1.64c.68-.6,1.33-1.21,1.94-1.81s1.16-1.18,1.64-1.73.91-1,1.24-1.39a.91.91,0,0,1,.65-.26,1.16,1.16,0,0,1,.94.55,2.47,2.47,0,0,1,.42,1.54,5.62,5.62,0,0,1-.59,2.27,8.38,8.38,0,0,1-2.18,2.7l-2.09,2.28a28.68,28.68,0,0,1-2.5,2.43A16.65,16.65,0,0,1,155.1,224a5.88,5.88,0,0,1-2.89.8,6.15,6.15,0,0,1-1.91-.3,7.18,7.18,0,0,1-1.89-1,23,23,0,0,1-3.1,3.87,19.34,19.34,0,0,1-3.9,3,20.06,20.06,0,0,1-4.63,1.95,19.34,19.34,0,0,1-5.3.71,8.73,8.73,0,0,1-2.46-.43,8.25,8.25,0,0,1-2.68-1.38,8.07,8.07,0,0,1-2.14-2.53,7.54,7.54,0,0,1-.88-3.79,16.43,16.43,0,0,1,.49-3.65,24.73,24.73,0,0,1,1.5-4.38,27.08,27.08,0,0,1,2.55-4.48,19.73,19.73,0,0,1,3.66-4,17.62,17.62,0,0,1,4.86-2.85A16.36,16.36,0,0,1,142.45,204.46Zm-2,6.68a7.1,7.1,0,0,0-3.44.9,10.25,10.25,0,0,0-2.92,2.35,12,12,0,0,0-2,3.3,9.78,9.78,0,0,0-.76,3.78,11.46,11.46,0,0,0,.12,1.58,5,5,0,0,0,.47,1.59,3.18,3.18,0,0,0,1,1.23,3,3,0,0,0,1.83.5,6.79,6.79,0,0,0,3.39-.93,11,11,0,0,0,2.95-2.43,12.19,12.19,0,0,0,2.05-3.4,10.38,10.38,0,0,0,.76-3.84,14.24,14.24,0,0,0-.1-1.57,4.17,4.17,0,0,0-.46-1.5,2.86,2.86,0,0,0-1-1.12A3.46,3.46,0,0,0,140.48,211.14Z"/><path class="cls-1" d="M164.21,209a5.91,5.91,0,0,1,1.9-2.43,3.88,3.88,0,0,1,2.23-.8,2.38,2.38,0,0,1,1.64.67,2.53,2.53,0,0,1,.72,2,5.23,5.23,0,0,1-.12,1.07,5.09,5.09,0,0,1-.41,1.21,12.13,12.13,0,0,1,2.39-2.18,22.51,22.51,0,0,1,3.44-2,24.09,24.09,0,0,1,3.87-1.47,14,14,0,0,1,3.77-.57,5.59,5.59,0,0,1,3.36,1,3.79,3.79,0,0,1,1.36,3.29,10.79,10.79,0,0,1-.42,2.84,22.24,22.24,0,0,1-1.09,3,31.68,31.68,0,0,1-1.48,2.9c-.54,1-1.08,1.84-1.61,2.67s-1,1.61-1.46,2.3-.79,1.28-1.05,1.73a2.2,2.2,0,0,0-.49,1.41.78.78,0,0,0,.19.53.76.76,0,0,0,.61.23,3.58,3.58,0,0,0,.61-.06,2.2,2.2,0,0,0,.83-.4,34.79,34.79,0,0,0,4.19-1.9c1.44-.76,2.81-1.56,4.13-2.41s2.52-1.7,3.62-2.55,2-1.61,2.75-2.29a2,2,0,0,1,.61-.38,1.54,1.54,0,0,1,.57-.12,1.17,1.17,0,0,1,1,.5,2.08,2.08,0,0,1,.37,1.25,5.78,5.78,0,0,1-.75,2.62,8.38,8.38,0,0,1-2.33,2.7l-4,2.84q-1.81,1.31-3.69,2.41a36.87,36.87,0,0,1-9,3.9c-.66.2-1.26.35-1.81.46a8.19,8.19,0,0,1-1.49.14,3.61,3.61,0,0,1-2.95-1.12,4.74,4.74,0,0,1-.93-3.12c0-.19,0-.36,0-.52s0-.35.06-.55a8.83,8.83,0,0,1,.62-2.58,29.25,29.25,0,0,1,1.33-2.89c.52-1,1.07-2,1.65-2.94s1.12-1.9,1.62-2.77.9-1.65,1.23-2.34a4,4,0,0,0,.49-1.66,1.52,1.52,0,0,0-.32-1,1.18,1.18,0,0,0-1-.39,8.24,8.24,0,0,0-4.61,1.44,20.79,20.79,0,0,0-4.08,3.55,40.55,40.55,0,0,0-3.49,4.46c-1.07,1.57-2,3-2.81,4.22a23.14,23.14,0,0,0-1.39,2.67,27.46,27.46,0,0,1-1.31,2.66,8.12,8.12,0,0,1-1.53,2.05,3,3,0,0,1-2.15.81,2.67,2.67,0,0,1-2.09-.83,3,3,0,0,1-.76-2,7.28,7.28,0,0,1,.53-2.09c.36-1,.82-2.07,1.37-3.33s1.18-2.64,1.88-4.09,1.39-2.89,2.09-4.33,1.36-2.78,2-4S163.8,209.9,164.21,209Z"/><path class="cls-1" d="M25.83,282.48c0,.89,0,1.78,0,2.65s0,1.74,0,2.63a14.2,14.2,0,0,1-3.24-.48c.08-1.44.13-2.54.16-3.29s.05-1.18.05-1.28c0-1.09-.49-1.65-1.47-1.65a4.58,4.58,0,0,0-1.82.47l0,6.13a13.2,13.2,0,0,1-1.44-.09c-.53-.05-1.13-.13-1.79-.25v-.16c0-1.35,0-3,.15-5,.05-1.31.1-2.37.14-3.19s.06-1.42.07-1.79l-1.51.11.28-2.8c.64-.08,1.3-.15,2-.19s1.43-.09,2.2-.13l-.11,4.66a10.53,10.53,0,0,1,2.75-.41C24.63,278.44,25.83,279.78,25.83,282.48Z"/><path class="cls-1" d="M34.86,286.93a2.64,2.64,0,0,1-1,.48,4,4,0,0,1-1.32.22,4.26,4.26,0,0,1-3.22-1.13,3.3,3.3,0,0,1-.84-2.69l.18-2.58-1.34-.17c.05-.66.14-1.48.3-2.44l1.16.11c0-.35,0-.65,0-.89s0-.44-.05-.6c.37-.24.79-.51,1.28-.79s1-.6,1.67-.95l.07.09,0,2.33v.33c0,.13,0,.29,0,.46l.63,0a6.19,6.19,0,0,0,1.3-.24,9.37,9.37,0,0,1,.2,2.83,6.39,6.39,0,0,1-1.14.15h-.61a3.22,3.22,0,0,1-.48-.05l-.1,1.77a2.18,2.18,0,0,0,.26,1.47A1.37,1.37,0,0,0,33,285c.06,0,.35-.11.86-.3a2.22,2.22,0,0,1,.24.41c.09.18.2.4.32.66s.22.48.3.68A4.79,4.79,0,0,1,34.86,286.93Z"/><path class="cls-1" d="M43.14,286.93a2.64,2.64,0,0,1-1,.48,4,4,0,0,1-1.32.22,4.22,4.22,0,0,1-3.21-1.13,3.3,3.3,0,0,1-.85-2.69l.18-2.58-1.34-.17c0-.66.14-1.48.3-2.44l1.16.11c0-.35,0-.65,0-.89a4.36,4.36,0,0,0,0-.6c.37-.24.79-.51,1.28-.79s1-.6,1.67-.95l.07.09,0,2.33v.33c0,.13,0,.29,0,.46l.63,0a6.43,6.43,0,0,0,1.31-.24,9.73,9.73,0,0,1,.19,2.83,6.29,6.29,0,0,1-1.13.15H40.4a3.37,3.37,0,0,1-.49-.05l-.1,1.77a2.18,2.18,0,0,0,.26,1.47,1.38,1.38,0,0,0,1.18.41c.07,0,.35-.11.86-.3a2.22,2.22,0,0,1,.24.41,6.89,6.89,0,0,1,.32.66c.12.26.23.48.3.68A3.1,3.1,0,0,1,43.14,286.93Z"/><path class="cls-1" d="M55,283.12a4.23,4.23,0,0,1-1.34,3.14,4.44,4.44,0,0,1-3.2,1.28,8.26,8.26,0,0,1-2.39-.38L48,291.52a17.59,17.59,0,0,1-3.05-.4l.05-4.25c0-.63,0-1.43.07-2.38s.08-2.09.14-3.39l-1.36.2.29-2.7c.8-.15,2.09-.31,3.87-.5l.07.55a5.87,5.87,0,0,1,1.69-.25,5.53,5.53,0,0,1,3.74,1.23A4.38,4.38,0,0,1,55,283.12Zm-3.3-.31a1.68,1.68,0,0,0-.58-1.37,2.56,2.56,0,0,0-1.67-.48,3.26,3.26,0,0,0-1.24.24l-.09,3.26a5,5,0,0,0,1.49.32,2.17,2.17,0,0,0,1.54-.51A1.92,1.92,0,0,0,51.72,282.81Z"/><path class="cls-1" d="M60.1,280.72a1.5,1.5,0,0,1-.14.64,1.65,1.65,0,0,1-.39.53,2.24,2.24,0,0,1-.58.35,2.1,2.1,0,0,1-1.4,0,2,2,0,0,1-.56-.35,1.78,1.78,0,0,1-.38-.53,1.37,1.37,0,0,1-.14-.64,1.44,1.44,0,0,1,.14-.65,1.62,1.62,0,0,1,.38-.52,1.77,1.77,0,0,1,.56-.35,2.1,2.1,0,0,1,1.4,0,2,2,0,0,1,.58.35,1.52,1.52,0,0,1,.39.52A1.58,1.58,0,0,1,60.1,280.72Zm0,5.3a1.58,1.58,0,0,1-.53,1.17,1.77,1.77,0,0,1-.58.34,1.95,1.95,0,0,1-1.4,0,1.59,1.59,0,0,1-.56-.34,1.56,1.56,0,0,1-.38-.53,1.34,1.34,0,0,1-.14-.64,1.44,1.44,0,0,1,.14-.65,1.62,1.62,0,0,1,.38-.52,1.77,1.77,0,0,1,.56-.35,2.1,2.1,0,0,1,1.4,0,2,2,0,0,1,.58.35,1.52,1.52,0,0,1,.39.52A1.58,1.58,0,0,1,60.1,286Z"/><path class="cls-1" d="M68.38,273.35,67,277.2l-.33.9-.35,1-3.26,10-1.87-.76a9.24,9.24,0,0,1,.28-1c.13-.43.31-1,.53-1.57l.45-1.27c.19-.53.43-1.17.7-1.93s.53-1.39.73-1.91l.45-1.28c.08-.21.17-.47.28-.78l.35-1.07,1-2.54a10.59,10.59,0,0,0,.77-2.42,1.26,1.26,0,0,1,1,.31A8.68,8.68,0,0,0,68.38,273.35Z"/><path class="cls-1" d="M76.08,273.35l-1.39,3.85-.33.9c-.11.31-.23.63-.34,1l-3.27,10-1.87-.76c.05-.24.15-.58.28-1s.31-1,.53-1.57l.45-1.27c.2-.53.43-1.17.71-1.93s.53-1.39.72-1.91.35-1,.45-1.28.17-.47.28-.78l.35-1.07.95-2.54a11.09,11.09,0,0,0,.78-2.42,1.24,1.24,0,0,1,.94.31C75.77,273.15,76,273.33,76.08,273.35Z"/><path class="cls-1" d="M87.26,287.46l-3,.17-.08-.5a9.1,9.1,0,0,1-2.62.5,4.47,4.47,0,0,1-3.28-1.3A4.4,4.4,0,0,1,77,283.1a4.54,4.54,0,0,1,1.42-3.54A5.25,5.25,0,0,1,82,278.35a5.32,5.32,0,0,1,1.92.34l.11-.59.7,0,.86.11,1.56.21q-.09.8-.12,1.71c0,.6,0,1.25,0,2C87,284,87.1,285.73,87.26,287.46Zm-3.13-2.82A14.47,14.47,0,0,1,84,283c0-.6,0-1.27,0-2a5.09,5.09,0,0,0-1.55-.26,2.57,2.57,0,0,0-.87.15,2.3,2.3,0,0,0-.7.44,1.86,1.86,0,0,0-.46.67,2.2,2.2,0,0,0-.17.86,2.4,2.4,0,0,0,.56,1.64,1.94,1.94,0,0,0,1.54.63A4.1,4.1,0,0,0,84.13,284.64Z"/><path class="cls-1" d="M98.82,282.31c0,.94,0,1.85,0,2.77s0,1.79,0,2.68a14.35,14.35,0,0,1-3.25-.48c.08-1.44.13-2.55.17-3.33s0-1.26,0-1.4c0-1.1-.5-1.65-1.48-1.65a4.72,4.72,0,0,0-1.82.46l0,6.3a13,13,0,0,1-1.42-.09c-.53-.05-1.14-.13-1.81-.25v-.16c0-1.48,0-2.93.07-4.36s.1-2.88.15-4.35c.41,0,.87-.09,1.36-.12s1-.07,1.6-.09v.54a7.51,7.51,0,0,1,2.78-.51Q98.83,278.27,98.82,282.31Z"/><path class="cls-1" d="M110.44,287.21v.11a17.76,17.76,0,0,1-2.82.31l-.12-.5a8.66,8.66,0,0,1-2.43.48,4.53,4.53,0,0,1-3.28-1.26,4.25,4.25,0,0,1-1.31-3.23,4.32,4.32,0,0,1,1.48-3.51,5.37,5.37,0,0,1,3.65-1.17,5.63,5.63,0,0,1,1.65.22l-.09-1.9-1.42-.08V274l4.22.38c.16,3.51.27,6.33.36,8.47S110.45,286.41,110.44,287.21Zm-3-2.75a27.09,27.09,0,0,0,0-3.34,3.49,3.49,0,0,0-1-.19,3,3,0,0,0-1.67.43,1.71,1.71,0,0,0-.77,1.53,2,2,0,0,0,.15.78,2.08,2.08,0,0,0,.4.61,1.9,1.9,0,0,0,.59.39,2.12,2.12,0,0,0,.75.14A3.27,3.27,0,0,0,107.39,284.46Z"/><path class="cls-1" d="M117.9,283.25a6.68,6.68,0,0,0-.87-.09c-.32,0-.68,0-1.06,0h-.71l-.8.06-1.49.16-1,0,.16-2.45.91-.08,2.23-.18.69-.05c.28,0,.58,0,.9,0l1,.06A9.36,9.36,0,0,1,117.9,283.25Z"/><path class="cls-1" d="M129.14,283a4.48,4.48,0,0,1-1.48,3.36,5,5,0,0,1-3.56,1.4,5,5,0,0,1-3.56-1.4,4.53,4.53,0,0,1,0-6.7,5.25,5.25,0,0,1,7.12,0A4.43,4.43,0,0,1,129.14,283Zm-2.89-.16a2,2,0,0,0-.63-1.46,2,2,0,0,0-1.5-.61,2,2,0,0,0-1.51.61,2,2,0,0,0,0,2.93,2,2,0,0,0,1.51.61,2,2,0,0,0,1.5-.61A2,2,0,0,0,126.25,282.81Z"/><path class="cls-1" d="M140.36,282.31c0,.94,0,1.85,0,2.77s0,1.79,0,2.68a14.35,14.35,0,0,1-3.25-.48c.08-1.44.13-2.55.16-3.33s.06-1.26.06-1.4c0-1.1-.49-1.65-1.48-1.65a4.72,4.72,0,0,0-1.82.46l.05,6.3a12.69,12.69,0,0,1-1.41-.09c-.54-.05-1.15-.13-1.82-.25v-.16c0-1.48,0-2.93.07-4.36s.1-2.88.15-4.35c.42,0,.87-.09,1.36-.12s1-.07,1.6-.09v.54a7.51,7.51,0,0,1,2.78-.51Q140.37,278.27,140.36,282.31Z"/><path class="cls-1" d="M145.78,286a1.58,1.58,0,0,1-.53,1.17,1.77,1.77,0,0,1-.58.34,1.85,1.85,0,0,1-.7.13,1.78,1.78,0,0,1-.7-.13,1.68,1.68,0,0,1-.56-.34,1.74,1.74,0,0,1-.39-.53,1.47,1.47,0,0,1-.14-.64,1.58,1.58,0,0,1,.14-.65,1.82,1.82,0,0,1,.39-.52,1.89,1.89,0,0,1,.56-.35,2,2,0,0,1,.7-.12,2.06,2.06,0,0,1,.7.12,2,2,0,0,1,.58.35,1.52,1.52,0,0,1,.39.52A1.58,1.58,0,0,1,145.78,286Z"/><path class="cls-1" d="M151.58,287.66c-.36,0-.82-.06-1.35-.12l-1.88-.22v-.16c0-1.25,0-2.24.1-3,0-.5.08-1,.11-1.5s0-1,.05-1.48l-1.51.12.29-2.8c.62-.07,1.29-.14,2-.19s1.42-.09,2.2-.12Zm-.05-12.07a1.4,1.4,0,0,1-.15.64,1.5,1.5,0,0,1-.37.52,1.87,1.87,0,0,1-.58.35,2,2,0,0,1-.69.12,1.94,1.94,0,0,1-.7-.12,1.82,1.82,0,0,1-.57-.35,1.52,1.52,0,0,1-.38-.52,1.56,1.56,0,0,1,0-1.29,1.62,1.62,0,0,1,.38-.52,1.52,1.52,0,0,1,.57-.35,1.94,1.94,0,0,1,.7-.12,2,2,0,0,1,.69.12,1.56,1.56,0,0,1,.58.35,1.59,1.59,0,0,1,.37.52A1.38,1.38,0,0,1,151.53,275.59Z"/><path class="cls-1" d="M163.31,282.31c0,.94,0,1.85,0,2.77s0,1.79,0,2.68a14.35,14.35,0,0,1-3.25-.48c.08-1.44.13-2.55.17-3.33s.05-1.26.05-1.4c0-1.1-.5-1.65-1.48-1.65a4.76,4.76,0,0,0-1.82.46l.05,6.3a13,13,0,0,1-1.42-.09c-.53-.05-1.14-.13-1.81-.25v-.16c0-1.48,0-2.93.07-4.36s.1-2.88.14-4.35c.42,0,.88-.09,1.37-.12s1-.07,1.6-.09v.54a7.51,7.51,0,0,1,2.78-.51Q163.31,278.27,163.31,282.31Z"/><path class="cls-1" d="M172.86,274.65a6.09,6.09,0,0,1-.46,1.15l-.33.66a3.45,3.45,0,0,1-.24.4,1.73,1.73,0,0,0-1-.33c-1.13,0-1.67.55-1.6,1.66v.4l.38,0h.49l.67,0,.57.06a9.33,9.33,0,0,1-.2,2.82c-.28,0-.53-.06-.76-.07h-.62l-.43,0c0,.17,0,.45,0,.82v1.43c0,1.46,0,2.72.15,3.8h-.25a9.59,9.59,0,0,0-1,0l-1.67.16c0-.31-.06-.72-.09-1.22s-.06-1.11-.08-1.82l0-1.61c0-.54,0-1.07-.05-1.62l-1.21.07-.17-2.73,1.29-.08v-.68a3.8,3.8,0,0,1,1.1-2.89,4.81,4.81,0,0,1,3.45-1.09A3.14,3.14,0,0,1,172.86,274.65Z"/><path class="cls-1" d="M182.52,283a4.48,4.48,0,0,1-1.48,3.36,5.23,5.23,0,0,1-7.12,0,4.53,4.53,0,0,1,0-6.7,5.25,5.25,0,0,1,7.12,0A4.43,4.43,0,0,1,182.52,283Zm-2.89-.16a2,2,0,0,0-.62-1.46,2.17,2.17,0,0,0-3,0,2,2,0,0,0,0,2.93,2.17,2.17,0,0,0,3,0A2,2,0,0,0,179.63,282.81Z"/></svg>