<svg id="レイヤー_1" data-name="レイヤー 1" xmlns="http://www.w3.org/2000/svg" viewBox="0 0 497.27 146.42"><defs><style>.cls-1{fill:#fff;}</style></defs><title>アートボード 1</title><path class="cls-1" d="M496.79,30.38c-.9-2.56-2.56-3.65-5-3.27a18.72,18.72,0,0,0-6.1,1.91,34.1,34.1,0,0,0-9.14,7.56q-3.94,4.64-7.33,9.14-4.06,5.19-7.9,10.49t-7.67,10.5q-3.62,5.64-7.44,11.5a123.29,123.29,0,0,0-7,12.19q-6.54,4.51-13.09,8.35a141.59,141.59,0,0,1-13.53,7c-.2.1-.36.2-.53.3a9.22,9.22,0,0,0-1.16.38,19.23,19.23,0,0,0-3.28,1.69,9.17,9.17,0,0,1-2.48,1.24q-3.62,1.82-8.57,4a100.46,100.46,0,0,1-10,3.72,87.88,87.88,0,0,1-9.82,2.49,24.77,24.77,0,0,1-7.9.45,2.15,2.15,0,0,1-1.57-1q-.46-.78.45-2.37a7.8,7.8,0,0,1,1.69-2.82c.68-.67,1.39-1.39,2.14-2.14a6.18,6.18,0,0,0,1.58-2.71,3.83,3.83,0,0,0-1.46-4.63,3,3,0,0,0-4.4.57,48.59,48.59,0,0,1-10.61,8.57,34,34,0,0,1-3.61,2.15c-1.8,1-3.76,1.91-5.87,2.82a35,35,0,0,1-6.2,2q-3,.68-4.4-.45c-1.06-.91-1.06-2.37,0-4.4a35.71,35.71,0,0,1,4.29-6.32q2.7-3.27,5.52-6.09t4-3.73c1.81-1.2,3.42-2.21,4.85-3a23.79,23.79,0,0,1,5.31-2.15l10.15-1.12a6.87,6.87,0,0,0,4.17-2.49q1.69-2-1-4.51c-1.21-.75-3.12-1-5.75-.68A67.82,67.82,0,0,0,359.6,87c-3,.76-5.86,1.58-8.57,2.49s-4.59,1.57-5.64,2q-2.94,1.13-7.33,2.93t-9.14,3.83q-4.74,2-8.92,4.18c-2.78,1.43-5.07,2.59-6.88,3.5a3.32,3.32,0,0,0-1,.75q-2.46,1.26-5.5,2.86a54.36,54.36,0,0,1-9.48,3.83q-4.05,1.36-9.47,2.94a60.9,60.9,0,0,1-10.95,2.14,30.13,30.13,0,0,1-10.49-.68,15.51,15.51,0,0,1-8.35-5.3q-3.37-4.52-1.35-8.69a12.82,12.82,0,0,1,6.54-6.2,18.27,18.27,0,0,1,6-2,28.52,28.52,0,0,1,6.21-.23c1.2.15,2.37.34,3.5.57a5.82,5.82,0,0,0,3-.12,3.75,3.75,0,0,0,2.82-1.35,3.68,3.68,0,0,0,.68-2.48,4.7,4.7,0,0,0-1.13-2.6,5.12,5.12,0,0,0-2.59-1.69,29,29,0,0,0-9.26.68,54.07,54.07,0,0,0-9,2.7,17.34,17.34,0,0,0-3.84,1.36c-1.2.6-2.48,1.2-3.83,1.8q-5.64,2.72-11,5.87a89.8,89.8,0,0,1-11.17,5.64l-.09.05a20.41,20.41,0,0,0-3.63,1.19c-1.58.68-3.12,1.39-4.62,2.15a15.54,15.54,0,0,1-3.39,1.35,34.9,34.9,0,0,1-8.12,1.35,13.15,13.15,0,0,1-7.9-2,10.76,10.76,0,0,1-2.71-2.25,24,24,0,0,0,3.39-7.9,7.16,7.16,0,0,0-2-7,4.32,4.32,0,0,0-3.16-.9,3.37,3.37,0,0,0-1.35-3.61,8.24,8.24,0,0,0-6.55-.9,28,28,0,0,0-6.54,2.48q-4.52,1.35-9.37,2.71A91.8,91.8,0,0,0,168,95.59l-23.47,10.15h0l-19.4,10.38q-8.81,4.51-19.07,9.7a148.55,148.55,0,0,1-21,8.69,86.73,86.73,0,0,1-21.55,4.17,42.5,42.5,0,0,1-21-4.06L39.65,133a61.09,61.09,0,0,0,12.19-14q5.19-8.11,9.7-15.34,5.19-7.89,9.93-15.91t9.25-15.9q5-8.36,9.93-17.27t10.49-17.37a167,167,0,0,1,12-16.13,99.82,99.82,0,0,1,14.33-14,2.83,2.83,0,0,0,1.35-2.48A5.17,5.17,0,0,0,128.1,2,4.17,4.17,0,0,0,126.18.26a3.38,3.38,0,0,0-2.82.11A16.54,16.54,0,0,0,116.48,6q-3,4.07-5.3,7.22A186,186,0,0,0,99.11,30q-5.53,8.68-10.72,17.71Q80.49,62,72.71,75.84T55.9,103a141.29,141.29,0,0,1-10.49,14A48.7,48.7,0,0,1,32,128.08c-2.41-1.51-4.89-2.93-7.45-4.29a36.6,36.6,0,0,0-7.55-3,18.79,18.79,0,0,0-7.34-.57,12.15,12.15,0,0,0-6.77,3.39A8,8,0,0,0,.17,128a8.73,8.73,0,0,0,.33,4.62A12.68,12.68,0,0,0,3,136.77a10.1,10.1,0,0,0,4.17,2.82,19.78,19.78,0,0,0,11.4,1.58,76.38,76.38,0,0,0,11.62-2.71l4.51-2.26q5.19,3.17,10.49,5.87a40.92,40.92,0,0,0,23.24,4.06A65.58,65.58,0,0,0,80,143.65a111.63,111.63,0,0,0,17.71-7.33q8.48-4.41,17-8.92,5.42-2.7,10.6-5.53t10.38-5.75l5.87-2.71a41.63,41.63,0,0,0,4.73-2.57l.12,0a14.82,14.82,0,0,0,2.6-1c.9-.45,1.8-.93,2.7-1.46s1.66-.94,2.26-1.25q5-2.48,9.93-4.73t10.15-4.07l-4.28,4.29a48.89,48.89,0,0,0-4.74,5.64,28.9,28.9,0,0,0-3.84,7,11.54,11.54,0,0,0-.56,6.88q.78,3.27,5.3,5.3a14.77,14.77,0,0,0,7.67,1.13,25.5,25.5,0,0,0,7.79-2.14,39.57,39.57,0,0,0,7.1-4.18,70.62,70.62,0,0,0,6.1-5l5-5.19a13.71,13.71,0,0,0,5.87,3.5,24.36,24.36,0,0,0,7,1,41,41,0,0,0,7.33-.67,52.78,52.78,0,0,0,7.11-1.81l2.71-.9c1.35-.45,2.67-.94,4-1.47a9.59,9.59,0,0,0,1.72-.9,5,5,0,0,0,2.79-1q1.92-1.35,3.27-2.25a34.25,34.25,0,0,0,4.85-2.71q2.37-1.57,4.85-2.93v.22a14.52,14.52,0,0,0-1.24,9.37,16.31,16.31,0,0,0,3.95,7.55A21,21,0,0,0,270,125.6a58.25,58.25,0,0,0,20.76-3.84q10.15-3.83,19.4-8.35a37.93,37.93,0,0,0,4.18-1.35,4.94,4.94,0,0,0,2.88-2.4c2.38-1.19,4.95-2.45,7.72-3.81q4.84-2.37,9.25-4.62t7.9-3.84a43.31,43.31,0,0,1,5.07-2,31.78,31.78,0,0,0-6.31,4.74,54.12,54.12,0,0,0-6.21,6.88A50.77,50.77,0,0,0,330,114.2a13.42,13.42,0,0,0-1.8,5.76,7.47,7.47,0,0,0,3.38,6.31,11.78,11.78,0,0,0,7.22,1.81,21.83,21.83,0,0,0,8.69-2.82q4.17-2.37,8-4.63l6.09-3.61a11.65,11.65,0,0,0-.22,6c.45,1.89,1.95,3.35,4.51,4.4a13,13,0,0,0,6.43.68,36.47,36.47,0,0,0,6.88-1.58,48.78,48.78,0,0,0,6.55-2.71c2.1-1.05,4.06-2,5.86-2.71l7.9-3.49c2.56-1.13,5.11-2.29,7.67-3.5.6-.3,1.51-.68,2.71-1.13s2.41-.94,3.61-1.46a9,9,0,0,0,2.23-1.35,174.1,174.1,0,0,0,18.75-10.73,79.46,79.46,0,0,0-4.06,10.83,29.12,29.12,0,0,0-.9,5.31,12.94,12.94,0,0,0,.56,5.19,7.57,7.57,0,0,0,2.82,3.83,7.33,7.33,0,0,0,5.42,1,23.3,23.3,0,0,0,7.45-1.69q3.6-1.47,7.44-2.83l26.18-9.7a14.71,14.71,0,0,0,3.38-2.14c1.2-1,1-2.07-.68-3.27q-1.8-1.12-4.28.22a19.18,19.18,0,0,1-4.29,1.81q-6.32,2.7-12.86,5a101.21,101.21,0,0,1-13.32,3.61,6.52,6.52,0,0,1-2,.34c-1,.08-2.18.19-3.38.34s-2.86.38-4.51.68a17.12,17.12,0,0,1-.23-6.21,37.3,37.3,0,0,1,1.58-6.66,54.27,54.27,0,0,1,2.6-6.43c1-2,1.84-3.94,2.59-5.75a211.15,211.15,0,0,0,24-20.65,179.2,179.2,0,0,0,20.19-24c.76-1.05,1.73-2.29,2.94-3.72A50.46,50.46,0,0,0,494.53,40a20.19,20.19,0,0,0,2.37-4.74A7.16,7.16,0,0,0,496.79,30.38ZM22.39,132a26.43,26.43,0,0,0-2.82.79,41.82,41.82,0,0,1-5.87.56A6.31,6.31,0,0,1,8.29,131c-.6-.6-.79-1.09-.57-1.46a3,3,0,0,1,1.13-1,6.48,6.48,0,0,1,1.81-.68,8,8,0,0,1,1.69-.22,21.86,21.86,0,0,1,6.43,1A67.92,67.92,0,0,1,25.21,131,12.85,12.85,0,0,1,22.39,132Zm173.4-24.71a16,16,0,0,1-2.7,3.61l-3.39,3.39a22.83,22.83,0,0,1-9.59,5.19,27.78,27.78,0,0,1-11.17.45c-2.11-.3-3-1.24-2.82-2.82a12.5,12.5,0,0,1,2.15-5.08,37.93,37.93,0,0,1,4.17-5.19q2.37-2.48,3.27-3.38a39,39,0,0,1,9.14-5.65,33.82,33.82,0,0,1,11.4-2.7,9.08,9.08,0,0,0-1.7,5.86A19.41,19.41,0,0,0,195.79,107.32ZM486.86,39.74a30.22,30.22,0,0,0-1.35,2.82,77.63,77.63,0,0,1-7.67,10.83,175.18,175.18,0,0,1-19.41,21.44l-4.17,3.72q-2.14,1.92-4.18,3.5c1.36-2.41,2.78-4.77,4.29-7.11s3.08-4.7,4.74-7.11q4.51-6.09,9-11.84a121.19,121.19,0,0,1,9.71-11q1.8-1.8,4.62-4.51a24.68,24.68,0,0,1,6-4.29A29,29,0,0,1,486.86,39.74Z"/></svg>