<svg id="レイヤー_1" data-name="レイヤー 1" xmlns="http://www.w3.org/2000/svg" viewBox="0 0 846.36 1028.32"><defs><style>.cls-1{fill:#fff;}</style></defs><title>アートボード 1</title><path class="cls-1" d="M451.88,756.41h2.5v43.25h-2.5Zm12.44,0h2.43v43.25h-2.43Z"/><path class="cls-1" d="M451.88,296.41h2.5v43.25h-2.5Zm12.44,0h2.43v43.25h-2.43Z"/><path class="cls-1" d="M549.62,504.25a35.29,35.29,0,0,1,1.55,9.92l-6.57.93c0-.56.06-1.05.06-1.55a25.17,25.17,0,0,0-.8-6.51c-8.5,4.15-13.64,9.05-13.64,11.72s4.52,4,11.9,4a85.74,85.74,0,0,0,13.7-1.3,26.19,26.19,0,0,0-.43,4.89c0,.5.06,1,.06,1.55a95.63,95.63,0,0,1-11.34.75c-13.46,0-20.34-3.78-20.34-9.3,0-4.84,5.77-11.53,17.55-17.73a9.34,9.34,0,0,0-7.07-3.16,9,9,0,0,0-3.91.86c-3.72,1.86-7.5,4.84-12.65,10.36l-4.89-4.78c7.5-6.13,12-10.23,15.81-17.6-3.29.12-6.51.12-8.93.12h-4l-.25-6.32s4.84.43,11,.43c1.17,0,2.48,0,3.78-.06a46,46,0,0,0,.87-6.76l6.38.56c-.25,2-.56,3.91-1,5.83a89.41,89.41,0,0,0,16.24-2.92l1,6.33A128,128,0,0,1,534.93,487a29.94,29.94,0,0,1-3.78,7.13,12.13,12.13,0,0,1,4.52-.81,14.25,14.25,0,0,1,11.1,5.52c3.78-1.8,9.49-4.28,14.14-6.08l2.29,5.83A129.69,129.69,0,0,0,549.62,504.25Z"/><path class="cls-1" d="M598.48,506.42v13.27c0,6.82-.43,9-9.86,9.55l-2.73-6c6.58,0,6.7-.18,6.7-3.35V508c-2.17.56-4.46,1.12-7.25,1.67l-1.62-5.82c3.41-.5,6.27-1.06,8.87-1.68V490.3h-7.44v-5.58h7.44v-11h5.89v11H604v5.58h-5.52v10.42a52.76,52.76,0,0,0,5.83-1.86v5.45A51.8,51.8,0,0,1,598.48,506.42Zm13.95-22.19V498.3c0,11.66-.37,22.19-4.71,31.18l-5.15-3.72c3.91-7,4.16-17.23,4.16-29.51V479h13.14v-5.27h6.07V479h12v5.27Zm21.7,44.2a31.74,31.74,0,0,0-1.68-5.95,85.31,85.31,0,0,1-19.65,5.33L611.19,522c1.3-.12,2.36-.31,3.78-.55,1.12-3.6,3.78-14.57,5.7-34.91l5.89,1a263.8,263.8,0,0,1-5.39,32.86,50.42,50.42,0,0,0,9.92-3.1,42.74,42.74,0,0,0-3.6-9l4.72-2.72c4.09,7.93,7.25,20.08,7.25,20.08Z"/><path class="cls-1" d="M661.1,529.36l-2.48-5.89h3.47c9.36,0,9.49-.62,9.49-14.26v-1H659.24s1.18-10.23,1.49-18.73h10.6v-8h-12v-5.58h18.11V495H666.8c-.24,3.23-.62,7.63-.62,7.63h11.66C677.84,527,676.91,529.36,661.1,529.36Zm48.73.12a38.27,38.27,0,0,1-16.68-21.32h-4.27v14.13a50,50,0,0,0,8.61-2.35l-.31,5.7a112,112,0,0,1-17,3.53l-1.74-5.58s2.91-.18,4.34-.43v-15h-3.47v-5.4h3.59v-26.9h27.16V481H689v3.91h19.28v4.65H689v4.09h19.22v4.65H689v4.46h24.49v5.4h-14.2c.25,1.61,1.74,4.52,3.41,6.82a22.66,22.66,0,0,0,3.47-5.77l5.15,2.54a39.5,39.5,0,0,1-5.27,6.89,31.5,31.5,0,0,0,7.81,5.51Z"/><path class="cls-1" d="M769.85,488.63c-1.24,0-2.48.06-3.72.06,0,2.54.06,5.77.06,9.05,0,5.89-.12,12-.87,15.13-2,8.68-8.62,13.76-14.88,16.61a29.36,29.36,0,0,0-5.39-5.14c6.76-2.23,10.54-5.09,12.58-8.87a9.92,9.92,0,0,1-3.28.56c-5.4,0-11-4-11.16-9.61v-.37c0-8,5.45-12,10.91-12a11.18,11.18,0,0,1,5.95,1.68c0-2.11-.12-4.9-.12-6.88-14.45.43-27.47,1.11-27.47,1.11l-.37-6.26s13-.31,27.59-.74c-.25-2.92-.37-5.58-.62-7.75l6.32-.5c.13,2.6.37,5.27.44,8.06,3-.12,6.44-.12,9.73-.12s6.51,0,9.24-.07l.18,6.27C780.39,488.81,775.05,488.63,769.85,488.63Zm-10.17,16.49a5.26,5.26,0,0,0-5.46-5.58c-3.34,0-5.2,2.54-5.2,5.89s3.16,5,6.07,5c2.48,0,4.16-2,4.53-4.59C759.62,505.55,759.68,505.37,759.68,505.12Z"/><path class="cls-1" d="M823.29,528.06c-7.56,0-15.5-3.41-15.5-10,0-5.39,5.34-8.67,10.79-8.67a14.66,14.66,0,0,1,13.33,8.55l-4.59,3.72c-3-5.08-6-6.76-9-6.76-2.79,0-4.83.93-4.83,3.29,0,3,5,4.46,9.67,4.46,10.17,0,17.3-5.58,17.3-13,0-5.76-5.15-8.68-15.32-8.68a21.51,21.51,0,0,0-9.73,2.05c-4,1.8-8.06,6.14-9.55,7.63l-4.52-5.09a212.85,212.85,0,0,0,24.79-22.13,105.76,105.76,0,0,1-12.64.62c-2.11,0-4.16,0-6.2-.13l-.75-6.38c2.55.25,5.4.31,8.37.31a133.2,133.2,0,0,0,18.29-1.24l2.54,5.95a184.68,184.68,0,0,1-15.62,14.07,26.37,26.37,0,0,1,6.26-.93c14.45,0,20,6.33,20,14.2C846.36,520.8,835.75,528.06,823.29,528.06Z"/><path class="cls-1" d="M569.6,920.25a35.29,35.29,0,0,1,1.55,9.92l-6.57.93c0-.56.06-1.05.06-1.55a25.17,25.17,0,0,0-.8-6.51c-8.5,4.15-13.64,9.05-13.64,11.72s4.52,4,11.9,4a85.63,85.63,0,0,0,13.7-1.3,26.19,26.19,0,0,0-.43,4.89c0,.5.06,1,.06,1.55a95.49,95.49,0,0,1-11.34.75c-13.46,0-20.34-3.78-20.34-9.3,0-4.84,5.77-11.53,17.55-17.73a9.34,9.34,0,0,0-7.07-3.16,9,9,0,0,0-3.91.86c-3.72,1.86-7.5,4.84-12.65,10.36l-4.89-4.78c7.5-6.13,12-10.23,15.81-17.6-3.29.12-6.51.12-8.93.12h-4l-.25-6.32s4.84.43,11,.43c1.17,0,2.48,0,3.78-.06a46,46,0,0,0,.87-6.76l6.38.56c-.25,2-.56,3.91-1,5.83a89.41,89.41,0,0,0,16.24-2.92l1,6.33A128,128,0,0,1,554.91,903a29.94,29.94,0,0,1-3.78,7.13,12.13,12.13,0,0,1,4.52-.81,14.25,14.25,0,0,1,11.1,5.52c3.78-1.8,9.49-4.28,14.14-6.08l2.29,5.83A129.69,129.69,0,0,0,569.6,920.25Z"/><path class="cls-1" d="M605.88,944.93l-2.24-5.58a90.64,90.64,0,0,0,17.42-4.1l3,4.22A83.89,83.89,0,0,1,605.88,944.93Zm47-7s-.74-1.24-2.6-3.84c-4.59.31-9.24.56-15.87.74v10.66H628V934.94c-8,.19-15.38.19-19.34.19H605.5l-.93-5s5.71.12,13.95.12h4.28a58.63,58.63,0,0,0-9.67-6.26L618,920.5a27.13,27.13,0,0,1,2.92,1.86,26.17,26.17,0,0,0,6.63-4.77h-5.45v2.72H616v-2.72H605V913.8h11v-2.29H606.8V897.25H616v-2.11H605.25v-3.59H616v-1.86h6.08v1.86h10.85v3.59H622.06v2.11h9.36v14.26h-9.36v2.29H632v3.79H628.5l4.16,2.41a52.86,52.86,0,0,1-7.75,5.4,39.18,39.18,0,0,1,3.41,2.85A52.48,52.48,0,0,0,640,919.38l5.27,3.1a71.82,71.82,0,0,1-11,7.63c4.9-.06,8.74-.19,13.08-.5-.43-.56-2-2.23-2.48-2.85l5.15-2.35c6.07,7.37,8.49,10.91,8.49,10.91Zm-36.45-37.63h-4.34v2.48h4.34Zm0,5.39h-4.34v2.79h4.34Zm9.61-5.39h-4.53v2.48h4.53Zm0,5.39h-4.53v2.79h4.53Zm27-2.85h-2.91c-3,0-4.71-1.67-4.71-4.84v-2.72h-4.09c0,1.49-.38,7.19-5.89,9.17l-3.54-4c4.34-1.54,4.41-4.83,4.41-9.17H651v6.45c0,.93.74,1.11,1.3,1.11,1.05,0,1.18-.56,1.18-4.46l4.77,2C657.89,901.09,657.15,902.83,653.05,902.83Zm2.48,17.67a60.26,60.26,0,0,1-10.1-3.16,44.68,44.68,0,0,1-10.91,2.79l-2.3-4.65a43.92,43.92,0,0,0,8.12-.68,27.22,27.22,0,0,1-5.26-4.22l4.46-2h-6.45v-4h22.44v3.47a19.55,19.55,0,0,1-5.27,6.57,43.57,43.57,0,0,0,7.82.93Zm1.24,24.36a84.31,84.31,0,0,1-17-5.51l2.55-4.41a77.15,77.15,0,0,0,17.17,4.59ZM639.85,908.6a12.92,12.92,0,0,0,5.33,4.15,10.33,10.33,0,0,0,4.46-4.15Z"/><path class="cls-1" d="M690.88,939.66l-6.08-1c-1.24-4.09-2.29-11-2.29-19.83A116.63,116.63,0,0,1,685,895.21l6.44,1a104.27,104.27,0,0,0-2.85,23.68,52,52,0,0,0,.62,9s2.67-3.16,5.21-6.88l2.29,4.47C694.47,930.17,690.88,939.66,690.88,939.66Zm31.18-28.83c.06,4.71.06,9.11.06,11.9,0,10.23-1.67,16.8-12.21,23.37-2.48-2.23-5.89-5-5.89-5,9.86-5.2,11.22-9.17,11.72-17.79.12-1.73.18-4.15.18-6.94,0-1.61-.06-3.35-.06-5.15-1.61.06-3.22.13-4.9.13a117.81,117.81,0,0,1-13.08-.75l.06-6.51a122.21,122.21,0,0,0,15.56,1.18c.75,0,1.49-.06,2.24-.06-.07-4.78-.25-9.49-.5-12.83l6.57-.19c.13,3.22.19,7.81.25,12.52a26.55,26.55,0,0,0,8.8-2.66l1.62,6.32A38.68,38.68,0,0,1,722.06,910.83Zm6.2-9.86-4.9-5.64,3.41-1.86,5,5.52Zm5-3.16-4.59-5.33,3.23-1.8,4.71,5.27Z"/><path class="cls-1" d="M776.31,944.06c-7.56,0-15.5-3.41-15.5-10,0-5.39,5.33-8.67,10.79-8.67a14.67,14.67,0,0,1,13.33,8.55l-4.59,3.72c-3-5.08-6-6.76-9-6.76-2.79,0-4.83.93-4.83,3.29,0,3,5,4.46,9.67,4.46,10.17,0,17.3-5.58,17.3-13,0-5.76-5.15-8.68-15.32-8.68a21.51,21.51,0,0,0-9.73,2.05c-4,1.8-8.06,6.14-9.55,7.63l-4.52-5.09a212.85,212.85,0,0,0,24.79-22.13,105.76,105.76,0,0,1-12.64.62c-2.11,0-4.16,0-6.2-.13l-.75-6.38c2.55.25,5.4.31,8.37.31a133.2,133.2,0,0,0,18.29-1.24l2.54,6a184.68,184.68,0,0,1-15.62,14.07,26.37,26.37,0,0,1,6.26-.93c14.45,0,20,6.33,20,14.2C799.38,936.8,788.77,944.06,776.31,944.06Z"/><path class="cls-1" d="M546.53,76.25a35.29,35.29,0,0,1,1.55,9.92l-6.57.93c0-.56.06-1,.06-1.55a25.17,25.17,0,0,0-.8-6.51c-8.5,4.15-13.64,9-13.64,11.72s4.52,4,11.9,4a85.63,85.63,0,0,0,13.7-1.3,26.19,26.19,0,0,0-.43,4.89c0,.5.06,1,.06,1.55a95.63,95.63,0,0,1-11.34.75c-13.46,0-20.34-3.78-20.34-9.3,0-4.84,5.77-11.53,17.55-17.73a9.34,9.34,0,0,0-7.07-3.16,9,9,0,0,0-3.91.86c-3.72,1.86-7.5,4.84-12.65,10.36l-4.89-4.78c7.5-6.13,12-10.23,15.81-17.6-3.29.12-6.51.12-8.93.12h-4l-.25-6.32s4.84.43,11,.43c1.17,0,2.48,0,3.78-.06a46,46,0,0,0,.87-6.76l6.38.56c-.25,2-.56,3.91-1,5.83a89.41,89.41,0,0,0,16.24-2.92l1,6.33A128.36,128.36,0,0,1,531.84,59a29.94,29.94,0,0,1-3.78,7.13,12.13,12.13,0,0,1,4.52-.81,14.25,14.25,0,0,1,11.1,5.52c3.78-1.8,9.49-4.28,14.14-6.08l2.29,5.83A130.59,130.59,0,0,0,546.53,76.25Z"/><path class="cls-1" d="M629.49,80.34V73.52H609.4v6.89h-5.64v-2.3l-3.66,2a22.63,22.63,0,0,0-.8-2.6,34.71,34.71,0,0,1-3.6.44v23.55h-5.89V78.42c-4,.25-8.31.37-8.31.37l-.93-5.64h3.6c2.35-2.73,4.77-5.76,6.14-7.75a83.32,83.32,0,0,0-9.74-6.63l3.54-4.53c.68.5,1.86,1.43,2.41,1.86a54.3,54.3,0,0,0,5-10.35L596.75,48a73.79,73.79,0,0,1-6.44,10.85c1.11.93,2,1.92,2.72,2.54a53.9,53.9,0,0,0,4.53-7.5L603,56.41A134.45,134.45,0,0,1,590.55,73c1.74-.07,5.21-.25,6.76-.44a21.8,21.8,0,0,0-1.3-2.66l4.65-2.11a69,69,0,0,1,3.1,7.62V68.44h31.31v11.9Zm-43.28,18.6-5.33-1.3a93.79,93.79,0,0,0,2.54-16.06l5.09.62S587.52,92.87,586.21,98.94Zm13-4s-.87-5.64-2.11-11.72l4.78-1.11c1.73,6.94,2.6,11.65,2.6,11.65Zm6.57,6.57-4.09-5.08c9.49-3.66,9.92-9.05,9.92-19.1h5.83C617.4,91.32,615.11,97.14,605.74,101.48Zm16.62-46.93v5.09h11.1v4.71H605.19V59.64h11.09V54.55H603.76v-5h12.52v-3.9h6.08v3.9h13v5ZM630,100.18h-3.41s-5.51,0-5.51-5.52V77.3h5.82V93.55A1.38,1.38,0,0,0,628.37,95h.75c.86,0,1.92-.24,2.1-7.31l5.15,2.85C635.87,99.44,633.27,100.18,630,100.18Z"/><path class="cls-1" d="M667.81,95.66l-6.08-1c-1.24-4.09-2.29-11-2.29-19.83a116.63,116.63,0,0,1,2.48-23.62l6.44,1a104.27,104.27,0,0,0-2.85,23.68,52,52,0,0,0,.62,9s2.67-3.16,5.21-6.88l2.29,4.47C671.4,86.17,667.81,95.66,667.81,95.66ZM699,66.83c.06,4.71.06,9.11.06,11.9,0,10.23-1.67,16.8-12.21,23.37-2.48-2.23-5.89-5-5.89-5,9.86-5.2,11.22-9.17,11.72-17.79.12-1.73.18-4.15.18-6.94,0-1.61-.06-3.35-.06-5.15-1.61.06-3.22.13-4.9.13a117.81,117.81,0,0,1-13.08-.75l.06-6.51a122.23,122.23,0,0,0,15.57,1.18c.74,0,1.48-.06,2.23-.06-.07-4.78-.25-9.49-.5-12.83l6.57-.19c.13,3.22.19,7.81.25,12.52a26.55,26.55,0,0,0,8.8-2.66l1.62,6.32A38.68,38.68,0,0,1,699,66.83Z"/><path class="cls-1" d="M751.38,100.06c-7.56,0-15.5-3.41-15.5-10,0-5.39,5.33-8.67,10.79-8.67A14.67,14.67,0,0,1,760,89.89l-4.59,3.72c-3-5.08-5.95-6.76-9-6.76-2.79,0-4.83.93-4.83,3.29,0,3,5,4.46,9.67,4.46,10.17,0,17.3-5.58,17.3-13,0-5.76-5.15-8.68-15.32-8.68a21.51,21.51,0,0,0-9.73,2c-4,1.8-8.06,6.14-9.55,7.63l-4.52-5.09a212.85,212.85,0,0,0,24.79-22.13,105.76,105.76,0,0,1-12.64.62c-2.11,0-4.16,0-6.2-.13l-.75-6.38c2.55.25,5.4.31,8.37.31a133.2,133.2,0,0,0,18.29-1.24l2.54,6a184.68,184.68,0,0,1-15.62,14.07,26.37,26.37,0,0,1,6.26-.93c14.45,0,20,6.33,20,14.2C774.45,92.8,763.84,100.06,751.38,100.06Z"/><path class="cls-1" d="M222.28,165.19a22.5,22.5,0,0,1-4-2.27V164h-3.18v4h7.06v2.65h-7.06V174c0,1.06,1.17,1,1.17,1h2c1.32,0,1.94-.18,2.41-3.65l2.89,1.65c-1.21,4.56-2.24,4.65-4.63,4.65H214.8a2.59,2.59,0,0,1-2.65-2.62v-4.42h-4.38c-.94,3.92-3.39,6.18-8.89,7.66l-1.74-2.74c4.53-.94,7.13-2.77,7.63-4.92H198.5V168h6.8a33.58,33.58,0,0,0,.2-4h-2.62V163a30.87,30.87,0,0,1-4.5,2.24l-1.3-2.89a17.57,17.57,0,0,0,5.07-2.06,43.37,43.37,0,0,0-4.57-3.15l1.8-2.12a60.7,60.7,0,0,1,5,3.6,10.36,10.36,0,0,0,3.06-3.24h-6.85v-2.59H210.8a15.26,15.26,0,0,0,2.18,2.62,14.68,14.68,0,0,0,3.77-3.42l2,1.86a27.66,27.66,0,0,1-3.92,3.35,17.61,17.61,0,0,0,2,1.56,12.61,12.61,0,0,0,3.54-3.47l2,1.91a26,26,0,0,1-3.33,3,22.4,22.4,0,0,0,4.53,2.09ZM210,156a17.86,17.86,0,0,1-5.06,5.51h11.16A32.47,32.47,0,0,1,210,156Zm2.12,8h-3.73c0,1.24-.12,2.86-.24,4h4Z"/><path class="cls-1" d="M238.38,158.71v19.61h-3V163c-.7,1.27-1.61,2.56-1.61,2.56L232.4,163a33.09,33.09,0,0,0,5.65-11.1l2.74.83A40.21,40.21,0,0,1,238.38,158.71Zm1.62.62v-2.56h18.89v2.56Zm14.74,19v-1.21H243.88v1.21h-3v-9.07h16.81v9.07Zm-13-15v-2.26h15.13v2.26Zm0,4.1v-2.27h15.13v2.27Zm.27-12.37v-2.38h14.51v2.38Zm12.74,16.58H243.88v3.12h10.86Z"/><path class="cls-1" d="M286.29,166.34a16.5,16.5,0,0,1,.74,4.71l-3.12.44c0-.27,0-.5,0-.74a12.08,12.08,0,0,0-.38-3.09c-4,2-6.48,4.3-6.48,5.56s2.15,1.92,5.65,1.92a40.53,40.53,0,0,0,6.51-.62,12.11,12.11,0,0,0-.21,2.32c0,.24,0,.48,0,.74a44.78,44.78,0,0,1-5.39.35c-6.38,0-9.65-1.79-9.65-4.41,0-2.3,2.74-5.48,8.33-8.42a4.43,4.43,0,0,0-3.36-1.5,4.26,4.26,0,0,0-1.85.41,21.44,21.44,0,0,0-6,4.92l-2.33-2.27c3.56-2.91,5.71-4.86,7.51-8.36-1.56.06-3.09.06-4.24.06h-1.89l-.11-3s2.29.2,5.21.2c.56,0,1.17,0,1.79,0a20.84,20.84,0,0,0,.41-3.2l3,.26a28.1,28.1,0,0,1-.48,2.77,42.4,42.4,0,0,0,7.72-1.39l.47,3a60.79,60.79,0,0,1-8.92,1.17,13.8,13.8,0,0,1-1.8,3.39,5.73,5.73,0,0,1,2.15-.38,6.74,6.74,0,0,1,5.27,2.62c1.8-.86,4.5-2,6.71-2.89l1.09,2.77A59.58,59.58,0,0,0,286.29,166.34Z"/><path class="cls-1" d="M325.68,168.28V165h-9.54v3.27h-2.68v-1.09l-1.74.94a9.21,9.21,0,0,0-.38-1.23c-.53.08-1.15.17-1.71.2v11.19h-2.79V167.37c-1.89.11-3.95.17-3.95.17l-.44-2.68h1.71a45.73,45.73,0,0,0,2.91-3.67,38.47,38.47,0,0,0-4.62-3.15l1.68-2.15c.32.23.88.67,1.15.88a26.42,26.42,0,0,0,2.35-4.92l2.5,1.09a33.47,33.47,0,0,1-3.06,5.15c.53.45.95.92,1.3,1.21a26.94,26.94,0,0,0,2.15-3.56l2.56,1.18a64.78,64.78,0,0,1-5.89,7.86c.83,0,2.47-.12,3.21-.21a10.63,10.63,0,0,0-.62-1.27l2.21-1a31.75,31.75,0,0,1,1.47,3.62v-3.29h14.86v5.65Zm-20.55,8.83-2.53-.62a45.13,45.13,0,0,0,1.21-7.62l2.41.29S305.75,174.22,305.13,177.11Zm6.15-1.91s-.41-2.68-1-5.57l2.27-.53c.82,3.3,1.23,5.54,1.23,5.54Zm3.12,3.12-1.94-2.42c4.5-1.73,4.71-4.3,4.71-9.06h2.77C319.94,173.49,318.85,176.26,314.4,178.32ZM322.29,156v2.42h5.27v2.23H314.14v-2.23h5.27V156h-6v-2.35h6v-1.85h2.88v1.85h6.18V156Zm3.62,21.67h-1.62a2.57,2.57,0,0,1-2.62-2.62v-8.24h2.77v7.71a.66.66,0,0,0,.71.68h.35c.41,0,.91-.12,1-3.48l2.44,1.36C328.71,177.34,327.47,177.7,325.91,177.7Z"/><path class="cls-1" d="M343.86,175.55l-2.88-.47a34.67,34.67,0,0,1-1.09-9.42,55,55,0,0,1,1.18-11.21l3.06.5a49.55,49.55,0,0,0-1.36,11.24,24.26,24.26,0,0,0,.3,4.3s1.27-1.5,2.47-3.27l1.09,2.12A54.09,54.09,0,0,0,343.86,175.55Zm14.81-13.69c0,2.24,0,4.33,0,5.65,0,4.86-.8,8-5.8,11.1-1.18-1.06-2.8-2.35-2.8-2.35,4.68-2.48,5.33-4.36,5.57-8.45.06-.83.09-2,.09-3.3,0-.76,0-1.59,0-2.44-.77,0-1.53.06-2.33.06a55.47,55.47,0,0,1-6.21-.36l0-3.09a57,57,0,0,0,7.39.56c.35,0,.7,0,1.06,0,0-2.26-.12-4.5-.24-6.09l3.12-.09c.06,1.53.09,3.71.12,5.95a12.73,12.73,0,0,0,4.18-1.27l.76,3A18,18,0,0,1,358.67,161.86Z"/><path class="cls-1" d="M381.33,159.65a83.38,83.38,0,0,1-6,13.34l-2.83-1.83a55.17,55.17,0,0,0,5.62-11.39c-.53,0-1,0-1.5,0-.7,0-1.35,0-2-.06l0-2.82c1,.09,2,.12,2.94.12.48,0,1,0,1.42,0a46.41,46.41,0,0,0,1.14-4.65l3.07.44c-.3,1.35-.62,2.65-1,3.94,1.36-.18,2.71-.41,4.13-.73l.29,3C384.84,159.33,383,159.51,381.33,159.65Zm13.48,16a17.88,17.88,0,0,0-4.09-2.56c0,3.29-1.5,5.09-4.47,5.09a8.12,8.12,0,0,1-1.18-.09c-3.47-.47-6.45-2.68-6.45-5.3,0-2.91,2.36-4,5.6-4,.59,0,1.2.06,1.85.12a10.85,10.85,0,0,1,1.89.29c0-1.53-.18-3.91-.36-6l3-.12c.21,2.38.27,6.86.27,6.86a27.3,27.3,0,0,1,5.56,2.79A14.73,14.73,0,0,0,394.81,175.7Zm-8.94-3.86a15.63,15.63,0,0,0-1.92-.12c-1.56,0-2.32.36-2.32,1.3s1.12,1.82,3.41,2.24a6.6,6.6,0,0,0,.91.08c1.47,0,2-.88,2-3.12A14.17,14.17,0,0,0,385.87,171.84Zm11.68-9.8a16.3,16.3,0,0,0-3.83.79l-1.88-1.67a23.29,23.29,0,0,0,2.53-.8,37.84,37.84,0,0,0-5.21-1.77l1.15-2.58a43.64,43.64,0,0,1,8,3.26Z"/><path class="cls-1" d="M413.62,175.55l-2.89-.47a35.16,35.16,0,0,1-1.08-9.42,55.64,55.64,0,0,1,1.17-11.21l3.06.5a49.46,49.46,0,0,0-1.35,11.24,25.5,25.5,0,0,0,.29,4.3s1.27-1.5,2.48-3.27l1.09,2.12A54.09,54.09,0,0,0,413.62,175.55Zm14.8-13.69c0,2.24,0,4.33,0,5.65,0,4.86-.79,8-5.79,11.1-1.18-1.06-2.8-2.35-2.8-2.35,4.68-2.48,5.33-4.36,5.56-8.45.06-.83.09-2,.09-3.3,0-.76,0-1.59,0-2.44-.76,0-1.53.06-2.32.06a55.47,55.47,0,0,1-6.21-.36l0-3.09a57,57,0,0,0,7.39.56c.36,0,.71,0,1.06,0,0-2.26-.12-4.5-.23-6.09l3.12-.09c.06,1.53.09,3.71.11,5.95a12.65,12.65,0,0,0,4.18-1.27l.77,3A18.06,18.06,0,0,1,428.42,161.86Z"/><path class="cls-1" d="M463.89,176.7a3.62,3.62,0,0,1-3.77-3.71c0-4.45,1.48-8.13,1.48-10.19s-.89-2.67-2.48-2.67a13,13,0,0,0-8.3,3.88c-.14,3.3-.26,6.77-.26,9.77,0,1.39,0,2.65.09,3.77l-3.12.15c0-3,.06-6.24.17-9.39-1.06,1.79-2.2,3.24-3.21,5.33l-2.44-1.95a75.75,75.75,0,0,1,5.86-8.09l0-1.5c-2.21-.21-3.3-.3-5.24-.56l.2-3a50.41,50.41,0,0,0,5.22.79c.23-4.5.26-6.83.26-6.83l3.06.3s-.23,3.26-.47,7.62a14.86,14.86,0,0,1,8.18-3c3.42,0,5.42,1.62,5.42,5.15,0,2.59-1.47,5.77-1.47,9.42,0,1.12.41,1.53,1.32,1.53,1.12,0,2.3-1.12,3.45-3.53a8,8,0,0,0,1.79,2.5C468,175.46,465.78,176.7,463.89,176.7Z"/><path class="cls-1" d="M482.93,176.31l-2.82-.44a48.28,48.28,0,0,1-.68-8.41,64.18,64.18,0,0,1,1.44-13.54l2.89.64a55.15,55.15,0,0,0-1.56,12.75,18.25,18.25,0,0,0,.26,3.65s1.15-1.65,1.71-2.62l1.47,1.85A51.34,51.34,0,0,0,482.93,176.31ZM501.36,174a24.22,24.22,0,0,0-3.06-1.94c0,3.85-1.24,5.12-4.09,5.12-.33,0-.68,0-1.06-.06-3-.27-6.07-2.15-6.07-4.71,0-3.44,4.1-4,6.45-4a13.31,13.31,0,0,1,1.88.11c0-.82-.08-3.68-.17-6.85h-.71a45.88,45.88,0,0,1-6.83-.47l.24-2.89a43.42,43.42,0,0,0,6.5.47h.65c-.12-2.32-.18-4.33-.26-5.47l3.23-.12c0,.47,0,1.09,0,1.82,0,1,0,2.3.06,3.65a24.73,24.73,0,0,0,3.77-.53l.21,2.92a30.37,30.37,0,0,1-3.95.5c.09,3.12.15,5.91.18,7.39a23.35,23.35,0,0,1,4.38,2.06S502,172.4,501.36,174Zm-7.92-2.92c-2.29,0-3.24.45-3.24,1.24,0,1,1.36,1.83,2.95,2a4.65,4.65,0,0,0,.62,0c1.29,0,1.61-.62,1.61-2.94A7.52,7.52,0,0,0,493.44,171.1Zm7.15-13.65-2.32-2.68,1.62-.88,2.38,2.62ZM503,156l-2.18-2.53,1.53-.86,2.24,2.5Z"/><path class="cls-1" d="M537.89,178.32a28.39,28.39,0,0,1-11.25-3.74A32.07,32.07,0,0,1,514,178.32l-1.08-2.95c4.76-.38,8.35-1.23,11-2.68a22.3,22.3,0,0,1-4.92-5.32H517v-2.56h17.42v1.76a14.66,14.66,0,0,1-5.15,6.15,26.93,26.93,0,0,0,9.66,2.59Zm-2.24-11.78v-4.06h-19.6v4.15h-2.83V160h5.12a32.39,32.39,0,0,0-1.94-3.86h-1.89l-.85-2.67H515c16.81,0,21.9-1.06,21.9-1.06l1.33,2.56s-5.42.73-11.57,1a40.2,40.2,0,0,1,1.94,4.06h2.83a23.48,23.48,0,0,0,2.27-4.33l2.76,1a33.88,33.88,0,0,1-1.79,3.3h3.79v6.59Zm-12-10.59c-1.3,0-2.71.08-4.21.08a32.88,32.88,0,0,1,1.88,3.92h4.27A37.87,37.87,0,0,0,523.64,156Zm-1.21,11.42a15.73,15.73,0,0,0,4.21,3.85,9.61,9.61,0,0,0,3.92-3.85Z"/><path class="cls-1" d="M554,175.55l-2.88-.47a34.67,34.67,0,0,1-1.09-9.42,55,55,0,0,1,1.18-11.21l3.06.5a49.55,49.55,0,0,0-1.36,11.24,24.26,24.26,0,0,0,.3,4.3s1.26-1.5,2.47-3.27l1.09,2.12A54.09,54.09,0,0,0,554,175.55Zm14.81-13.69c0,2.24,0,4.33,0,5.65,0,4.86-.8,8-5.8,11.1-1.18-1.06-2.8-2.35-2.8-2.35,4.68-2.48,5.33-4.36,5.57-8.45.06-.83.09-2,.09-3.3,0-.76,0-1.59,0-2.44-.77,0-1.54.06-2.33.06a55.47,55.47,0,0,1-6.21-.36l0-3.09a57,57,0,0,0,7.39.56c.35,0,.7,0,1.06,0,0-2.26-.12-4.5-.24-6.09l3.12-.09c.06,1.53.09,3.71.12,5.95a12.73,12.73,0,0,0,4.18-1.27l.76,3A18,18,0,0,1,568.82,161.86Z"/><path class="cls-1" d="M606.82,178a27.5,27.5,0,0,1-4-5.09,28.11,28.11,0,0,1-4.85,5.39l-2-2.51a19.91,19.91,0,0,0,5.24-5.35,41.85,41.85,0,0,1-3.82-11.39l2.79-.59a31.7,31.7,0,0,0,2.62,9.27,31,31,0,0,0,2.44-10.33h-8.56v-2.18h-1.68v23.08h-2.85v-5.51c-3.86.83-9.25,1.74-9.25,1.74l-.61-3s.82,0,2.2-.21V155.24h-2.2v-2.53h14.48v2.06h11.3c0,3.77-.68,10.21-3.74,15.69a20.18,20.18,0,0,0,4.45,5.24Zm-14.6-22.78h-4.8v3.27h4.8Zm0,5.62h-4.8v3.59h4.8Zm0,5.95h-4.8v4.12c1.53-.18,3.33-.47,4.8-.77Z"/><path class="cls-1" d="M639.6,176.7a3.61,3.61,0,0,1-3.76-3.71c0-4.45,1.47-8.13,1.47-10.19s-.89-2.67-2.47-2.67a13,13,0,0,0-8.3,3.88c-.15,3.3-.27,6.77-.27,9.77,0,1.39,0,2.65.09,3.77l-3.12.15c0-3,.06-6.24.18-9.39-1.06,1.79-2.21,3.24-3.21,5.33l-2.45-1.95a75.75,75.75,0,0,1,5.86-8.09l0-1.5c-2.21-.21-3.3-.3-5.24-.56l.21-3a49.77,49.77,0,0,0,5.21.79c.23-4.5.26-6.83.26-6.83l3.06.3s-.23,3.26-.47,7.62a14.89,14.89,0,0,1,8.19-3c3.41,0,5.41,1.62,5.41,5.15,0,2.59-1.47,5.77-1.47,9.42,0,1.12.41,1.53,1.32,1.53,1.12,0,2.3-1.12,3.45-3.53a8.18,8.18,0,0,0,1.79,2.5C643.75,175.46,641.49,176.7,639.6,176.7Z"/><path class="cls-1" d="M662.12,159.65a83.38,83.38,0,0,1-6,13.34l-2.83-1.83a55.68,55.68,0,0,0,5.62-11.39c-.53,0-1,0-1.5,0-.71,0-1.35,0-2-.06l0-2.82c1,.09,2,.12,2.94.12.47,0,.94,0,1.41,0a46.43,46.43,0,0,0,1.15-4.65l3.06.44c-.29,1.35-.62,2.65-1,3.94,1.36-.18,2.71-.41,4.12-.73l.3,3C665.62,159.33,663.83,159.51,662.12,159.65Zm13.48,16a18.1,18.1,0,0,0-4.09-2.56c0,3.29-1.5,5.09-4.48,5.09a8,8,0,0,1-1.17-.09c-3.48-.47-6.45-2.68-6.45-5.3,0-2.91,2.36-4,5.59-4,.59,0,1.21.06,1.86.12a10.73,10.73,0,0,1,1.88.29c0-1.53-.17-3.91-.35-6l3-.12c.21,2.38.27,6.86.27,6.86a27.56,27.56,0,0,1,5.56,2.79A14.73,14.73,0,0,0,675.6,175.7Zm-9-3.86a15.36,15.36,0,0,0-1.91-.12c-1.56,0-2.33.36-2.33,1.3s1.12,1.82,3.42,2.24a6.6,6.6,0,0,0,.91.08c1.47,0,2-.88,2-3.12A14.3,14.3,0,0,0,666.65,171.84Zm11.69-9.8a16.3,16.3,0,0,0-3.83.79l-1.88-1.67a24.17,24.17,0,0,0,2.53-.8,38.36,38.36,0,0,0-5.21-1.77L671.1,156a43.78,43.78,0,0,1,8,3.26Z"/><path class="cls-1" d="M695.58,176.34c-3.59,0-6.35-6.35-6.35-11.42v-.08a63.35,63.35,0,0,1,.56-9.39l3.2.38a55.92,55.92,0,0,0-.67,9c0,4.2,1.56,7.88,3.15,7.88.91,0,1.85-2.29,2.65-5.5a12.67,12.67,0,0,0,2.79,1.74C699.76,173.17,697.85,176.34,695.58,176.34Zm13.78-6.29a26.11,26.11,0,0,0-5.45-10.63l2.74-1.47a27.53,27.53,0,0,1,5.77,10.77Z"/><path class="cls-1" d="M221.86,613.43c-8.56,0-11.39-2.21-11.39-5.33a12.56,12.56,0,0,1,2.12-5.88l2.95,1.18c-1.15,1.64-2,3.09-2,4.2,0,1.8,2.09,2.86,8.25,2.86a36.13,36.13,0,0,0,9.92-1.5s.05,2,.11,3.59A50,50,0,0,1,221.86,613.43Zm.68-14.63-2.26-1.64a34.64,34.64,0,0,1,4.62-2.33h-.56c-2.15,0-8.51.12-10.54.32l0-3.09c1.47,0,3.09-.06,4.74-.06a99.36,99.36,0,0,1,11.21.51l.39,3A36.89,36.89,0,0,0,222.54,598.8Z"/><path class="cls-1" d="M254.24,613.43c-8.56,0-11.39-2.21-11.39-5.33a12.45,12.45,0,0,1,2.12-5.88l2.94,1.18c-1.15,1.64-2,3.09-2,4.2,0,1.8,2.09,2.86,8.24,2.86a36.08,36.08,0,0,0,9.92-1.5s.06,2,.12,3.59A50,50,0,0,1,254.24,613.43Zm.68-14.63-2.27-1.64a35.31,35.31,0,0,1,4.62-2.33h-.56c-2.15,0-8.5.12-10.53.32l0-3.09c1.47,0,3.09-.06,4.74-.06a99.48,99.48,0,0,1,11.21.51l.38,3A36.93,36.93,0,0,0,254.92,598.8Z"/><path class="cls-1" d="M287,614a8.48,8.48,0,0,1-4-1.32l1-2.92a5.58,5.58,0,0,0,2.68,1c1.91,0,2.32-2.56,2.32-7.44,0-3.89-.88-4.92-2.82-4.92a20.19,20.19,0,0,0-2.21.12,66.65,66.65,0,0,1-6.71,15.13l-2.53-1.91A55,55,0,0,0,280.58,599a38.07,38.07,0,0,0-4.76,1.09l-.83-3c1.94-.42,4.24-.83,6.51-1.12.61-2.21,1.14-4.42,1.56-6.54l3,.53c-.33,1.83-.77,3.71-1.3,5.65.77-.06,1.5-.08,2.21-.08,2.88,0,4.89,2.73,4.89,7.59C291.89,609.69,290.56,614,287,614Zm12.27-7a19.94,19.94,0,0,0-4.47-2l-.06-2.44a8.87,8.87,0,0,1,2.74.74,19.3,19.3,0,0,0-5-6.89l2.57-1.53a22.4,22.4,0,0,1,6.21,9.6Z"/><path class="cls-1" d="M316.79,615.32a8.08,8.08,0,0,0-1.33-3c10.16,0,12.72-3.2,12.72-6,0-2.56-2.12-4.21-5-4.21-3.59,0-7.89,1.94-9.83,4.86l-2.91-1.27a71.77,71.77,0,0,1,1.29-9.59l3.12.58a44.07,44.07,0,0,0-1.26,6.21,15,15,0,0,1,9.59-3.47c3.71,0,7.89,2.06,7.89,6.89C331.09,610.55,327.68,614.87,316.79,615.32Zm2.06-19.11L317,594.33a22.94,22.94,0,0,1,3.48-1.09,24.17,24.17,0,0,1-6.13-1.47l1.09-2.8a37.83,37.83,0,0,0,9.57,2.21v3.44A23.38,23.38,0,0,0,318.85,596.21Z"/><path class="cls-1" d="M353.43,613.43c-8.57,0-11.39-2.21-11.39-5.33a12.45,12.45,0,0,1,2.12-5.88l2.94,1.18c-1.15,1.64-2,3.09-2,4.2,0,1.8,2.09,2.86,8.24,2.86a36.08,36.08,0,0,0,9.92-1.5s.06,2,.12,3.59A50,50,0,0,1,353.43,613.43Zm.68-14.63-2.27-1.64a35.31,35.31,0,0,1,4.62-2.33h-.56c-2.15,0-8.5.12-10.54.32l0-3.09c1.47,0,3.09-.06,4.73-.06a99.55,99.55,0,0,1,11.22.51l.38,3A36.93,36.93,0,0,0,354.11,598.8Z"/><path class="cls-1" d="M389.4,613.23a8.54,8.54,0,0,0-1.92-2.45c6.36-1.47,8.83-4.71,8.83-8.15,0-4.68-3.06-7.51-8.27-7.51a12.17,12.17,0,0,0-10.21,6.69,10.45,10.45,0,0,0-1.09,4.09c0,1.17.47,1.79,1.35,1.79a4.49,4.49,0,0,0,2.45-1c2.59-1.76,6.18-6.09,8.12-10.74l2.71,1.26a28.61,28.61,0,0,1-9.86,12.28,6.8,6.8,0,0,1-3.68,1.32c-2.33,0-3.86-1.91-3.86-4.85a12.35,12.35,0,0,1,1.06-4.71,14.79,14.79,0,0,1,13.19-8.66c7.53,0,11.1,4.65,11.1,10C399.32,607.07,396.64,611.37,389.4,613.23Z"/><path class="cls-1" d="M431.19,598.39v9H419.48v-9h-4.57v12.19h19.43v2.65H414.91v2.09h-3V598.39H408.7v-2.68h3.24v-5.56h3v5.56h4.57v-6.88h2.88v6.88h5.95v-6.88h2.88v6.88h4v2.68Zm-2.88,0h-5.95v6.39h5.95Z"/><path class="cls-1" d="M469.1,608.22a25.59,25.59,0,0,1-5.12-2.68v9.54h-3.06V605h2.23a27.07,27.07,0,0,1-3.79-3.2h-3.92a12.29,12.29,0,0,1-3.12,3.2h1.74c0,4.27,0,7.51-4.65,10.31l-2.62-2.06c3.5-1.8,4.24-3.27,4.24-6.48V606a29,29,0,0,1-5.42,2.82L444,606.13c4-1.12,6.89-2.65,8.19-4.32H446.5V589.68h21.66v12.13h-5.42a20.41,20.41,0,0,0,7.77,3.56Zm-13.33-16.13h-6.39v2.39h6.39Zm0,4.56h-6.39v2.8h6.39Zm9.5-4.56h-6.62v2.39h6.62Zm0,4.56h-6.62v2.8h6.62Z"/><path class="cls-1" d="M485,613.31l-2.82-.44a48.28,48.28,0,0,1-.68-8.41,64.18,64.18,0,0,1,1.44-13.54l2.89.64a55.15,55.15,0,0,0-1.56,12.75,18.25,18.25,0,0,0,.26,3.65s1.15-1.65,1.71-2.62l1.47,1.85A51.34,51.34,0,0,0,485,613.31ZM503.42,611a25,25,0,0,0-3.06-1.94c0,3.85-1.24,5.12-4.09,5.12-.33,0-.68,0-1.06-.06-3-.27-6.07-2.15-6.07-4.71,0-3.44,4.09-4,6.45-4a13.31,13.31,0,0,1,1.88.11c0-.82-.09-3.68-.17-6.85h-.71a45.88,45.88,0,0,1-6.83-.47l.24-2.89a43.42,43.42,0,0,0,6.5.47h.65c-.12-2.32-.18-4.33-.27-5.47l3.24-.12c0,.47,0,1.09,0,1.82,0,1,0,2.3.06,3.65a24.73,24.73,0,0,0,3.77-.53l.21,2.92a30.37,30.37,0,0,1-3.95.5c.09,3.12.15,5.91.18,7.39a23.35,23.35,0,0,1,4.38,2.06S504.1,609.4,503.42,611Zm-7.92-2.92c-2.29,0-3.24.45-3.24,1.24,0,1,1.36,1.83,2.95,2a4.65,4.65,0,0,0,.62,0c1.29,0,1.61-.62,1.61-2.94A7.52,7.52,0,0,0,495.5,608.1Z"/><path class="cls-1" d="M538.12,608.22c0,5.15-3.15,6.89-10.12,6.89-4.74,0-7.36-2.53-7.36-6a8,8,0,0,1,.11-1.36c.09-.53.21-1.09.33-1.65-3.68-.56-5.15-2.94-5.45-7.8l3-.91c0,3.77.42,5.65,3.12,6,.62-2.24,1.39-4.71,2.3-7.22a27.29,27.29,0,0,1-4.18-3l1.88-2.38a37.88,37.88,0,0,0,3.39,2.59c.56-1.42,1.21-2.86,1.85-4.27l2.89.91c-.83,1.65-1.56,3.27-2.21,4.83a21.57,21.57,0,0,0,4.48,1.41l-1.27,2.89a38,38,0,0,1-4.27-1.59c-.7,2-1.29,3.94-1.76,5.68,1.73-.24,3.94-.65,6.74-1.27l.58,2.92a54.35,54.35,0,0,1-8,1.26c-.09.41-.18.83-.27,1.21a6.92,6.92,0,0,0-.14,1.44c0,2.24,1.41,3.33,4.32,3.33,5,0,7-1,7-4.27a21.94,21.94,0,0,0-1.15-5.86s.44,0,1,0a13.9,13.9,0,0,0,2.15-.15A24.92,24.92,0,0,1,538.12,608.22Z"/><path class="cls-1" d="M566.38,604c0,5.13-5.89,8-12.34,9a7.61,7.61,0,0,0-1.32-2.53c6.95-.94,11.15-3.06,11.15-6.53a4.48,4.48,0,0,0-.2-1.36c-.59-2.09-2.74-2.82-5.39-2.82a31.61,31.61,0,0,0-10.89,2.56l-.94-2.51c2.44-.76,7.51-2.32,11.92-2.32,3.56,0,6.71,1,7.68,4.33A7.07,7.07,0,0,1,566.38,604Z"/><path class="cls-1" d="M595.84,613.46a45.1,45.1,0,0,1-13.25.35c-3.24-.44-5.47-1.64-5.47-4.17a6.15,6.15,0,0,1,.32-1.77c.91-2.86,3-4.89,5.65-6.71-.79-5.65-1.88-10.92-1.88-10.92l3.56-.53s.74,4.83,1.32,9.74a51.42,51.42,0,0,1,7.66-3.18l1.29,2.89c-6.65,1.76-13.24,5.24-14.54,9a2.43,2.43,0,0,0-.14.86c0,1.09.94,1.65,2.64,1.91a23.49,23.49,0,0,0,3.42.21A39.26,39.26,0,0,0,596,609.9S595.84,611.84,595.84,613.46Z"/><path class="cls-1" d="M610.61,594.12v2.62c0,1.48,0,2.92,0,4.33,0,5.48-.23,10.51-2.38,14.22l-2.33-2.09c1.74-3.27,1.8-8.66,1.8-15.19v-6.39h10.36v-2.79h3.24v2.79h10.36v2.5Zm19,21s-.56-1.38-1.53-3.27a122.08,122.08,0,0,1-17.55,2.71l-.58-2.91c1,0,1.91-.12,2.88-.12,1-1.83,3.5-6.51,6-16.66l2.95.88a83.06,83.06,0,0,1-5.6,15.45,83.48,83.48,0,0,0,10.6-1.76,42.35,42.35,0,0,0-4.24-6.33L625,601.6a82.08,82.08,0,0,1,7.18,11.8Z"/><path class="cls-1" d="M654,614a8.51,8.51,0,0,1-4-1.32l1-2.92a5.61,5.61,0,0,0,2.68,1c1.92,0,2.33-2.56,2.33-7.44,0-3.89-.89-4.92-2.83-4.92a20.32,20.32,0,0,0-2.21.12,65.79,65.79,0,0,1-6.71,15.13l-2.53-1.91A54.62,54.62,0,0,0,647.61,599a38.23,38.23,0,0,0-4.77,1.09l-.82-3c1.94-.42,4.23-.83,6.5-1.12.62-2.21,1.15-4.42,1.56-6.54l3,.53c-.32,1.83-.76,3.71-1.29,5.65.76-.06,1.5-.08,2.21-.08,2.88,0,4.88,2.73,4.88,7.59C658.91,609.69,657.59,614,654,614Zm12.27-7a20.2,20.2,0,0,0-4.47-2l-.06-2.44a8.72,8.72,0,0,1,2.73.74,19.12,19.12,0,0,0-5-6.89l2.56-1.53a22.31,22.31,0,0,1,6.21,9.6Zm-1.09-10.13-2.5-2.94,1.62-.89,2.56,2.89Zm2.36-1.5-2.36-2.8,1.53-.85,2.42,2.77Z"/><path class="cls-1" d="M687.87,614.64c-3.59,0-7.36-1.62-7.36-4.77,0-2.56,2.54-4.12,5.13-4.12a7,7,0,0,1,6.32,4.06l-2.17,1.77c-1.45-2.42-2.83-3.21-4.27-3.21s-2.3.44-2.3,1.56c0,1.41,2.39,2.12,4.59,2.12,4.83,0,8.22-2.65,8.22-6.18,0-2.74-2.45-4.12-7.27-4.12a10.17,10.17,0,0,0-4.62,1,17.24,17.24,0,0,0-4.54,3.62l-2.15-2.41a101.71,101.71,0,0,0,11.78-10.51,51.76,51.76,0,0,1-6,.29c-1,0-2,0-2.94-.06l-.35-3c1.2.12,2.56.15,4,.15a63.35,63.35,0,0,0,8.68-.59l1.21,2.83a88.4,88.4,0,0,1-7.42,6.68,12.07,12.07,0,0,1,3-.44c6.86,0,9.48,3,9.48,6.74C698.82,611.2,693.79,614.64,687.87,614.64Z"/><path class="cls-1" d="M194.61,1028.32a33.23,33.23,0,0,1-11.45-6.16,29.71,29.71,0,0,1-12.18,6.16l-1.36-3.12c4.89-1.27,8.39-2.77,11.19-5.1a27.21,27.21,0,0,1-6.83-11.45h-3.71V1006h11v-4.18h3.12V1006h10.92v2.64h-3.59a25.31,25.31,0,0,1-6.42,11.51c2.71,2.12,6.09,3.51,10.69,5Zm-17.48-19.67a23,23,0,0,0,5.85,9.45,21.7,21.7,0,0,0,5.6-9.45Z"/><path class="cls-1" d="M212.39,1009.39v18.93h-3v-15.57a26.45,26.45,0,0,1-3.12,2.85l-1.42-2.88a28.72,28.72,0,0,0,8.57-10.89l2.68,1.06A29.44,29.44,0,0,1,212.39,1009.39Zm14.83,18.13h-7.41a2.56,2.56,0,0,1-2.77-2.62v-22.49h3v9.81c2.3-.86,6.45-2.71,9-5.8l2,2.06a30.29,30.29,0,0,1-11,6.83v8.53c0,.77.47,1,1.18,1h4.27c2.85,0,2.94-.5,2.94-4.35v-.71l3,1.59C231.4,1026.58,229.81,1027.52,227.22,1027.52Z"/><path class="cls-1" d="M253,1027a8.51,8.51,0,0,1-4-1.32l1-2.92a5.58,5.58,0,0,0,2.68,1c1.91,0,2.33-2.56,2.33-7.44,0-3.89-.89-4.92-2.83-4.92a20.32,20.32,0,0,0-2.21.12,65.79,65.79,0,0,1-6.71,15.13l-2.53-1.91a54.62,54.62,0,0,0,5.86-12.75,38.23,38.23,0,0,0-4.77,1.09l-.82-3c1.94-.42,4.23-.83,6.5-1.12.62-2.21,1.15-4.42,1.56-6.54l3,.53c-.32,1.83-.76,3.71-1.29,5.65.76-.06,1.5-.08,2.2-.08,2.89,0,4.89,2.73,4.89,7.59C257.89,1022.69,256.57,1027,253,1027Zm12.28-7a20.2,20.2,0,0,0-4.47-2l-.06-2.44a8.72,8.72,0,0,1,2.73.74,19.12,19.12,0,0,0-5-6.89l2.56-1.53a22.31,22.31,0,0,1,6.21,9.6Zm-1.09-10.13-2.5-2.94,1.62-.89,2.56,2.89Zm2.36-1.5-2.36-2.8,1.53-.85,2.41,2.77Z"/><path class="cls-1" d="M276.58,1028.05l-1.06-2.65a42.57,42.57,0,0,0,8.27-1.94l1.41,2A39.43,39.43,0,0,1,276.58,1028.05Zm22.34-3.33s-.35-.58-1.24-1.82c-2.17.15-4.38.27-7.53.35v5.07h-3.06v-5c-3.8.09-7.3.09-9.19.09h-1.5L276,1021s2.71.06,6.63.06h2a27,27,0,0,0-4.6-3l2.3-1.65a12.15,12.15,0,0,1,1.38.89,12.5,12.5,0,0,0,3.15-2.27h-2.59v1.3h-2.88v-1.3h-5.21v-1.79h5.21v-1.09H277v-6.77h4.36v-1h-5.09v-1.71h5.09v-.88h2.88v.88h5.15v1.71h-5.15v1h4.45v6.77h-4.45v1.09H289v1.79h-1.65l2,1.15a25.11,25.11,0,0,1-3.68,2.56,21,21,0,0,1,1.62,1.35,24.83,24.83,0,0,0,5.53-4.21l2.5,1.48a34.64,34.64,0,0,1-5.21,3.62c2.33,0,4.15-.09,6.21-.24-.2-.26-.94-1.06-1.18-1.35l2.45-1.12c2.88,3.5,4,5.18,4,5.18Zm-17.31-17.86h-2.06V1008h2.06Zm0,2.56h-2.06v1.32h2.06Zm4.57-2.56H284V1008h2.15Zm0,2.56H284v1.32h2.15Zm12.8-1.35H297.6a2,2,0,0,1-2.24-2.3v-1.3h-1.94a4.5,4.5,0,0,1-2.8,4.36l-1.68-1.88c2.06-.74,2.09-2.3,2.09-4.36h7v3.06c0,.44.35.53.62.53.5,0,.56-.26.56-2.12l2.26.94C301.28,1007.24,300.92,1008.07,299,1008.07Zm1.18,8.38a28.49,28.49,0,0,1-4.8-1.5,21.39,21.39,0,0,1-5.18,1.33l-1.09-2.21a21.45,21.45,0,0,0,3.86-.32,13,13,0,0,1-2.51-2l2.12-.94H289.5v-1.88h10.66v1.65a9.52,9.52,0,0,1-2.5,3.12,21.59,21.59,0,0,0,3.7.44Zm.59,11.57a39.79,39.79,0,0,1-8.1-2.62l1.21-2.09a36.54,36.54,0,0,0,8.15,2.18Zm-8-17.22a6,6,0,0,0,2.53,2,4.89,4.89,0,0,0,2.12-2Z"/><path class="cls-1" d="M323.64,1027a8.48,8.48,0,0,1-4-1.32l1-2.92a5.58,5.58,0,0,0,2.68,1c1.91,0,2.33-2.56,2.33-7.44,0-3.89-.89-4.92-2.83-4.92a20.32,20.32,0,0,0-2.21.12,66.22,66.22,0,0,1-6.71,15.13l-2.53-1.91a55,55,0,0,0,5.86-12.75,38.23,38.23,0,0,0-4.77,1.09l-.83-3c1.95-.42,4.24-.83,6.51-1.12.62-2.21,1.15-4.42,1.56-6.54l3,.53c-.32,1.83-.76,3.71-1.29,5.65.76-.06,1.5-.08,2.2-.08,2.89,0,4.89,2.73,4.89,7.59C328.53,1022.69,327.2,1027,323.64,1027Zm12.28-7a20.14,20.14,0,0,0-4.48-2l-.06-2.44a8.74,8.74,0,0,1,2.74.74,19.12,19.12,0,0,0-5-6.89l2.56-1.53a22.4,22.4,0,0,1,6.21,9.6Zm-1.09-10.13-2.5-2.94L334,1006l2.56,2.89Zm2.35-1.5-2.35-2.8,1.53-.85,2.41,2.77Z"/><path class="cls-1" d="M368.09,1026.7a3.62,3.62,0,0,1-3.77-3.71c0-4.45,1.47-8.13,1.47-10.19s-.88-2.67-2.47-2.67A13,13,0,0,0,355,1014c-.15,3.3-.27,6.77-.27,9.77,0,1.39,0,2.65.09,3.77l-3.12.15c0-3,.06-6.24.18-9.39-1.06,1.79-2.21,3.24-3.21,5.33l-2.44-1.95a76,76,0,0,1,5.85-8.09l0-1.5c-2.2-.21-3.29-.3-5.24-.56l.21-3a50.61,50.61,0,0,0,5.21.79c.24-4.5.27-6.83.27-6.83l3.06.3s-.24,3.26-.47,7.62a14.83,14.83,0,0,1,8.18-3c3.41,0,5.41,1.62,5.41,5.15,0,2.59-1.47,5.77-1.47,9.42,0,1.12.41,1.53,1.33,1.53,1.12,0,2.29-1.12,3.44-3.53a8.11,8.11,0,0,0,1.8,2.5C372.24,1025.46,370,1026.7,368.09,1026.7Z"/><path class="cls-1" d="M387.13,1026.31l-2.83-.44a48.35,48.35,0,0,1-.67-8.41,64.18,64.18,0,0,1,1.44-13.54l2.88.64a55.7,55.7,0,0,0-1.56,12.75,17.35,17.35,0,0,0,.27,3.65s1.15-1.65,1.71-2.62l1.47,1.85A49.74,49.74,0,0,0,387.13,1026.31Zm18.42-2.29a23.52,23.52,0,0,0-3.06-1.94c0,3.85-1.23,5.12-4.09,5.12-.32,0-.67,0-1.06-.06-3-.27-6.06-2.15-6.06-4.71,0-3.44,4.09-4,6.45-4a13.41,13.41,0,0,1,1.88.11c0-.82-.09-3.68-.18-6.85h-.7a45.79,45.79,0,0,1-6.83-.47l.23-2.89a43.64,43.64,0,0,0,6.51.47h.65c-.12-2.32-.18-4.33-.27-5.47l3.24-.12c0,.47,0,1.09,0,1.82,0,1,0,2.3.06,3.65a24.91,24.91,0,0,0,3.77-.53l.2,2.92a29.94,29.94,0,0,1-3.94.5c.09,3.12.14,5.91.17,7.39a23.44,23.44,0,0,1,4.39,2.06S406.23,1022.4,405.55,1024Zm-7.91-2.92c-2.3,0-3.24.45-3.24,1.24,0,1,1.35,1.83,2.94,2a4.72,4.72,0,0,0,.62,0c1.3,0,1.62-.62,1.62-2.94A7.59,7.59,0,0,0,397.64,1021.1Zm7.15-13.65-2.33-2.68,1.62-.88,2.39,2.62Zm2.35-1.5-2.17-2.53,1.53-.86,2.23,2.5Z"/><path class="cls-1" d="M425,1012.66v2.62h4.71v2.47H426.3a16.61,16.61,0,0,0,3.18,4.18l-1.94,2.59a25.07,25.07,0,0,1-2.59-5.45v9.25H422.1v-8.86a20.8,20.8,0,0,1-3.54,6.65l-1.76-2.89a14,14,0,0,0,4.09-5.47h-3.3v-2.47h4.51v-2.62h-4.8v-2.45H420a27.35,27.35,0,0,0-1-3.76h-1.09v-2.36h4.26v-2.26H425v2.26h4.27v2.36h-1.06a32.62,32.62,0,0,1-1.12,3.76H430v2.45Zm-3.24-6.21a37,37,0,0,1,1,3.76h1.71a24.63,24.63,0,0,0,1-3.76Zm18.61,6.35v15.52h-2.95V1012.8h-2.94c0,6-.77,11.28-3.33,15l-2.24-2.33c2.33-3.59,2.68-7.36,2.68-13.21v-8.75c6.51-.2,9.42-1.5,9.42-1.5l1.56,2.39a28.11,28.11,0,0,1-8.09,1.62v4.15h8.86v2.64Z"/><path class="cls-1" d="M461.27,1027.67c-4.27,0-7-2.59-7-7.77v-.33c.26-7.38.44-16.77.44-16.77l3.35.23s-.32,9.19-.59,16.57v.53c0,2.83,1,4.42,3.71,4.42,1.86,0,6.65-2,9.86-7.09a15.2,15.2,0,0,0,2.39,2.41C469.54,1025.08,463.83,1027.67,461.27,1027.67Z"/><path class="cls-1" d="M489.41,1026.34c-3.59,0-6.36-6.35-6.36-11.42v-.08a64.73,64.73,0,0,1,.56-9.39l3.21.38a55.9,55.9,0,0,0-.68,9c0,4.2,1.56,7.88,3.15,7.88.91,0,1.85-2.29,2.65-5.5a12.57,12.57,0,0,0,2.8,1.74C493.59,1023.17,491.67,1026.34,489.41,1026.34Zm13.77-6.29a26.09,26.09,0,0,0-5.44-10.63l2.74-1.47a27.66,27.66,0,0,1,5.77,10.77Z"/><path class="cls-1" d="M528,1015.13c0,.91-.11,2.47-.11,3.47,0,.3,0,.56,0,.83,0,2.94.91,3.76,4.82,3.76,1.54,0,3.54-.11,6.13-.29a15.28,15.28,0,0,0-.33,3.21c-1.79.09-3.35.12-4.77.12-6.35,0-8.88-1.09-8.88-6.54,0-.32,0-.68,0-1,0-1,.11-2.77.14-3.44-4.82.15-9.39.35-9.39.35l-.17-3s4.12-.06,9.65-.18c.12-1.76.15-3.38.21-4.68-1.8.06-3.77.09-5.54.09v-3c.65,0,1.3,0,2,0,6.45,0,13.78-.59,13.78-.59l.24,3.06s-3.33.21-7.54.35c0,1.56-.12,3.09-.12,4.68,3.95-.08,8.33-.2,12.36-.35l0,3C536.41,1014.92,532,1015,528,1015.13Z"/><path class="cls-1" d="M550.07,1026.49a13.1,13.1,0,0,0-2.59-2.56c10-4.06,15.45-9.89,19.25-20l3,1.17C565.76,1015.57,560.05,1021.93,550.07,1026.49Z"/><path class="cls-1" d="M591.19,1027a8.51,8.51,0,0,1-4-1.32l1-2.92a5.61,5.61,0,0,0,2.68,1c1.92,0,2.33-2.56,2.33-7.44,0-3.89-.88-4.92-2.83-4.92a20,20,0,0,0-2.2.12,66.24,66.24,0,0,1-6.72,15.13l-2.53-1.91a54.62,54.62,0,0,0,5.86-12.75,38.23,38.23,0,0,0-4.77,1.09l-.82-3c1.94-.42,4.24-.83,6.5-1.12.62-2.21,1.15-4.42,1.56-6.54l3,.53c-.32,1.83-.76,3.71-1.29,5.65.77-.06,1.5-.08,2.21-.08,2.88,0,4.88,2.73,4.88,7.59C596.07,1022.69,594.75,1027,591.19,1027Zm12.27-7a20.2,20.2,0,0,0-4.47-2l-.06-2.44a8.87,8.87,0,0,1,2.74.74,19.3,19.3,0,0,0-5-6.89l2.56-1.53a22.22,22.22,0,0,1,6.21,9.6Zm-1.09-10.13-2.5-2.94,1.62-.89,2.56,2.89Zm2.36-1.5-2.36-2.8,1.53-.85,2.42,2.77Z"/><path class="cls-1" d="M614,1027.05v-2.71h12.3v-5.77h-8.36v-2.65h8.36v-5.41h-6.42a25.74,25.74,0,0,1-3.15,4.41l-2.59-2a24.07,24.07,0,0,0,5.66-9.48l2.94.59a26.82,26.82,0,0,1-1.53,3.83h5.09v-6h3.06v6h8.83v2.65h-8.83v5.41H637v2.65h-7.65v5.77H639.9v2.71Z"/><path class="cls-1" d="M669.74,1026.05a26.69,26.69,0,0,0-6.32-3.41c0,3.2-2.45,4.82-6.95,4.82-2.83,0-6.51-1.38-6.51-4.71,0-4,5.15-4.06,7.21-4.06h.09a18.14,18.14,0,0,1,3.42.5c0-.47,0-1.94-.09-3.88-6.54-.09-9.3-1-9.3-4.39a7,7,0,0,1,.09-1.09l2.7-.68a6.27,6.27,0,0,0-.11,1.12c0,2.06,1.67,2.3,6.5,2.3-.06-1.35-.12-2.68-.2-4h-2.89c-2.32,0-4.5,0-6.74-.14l.24-2.86c2.12.12,4.18.21,6.53.21.85,0,1.77,0,2.71,0-.06-1.24-.12-2.35-.15-2.8l3-.11c0,.5.09,1.61.15,2.82,3-.15,5.68-.35,7.59-.59l.18,2.68c-1.88.35-5.36.53-7.65.71.06,1.29.09,2.62.12,3.94a16.49,16.49,0,0,0,6.94-2.18l.92,2.74a23.09,23.09,0,0,1-7.75,2.21c.06,2.12.09,4.5.09,4.5a50.94,50.94,0,0,1,7.74,3.36A30.31,30.31,0,0,0,669.74,1026.05Zm-12.86-4.89c-2,0-4.09.06-4.09,1.62s1.65,2.15,3.65,2.15c3.12,0,4.09-.71,4.09-3.18A19.06,19.06,0,0,0,656.88,1021.16Z"/><path class="cls-1" d="M703,1026.7a3.62,3.62,0,0,1-3.77-3.71c0-4.45,1.48-8.13,1.48-10.19s-.89-2.67-2.48-2.67A13,13,0,0,0,690,1014c-.14,3.3-.26,6.77-.26,9.77,0,1.39,0,2.65.09,3.77l-3.12.15c0-3,.06-6.24.17-9.39-1.06,1.79-2.2,3.24-3.21,5.33l-2.44-1.95a75.75,75.75,0,0,1,5.86-8.09l0-1.5c-2.21-.21-3.3-.3-5.24-.56l.21-3a50,50,0,0,0,5.2.79c.24-4.5.27-6.83.27-6.83l3.06.3s-.23,3.26-.47,7.62a14.86,14.86,0,0,1,8.18-3c3.42,0,5.42,1.62,5.42,5.15,0,2.59-1.47,5.77-1.47,9.42,0,1.12.41,1.53,1.32,1.53,1.12,0,2.3-1.12,3.45-3.53a8,8,0,0,0,1.79,2.5C707.18,1025.46,704.92,1026.7,703,1026.7Z"/><path class="cls-1" d="M727.75,1027.64c-3.59,0-7.35-1.62-7.35-4.77,0-2.56,2.53-4.12,5.12-4.12a7,7,0,0,1,6.33,4.06l-2.18,1.77c-1.44-2.42-2.83-3.21-4.27-3.21s-2.3.44-2.3,1.56c0,1.41,2.39,2.12,4.6,2.12,4.82,0,8.21-2.65,8.21-6.18,0-2.74-2.44-4.12-7.27-4.12a10.17,10.17,0,0,0-4.62,1,17.24,17.24,0,0,0-4.54,3.62l-2.14-2.41a101.59,101.59,0,0,0,11.77-10.51,51.76,51.76,0,0,1-6,.29c-1,0-2,0-2.94-.06l-.35-3c1.2.12,2.56.15,4,.15a63.35,63.35,0,0,0,8.68-.59l1.21,2.83a88.4,88.4,0,0,1-7.42,6.68,12.15,12.15,0,0,1,3-.44c6.86,0,9.48,3,9.48,6.74C738.71,1024.2,733.67,1027.64,727.75,1027.64Z"/><path class="cls-1" d="M71.59,61.15a31.56,31.56,0,0,1,1.28,8.9q6.54-8,13.63-15.54t14.73-14.63q7.45-6.91,15.18-13.46a170.15,170.15,0,0,1,16.27-12.18A164.3,164.3,0,0,1,149.22,5,47.46,47.46,0,0,1,167.4.06a15.39,15.39,0,0,1,7.91,1.37,8.19,8.19,0,0,1,4.63,6.27,14.54,14.54,0,0,1-.9,8.18,57.2,57.2,0,0,1-3.82,7.63A111.89,111.89,0,0,1,163.49,40q-6.63,7.72-12.45,15.9c-1.58,2.18-3.12,4.34-4.64,6.46s-2.94,4.27-4.27,6.45q8.35-8.53,17.18-16.45T177.4,37q7.64-6,16.09-12.09a61.36,61.36,0,0,1,17.9-9c.85-.24,1.91-.52,3.19-.82a16.15,16.15,0,0,1,3.72-.45,4.76,4.76,0,0,1,3,.91c.79.6,1.06,1.63.82,3.09a10.26,10.26,0,0,1-3.18,5.45q-2.64,2.55-4.46,4.36-5.82,6-12.08,12.18t-12,12.82a107.66,107.66,0,0,0-10.27,14A57.74,57.74,0,0,0,173.4,83a23.67,23.67,0,0,0-.73,3.91,11.42,11.42,0,0,0,.18,3.54,5.35,5.35,0,0,0,1.64,2.82,6.09,6.09,0,0,0,3.82,1.37,34,34,0,0,0,10.09-.82q5.17-1.19,9.91-2.64a99.81,99.81,0,0,0,9.45-3.45q4.73-2,9.27-4l9.09-4a14.45,14.45,0,0,0,1.73-.82,1.46,1.46,0,0,1,1.72.27,1.73,1.73,0,0,1,1,1.82,2,2,0,0,1-1.18,1.82Q225,85,220.67,86.69t-8.55,3.72q-4.73,2-9.54,3.91T193,98.05c-1.7.6-3.54,1.18-5.54,1.73A43.37,43.37,0,0,1,181.4,101a20.68,20.68,0,0,1-6.09-.18A11.36,11.36,0,0,1,170,98.23a9.25,9.25,0,0,1-3-4.36,14,14,0,0,1-.64-5.27,21.59,21.59,0,0,1,1.09-5.46,37.93,37.93,0,0,1,2-4.91,58.49,58.49,0,0,1,6.36-11.81q3.83-5.46,7.82-10.73c.48-.6,1.91-2.27,4.27-5s5.06-5.84,8.09-9.36l9.18-10.63q4.63-5.37,7.55-9a48.79,48.79,0,0,0-5.73,1.81,39.42,39.42,0,0,0-5.36,2.55c-3.16,1.7-6.18,3.49-9.09,5.36s-5.76,3.85-8.55,5.91q-8.35,6.36-16.09,13.27T152.67,65A395.31,395.31,0,0,0,124,97a19.94,19.94,0,0,0-1.82,2.63,7,7,0,0,1-2.36,2.46,2.72,2.72,0,0,1-3,0A3.4,3.4,0,0,1,115,99.32a5.6,5.6,0,0,1,1.82-4.18,27.15,27.15,0,0,0,2.91-3.63l7.45-10.19q6.74-9.07,13.27-18.17L153.58,45q3.82-5.28,7.73-10.46a107.19,107.19,0,0,0,7.18-10.81c.36-.73,1-1.85,1.91-3.37a33.53,33.53,0,0,0,2.36-4.72,15.87,15.87,0,0,0,1.18-4.82,3.65,3.65,0,0,0-1.27-3.45,7.41,7.41,0,0,0-4.36-1.28A23.4,23.4,0,0,0,163,6.7a37.94,37.94,0,0,0-5.27,1.63c-1.7.67-3.1,1.19-4.19,1.55a106.33,106.33,0,0,0-19.08,9.18A150.87,150.87,0,0,0,117,31.51,263.51,263.51,0,0,0,81.23,67.33c-1.7,2.06-3.33,4.09-4.91,6.09s-3.15,4-4.73,6.09a63.43,63.43,0,0,1-6.27,14.18,58.88,58.88,0,0,1-9,11.81,9.84,9.84,0,0,1-3.27,2.28,4.89,4.89,0,0,1-2.82.36,2,2,0,0,1-1.54-1.27c-.25-.67,0-1.67.73-3a74,74,0,0,1,6.81-11.64q3.92-5.45,7.91-10.72A33.13,33.13,0,0,0,66.5,69a6.76,6.76,0,0,0-.45-2.18,13.11,13.11,0,0,1-.64-2.63,12.37,12.37,0,0,1-.09-2.55,3,3,0,0,1,1.18-2.09,2.89,2.89,0,0,1,3-.46A3.58,3.58,0,0,1,71.59,61.15Z"/><path class="cls-1" d="M227,79.33l5.54-2.82c2.24-1.15,4.64-2.28,7.18-3.37s5-2.12,7.37-3.09,4.33-1.75,5.9-2.36q1.28-.54,4.55-1.64t6.91-2a55.31,55.31,0,0,1,6.81-1.27c2.12-.24,3.67-.06,4.64.55,1.45,1.33,1.73,2.54.82,3.63a5.56,5.56,0,0,1-3.37,2l-8.18.91a19.12,19.12,0,0,0-4.27,1.73c-1.15.67-2.45,1.48-3.91,2.45q-.9.74-3.18,3T249.39,82a29.26,29.26,0,0,0-3.46,5.09q-1.27,2.46,0,3.55c.73.6,1.91.72,3.55.36a28,28,0,0,0,5-1.64c1.69-.72,3.27-1.48,4.72-2.27a25.86,25.86,0,0,0,2.91-1.73,39.18,39.18,0,0,0,8.55-6.9A2.4,2.4,0,0,1,274.2,78a3.05,3.05,0,0,1,1.18,3.73,4.9,4.9,0,0,1-1.27,2.18l-1.73,1.73A6.25,6.25,0,0,0,271,87.87c-.48.85-.61,1.48-.36,1.91a1.76,1.76,0,0,0,1.27.82,19.81,19.81,0,0,0,6.36-.37,70.55,70.55,0,0,0,7.91-2,77.39,77.39,0,0,0,8.09-3q4-1.73,6.91-3.18a7.42,7.42,0,0,0,2-1,15.71,15.71,0,0,1,2.64-1.36,7.09,7.09,0,0,1,2.63-.55,1.89,1.89,0,0,1,1.82,1.09,1.49,1.49,0,0,1-.09,2,6.54,6.54,0,0,1-2.27,1.55c-1,.43-1.94.82-2.91,1.18a23.26,23.26,0,0,0-2.18.91q-3.1,1.45-6.19,2.82l-6.36,2.82c-1.45.6-3,1.33-4.72,2.18a40.69,40.69,0,0,1-5.28,2.18,29.63,29.63,0,0,1-5.54,1.27,10.57,10.57,0,0,1-5.18-.54q-3.1-1.27-3.64-3.55a9.46,9.46,0,0,1,.18-4.82l-4.91,2.91c-2.06,1.21-4.21,2.46-6.45,3.73a17.63,17.63,0,0,1-7,2.27,9.53,9.53,0,0,1-5.82-1.45,6,6,0,0,1-2.72-5.09A10.77,10.77,0,0,1,240.66,86a40,40,0,0,1,3.73-5.82,43.14,43.14,0,0,1,5-5.54,25.13,25.13,0,0,1,5.09-3.82,34,34,0,0,0-4.09,1.64q-2.82,1.27-6.37,3.09t-7.45,3.72q-3.91,1.92-7.18,3.55a2.21,2.21,0,0,1-1.82.27,2.45,2.45,0,0,1-1.36-.91,2,2,0,0,1-.36-1.45A1.81,1.81,0,0,1,227,79.33Z"/><path class="cls-1" d="M306.83,79.33a156.92,156.92,0,0,0,19.55-11.64q9.36-6.54,18.08-13.63l3.09-2.73q2.73-5.28,5.73-10.55t6.45-10.18a75.55,75.55,0,0,1,4.82-6.09,18.23,18.23,0,0,1,6.27-4.63,7.82,7.82,0,0,1,2.64-.73,8.72,8.72,0,0,1,2.82.09,4.37,4.37,0,0,1,2.18,1.18,3.26,3.26,0,0,1,.73,2.73,9.13,9.13,0,0,1-1,3.18,16.19,16.19,0,0,1-2,2.91Q375,30.6,373.73,32c-.85.91-1.63,1.72-2.36,2.45q-3.09,3.09-6.27,6.18c-2.12,2.07-4.27,4.12-6.46,6.18q-2,1.83-4,3.73c-1.33,1.27-2.66,2.46-4,3.55l-10.9,21.45L343.37,73a42.93,42.93,0,0,1,3.82-2.36q2.35-1.45,5.36-3.27a45.64,45.64,0,0,1,6.28-3.18,21.64,21.64,0,0,1,6.63-1.64,10,10,0,0,1,6.09,1.36,3.84,3.84,0,0,1,2,2.18,4.93,4.93,0,0,1,0,2.64,8.22,8.22,0,0,1-1.27,2.64,18.89,18.89,0,0,1-2,2.36,31.92,31.92,0,0,1-11.73,6.36,45.84,45.84,0,0,1-13.36,2A25.14,25.14,0,0,0,352.46,88a14.19,14.19,0,0,0,9.09,1.55,57.89,57.89,0,0,0,12.36-3.19A91.35,91.35,0,0,0,385.55,81c.6-.36,1.39-.88,2.36-1.54a2.7,2.7,0,0,1,2.91-.28,2.07,2.07,0,0,1,1,1.73,2,2,0,0,1-1,1.91,6.82,6.82,0,0,1-1.36.82c-.43.18-.88.39-1.37.63-1.69,1-3.39,1.88-5.09,2.73s-3.39,1.64-5.09,2.36q-4,2-8,3.82a28.89,28.89,0,0,1-8,2.37,21,21,0,0,1-8-.46,17.63,17.63,0,0,1-7.82-4.64,32.91,32.91,0,0,1-3.73-4c-1.15-1.46-2.21-2.91-3.18-4.37a46.93,46.93,0,0,0-3.45,3.46q-1.64,1.81-3.09,3.63a11.69,11.69,0,0,1-1.18,1.64c-.43.48-1,1-1.55,1.63a7,7,0,0,1-3,1.91q-1.55.47-2.45-2.63a2.27,2.27,0,0,1,0-2.18c.36-.61.78-1.28,1.27-2l5.82-8.18q2.71-4,5-8t4.63-8L343,60.24q-3.45,2.71-6.91,5.18c-2.3,1.63-4.61,3.3-6.91,5q-4,2.73-7.91,5.18t-8.27,5c-.6.48-1.42,1.09-2.45,1.82a3.57,3.57,0,0,1-3,.72,2,2,0,0,1-.73-3.81Zm38.91-1.64a27.86,27.86,0,0,0,10.81-2.46,26.92,26.92,0,0,0,8.82-6.45,12.87,12.87,0,0,0-3.36.46l-3.18.81a18.22,18.22,0,0,0-4,1.55q-2.37,1.19-4.64,2.45t-4,2.37c-1.15.72-1.85,1.15-2.09,1.27Zm16-39.63c1.46-1.58,3-3.3,4.73-5.18A36,36,0,0,0,370.82,27a28.75,28.75,0,0,0-8.18,7,60,60,0,0,0-6.36,9.54Z"/><path class="cls-1" d="M389.18,79.14c2.18-1.09,4.46-2.3,6.82-3.63a60.5,60.5,0,0,1,7.18-3.46,18.53,18.53,0,0,1,6.73-6.81,27.53,27.53,0,0,1,9.27-3.55,24.22,24.22,0,0,1,5.91,0,7.2,7.2,0,0,1,5.18,2.73,2.85,2.85,0,0,1,.63,3.09,8.48,8.48,0,0,1-2.18,3.09,21.2,21.2,0,0,1-3.45,2.63C424,74,423.06,74.6,422.45,75a25.59,25.59,0,0,1-7.18,3,23.19,23.19,0,0,1-7.91.64h-.72a10.22,10.22,0,0,0,3.27,6.18,15.73,15.73,0,0,0,6,3.18,21.74,21.74,0,0,0,7.18.82,53.26,53.26,0,0,0,6.81-.73,79,79,0,0,0,8.55-2.27,79.53,79.53,0,0,0,8.18-3.18c1.21-.61,2.45-1.18,3.73-1.73a36.47,36.47,0,0,0,3.54-1.73,3.44,3.44,0,0,1,2.64.37c.91.48,1,1.27.27,2.36a4.62,4.62,0,0,1-2.55,2c-1.09.36-2.06.73-2.9,1.09l-9.09,4a154.4,154.4,0,0,1-16.55,5.45,27.08,27.08,0,0,1-7.36.46,21.33,21.33,0,0,1-6.91-1.64,18,18,0,0,1-5.72-3.91,14.33,14.33,0,0,1-3.64-6.54c-.24-1-.45-1.94-.64-2.91a5.81,5.81,0,0,1,.1-2.73,35.85,35.85,0,0,0-3.91,2.09l-3.37,2.09a13.72,13.72,0,0,0-2.36,1.37,2.45,2.45,0,0,1-2.91.09,2.07,2.07,0,0,1-1-2A1.7,1.7,0,0,1,389.18,79.14Zm18.55-5.09a21,21,0,0,0,8.45-2.18,26.45,26.45,0,0,0,7.18-5.09,10.2,10.2,0,0,0-5-.54,14,14,0,0,0-8.27,4.27A11.23,11.23,0,0,0,407.73,74.05Z"/><path class="cls-1" d="M155.09,432.7A81,81,0,0,0,143.54,444a136.09,136.09,0,0,0-9.63,13q-4.46,6.81-8.46,14t-8,13.9q-3.64,6.38-7.46,12.82t-8,12.82q-3.63,5.82-7.81,12.36a49.32,49.32,0,0,1-9.82,11.27l2.36,1.27a34.24,34.24,0,0,0,16.91,3.27A69.58,69.58,0,0,0,121,535.32a119.89,119.89,0,0,0,16.91-7q8.26-4.17,15.36-7.81l15.63-8.37a2.21,2.21,0,0,1,1.91-.18,2.47,2.47,0,0,1,1.18,1,2,2,0,0,1,.19,1.46,2.19,2.19,0,0,1-1.09,1.36,33.34,33.34,0,0,1-4.55,2.54l-4.73,2.19q-4.19,2.36-8.36,4.63t-8.54,4.46l-13.73,7.18a89,89,0,0,1-14.27,5.9,52.39,52.39,0,0,1-9.36,2,32.8,32.8,0,0,1-9.18-.18,33.25,33.25,0,0,1-9.55-3.09q-4.27-2.17-8.45-4.72l-3.64,1.81a59.52,59.52,0,0,1-9.36,2.18,15.87,15.87,0,0,1-9.18-1.27,8.06,8.06,0,0,1-3.36-2.27,10,10,0,0,1-2-3.36,7,7,0,0,1-.27-3.73,6.35,6.35,0,0,1,2.18-3.54,9.68,9.68,0,0,1,5.45-2.73,15.29,15.29,0,0,1,5.91.45,30.13,30.13,0,0,1,6.09,2.46q3.09,1.63,6,3.45A39,39,0,0,0,89,521.23,112.31,112.31,0,0,0,97.46,510q7.26-10.72,13.54-21.9t12.64-22.64q4.17-7.26,8.63-14.27A149.17,149.17,0,0,1,142,437.61q1.81-2.55,4.27-5.82a13.3,13.3,0,0,1,5.55-4.54,2.71,2.71,0,0,1,2.27-.1,3.42,3.42,0,0,1,1.54,1.37,4.11,4.11,0,0,1,.55,2.18A2.29,2.29,0,0,1,155.09,432.7ZM62.37,529.78A6.52,6.52,0,0,0,61,530a5.26,5.26,0,0,0-1.46.54,2.51,2.51,0,0,0-.9.82c-.19.3,0,.7.45,1.18a5.1,5.1,0,0,0,4.36,1.91,33.36,33.36,0,0,0,4.73-.45,22.18,22.18,0,0,1,2.27-.64,9.63,9.63,0,0,0,2.27-.82q-2.53-1.08-5.18-1.91A17.52,17.52,0,0,0,62.37,529.78Z"/><path class="cls-1" d="M187.81,504a71.73,71.73,0,0,1,7.54-2.54c2.61-.73,5.12-1.46,7.55-2.18a22.27,22.27,0,0,1,5.27-2,6.58,6.58,0,0,1,5.27.72,2.72,2.72,0,0,1,1.09,2.91,3.46,3.46,0,0,1,2.55.73,5.74,5.74,0,0,1,1.63,5.63A19.35,19.35,0,0,1,216,513.6a8.54,8.54,0,0,0,2.18,1.82,10.69,10.69,0,0,0,6.36,1.63,28.29,28.29,0,0,0,6.55-1.09,12.14,12.14,0,0,0,2.72-1.09c1.21-.61,2.46-1.18,3.73-1.73a15.63,15.63,0,0,1,3.55-1.09c1.09-.18,1.81.09,2.18.82a2,2,0,0,1-.19,2.45,6.55,6.55,0,0,1-2.45,1.64c-1,.43-2.09.82-3.18,1.18l-2.18.73a40.69,40.69,0,0,1-5.73,1.45,32.43,32.43,0,0,1-5.91.55,19.32,19.32,0,0,1-5.63-.82,11,11,0,0,1-4.73-2.82l-4,4.19a57.16,57.16,0,0,1-4.91,4,31.9,31.9,0,0,1-5.72,3.37,20.42,20.42,0,0,1-6.28,1.72,11.89,11.89,0,0,1-6.18-.9c-2.42-1.09-3.85-2.52-4.27-4.28a9.31,9.31,0,0,1,.46-5.54,23,23,0,0,1,3.09-5.64,39.73,39.73,0,0,1,3.81-4.54l3.46-3.46q-4.18,1.47-8.18,3.28t-8,3.81c-.49.25-1.09.58-1.82,1s-1.45.82-2.18,1.19a11.75,11.75,0,0,1-2.09.81,2.28,2.28,0,0,1-2.82-2.27,2.28,2.28,0,0,1,1.27-1.82Zm6.18,6.37c-.49.48-1.36,1.39-2.64,2.72a31.72,31.72,0,0,0-3.36,4.18,10.26,10.26,0,0,0-1.73,4.09c-.18,1.28.58,2,2.28,2.28a22.36,22.36,0,0,0,9-.37,18.16,18.16,0,0,0,7.72-4.18l2.73-2.73a12.89,12.89,0,0,0,2.18-2.9,15.46,15.46,0,0,1-1-5.09,7.38,7.38,0,0,1,1.36-4.73,27.25,27.25,0,0,0-9.18,2.18A31.23,31.23,0,0,0,194,510.33Z"/><path class="cls-1" d="M240.53,512.14a72.85,72.85,0,0,0,9-4.54q4.26-2.55,8.81-4.73c1.1-.48,2.12-1,3.1-1.45a12.88,12.88,0,0,1,3.09-1.09,43.55,43.55,0,0,1,7.27-2.19,23.46,23.46,0,0,1,7.45-.54,4.07,4.07,0,0,1,2.09,1.36,3.77,3.77,0,0,1,.91,2.09,3,3,0,0,1-.54,2,3,3,0,0,1-2.28,1.09,4.65,4.65,0,0,1-2.45.1c-.91-.19-1.85-.34-2.82-.46a23.12,23.12,0,0,0-5,.18,14.9,14.9,0,0,0-4.82,1.64,10.38,10.38,0,0,0-5.27,5q-1.63,3.36,1.09,7a12.56,12.56,0,0,0,6.73,4.27,24.13,24.13,0,0,0,8.45.54,48.93,48.93,0,0,0,8.82-1.72c2.91-.85,5.45-1.64,7.64-2.37a42.5,42.5,0,0,0,7.63-3.09q3.45-1.82,6-3.09a1.72,1.72,0,0,1,2.45.28,1.93,1.93,0,0,1,.28,2.63,3.9,3.9,0,0,1-2.46,2.18,28.5,28.5,0,0,1-3.36,1.09q-7.45,3.64-15.64,6.73A47,47,0,0,1,270,528.14a17,17,0,0,1-13.09-5.27,13,13,0,0,1-3.18-6.09,11.64,11.64,0,0,1,1-7.55v-.18q-2,1.09-3.91,2.37a28,28,0,0,1-3.91,2.18c-.73.48-1.61,1.09-2.63,1.82a3.58,3.58,0,0,1-3,.72,1.78,1.78,0,0,1-1.91-1.72A1.84,1.84,0,0,1,240.53,512.14Z"/><path class="cls-1" d="M304.7,512.33l5.54-2.82c2.25-1.15,4.64-2.28,7.19-3.37s5-2.12,7.36-3.09,4.33-1.75,5.91-2.36c.84-.36,2.36-.91,4.54-1.64s4.48-1.39,6.91-2a55.1,55.1,0,0,1,6.82-1.27c2.12-.24,3.66-.06,4.63.55q2.19,2,.82,3.63a5.57,5.57,0,0,1-3.36,2l-8.18.91a19,19,0,0,0-4.28,1.73c-1.15.67-2.45,1.48-3.9,2.45q-.92.74-3.19,3T327.06,515a29.17,29.17,0,0,0-3.45,5.09q-1.28,2.46,0,3.55c.72.6,1.91.72,3.54.36a27.77,27.77,0,0,0,5-1.64c1.7-.72,3.27-1.48,4.73-2.27a28,28,0,0,0,2.91-1.73,39.34,39.34,0,0,0,8.54-6.9,2.41,2.41,0,0,1,3.55-.46,3.08,3.08,0,0,1,1.18,3.73,5,5,0,0,1-1.28,2.18l-1.72,1.73a6.26,6.26,0,0,0-1.37,2.27c-.48.85-.6,1.48-.36,1.91a1.78,1.78,0,0,0,1.27.82,19.88,19.88,0,0,0,6.37-.37,70.4,70.4,0,0,0,7.9-2,76.56,76.56,0,0,0,8.09-3q4-1.72,6.91-3.18a7.28,7.28,0,0,0,2-1,15.71,15.71,0,0,1,2.64-1.36,7.13,7.13,0,0,1,2.63-.55,1.89,1.89,0,0,1,1.82,1.09,1.48,1.48,0,0,1-.09,2,6.35,6.35,0,0,1-2.27,1.55c-1,.43-1.94.82-2.91,1.18a23.26,23.26,0,0,0-2.18.91q-3.09,1.46-6.18,2.82L368,524.51c-1.45.6-3,1.33-4.72,2.18a41.14,41.14,0,0,1-5.27,2.18,29.73,29.73,0,0,1-5.55,1.27,10.57,10.57,0,0,1-5.18-.54q-3.09-1.27-3.64-3.55a9.36,9.36,0,0,1,.19-4.82l-4.91,2.91c-2.06,1.21-4.22,2.46-6.46,3.73a17.58,17.58,0,0,1-7,2.27,9.48,9.48,0,0,1-5.81-1.45,6,6,0,0,1-2.73-5.09,10.77,10.77,0,0,1,1.45-4.64,40,40,0,0,1,3.73-5.82,43.89,43.89,0,0,1,5-5.54,25.13,25.13,0,0,1,5.09-3.82,34,34,0,0,0-4.09,1.64q-2.82,1.27-6.36,3.09c-2.37,1.21-4.85,2.45-7.46,3.72l-7.18,3.55a2.19,2.19,0,0,1-1.81.27,2.47,2.47,0,0,1-1.37-.91,2,2,0,0,1-.36-1.45A1.81,1.81,0,0,1,304.7,512.33Z"/><path class="cls-1" d="M384.87,512.14a115.77,115.77,0,0,0,10.91-5.63q5.27-3.09,10.54-6.73A98.26,98.26,0,0,1,412,490q3.09-4.72,6-9.27c2.06-2.78,4.11-5.6,6.18-8.45s4.18-5.66,6.36-8.45q2.73-3.65,5.91-7.37a27.36,27.36,0,0,1,7.36-6.09,15.18,15.18,0,0,1,4.91-1.54c1.94-.3,3.27.57,4,2.63a5.84,5.84,0,0,1,.09,3.91,16.05,16.05,0,0,1-1.91,3.82,41.11,41.11,0,0,1-2.73,3.64c-1,1.15-1.75,2.15-2.36,3a146.34,146.34,0,0,1-16.27,19.36,169.44,169.44,0,0,1-19.36,16.63c-.61,1.46-1.31,3-2.09,4.64A42.09,42.09,0,0,0,406,511.6a30.37,30.37,0,0,0-1.28,5.36,13.64,13.64,0,0,0,.19,5q2-.36,3.63-.54c1-.12,1.88-.22,2.73-.28a5.51,5.51,0,0,0,1.64-.27A83.68,83.68,0,0,0,423.59,518q5.28-1.82,10.36-4a15.54,15.54,0,0,0,3.46-1.45,3.24,3.24,0,0,1,3.45-.18c1.33,1,1.52,1.84.55,2.63a12,12,0,0,1-2.73,1.73l-21.09,7.82q-3.09,1.08-6,2.27a18.68,18.68,0,0,1-6,1.36,5.9,5.9,0,0,1-4.36-.82,6,6,0,0,1-2.27-3.09,10.36,10.36,0,0,1-.46-4.18,23.47,23.47,0,0,1,.73-4.27,64.52,64.52,0,0,1,3.27-8.73A139.12,139.12,0,0,1,386.87,516a2.83,2.83,0,0,1-3-1.18Q382.68,513.24,384.87,512.14Zm36.9-24.9A140.56,140.56,0,0,0,437.41,470a62.38,62.38,0,0,0,6.18-8.73,22.89,22.89,0,0,1,1.09-2.27,23.81,23.81,0,0,0,1.27-2.82,19.86,19.86,0,0,0-4.82,3.45q-2.26,2.19-3.72,3.64a97.41,97.41,0,0,0-7.82,8.82q-3.64,4.63-7.27,9.54-2,2.91-3.82,5.73t-3.45,5.72q1.63-1.26,3.36-2.81Z"/><path class="cls-1" d="M49.51,911.14a38.38,38.38,0,0,0,6.73-6.54A73.53,73.53,0,0,0,62,896.42a96.66,96.66,0,0,0,4.73-8.82q2.09-4.46,3.73-8.63a51.07,51.07,0,0,0,3.09-9.46,33.86,33.86,0,0,0,.72-9.81q-.36-5.28-3.72-6.55a14.88,14.88,0,0,0-8.09-.36,31.22,31.22,0,0,0-9.37,3.36,49.85,49.85,0,0,0-8.45,5.91,85.9,85.9,0,0,0-7.54,7.36Q33.5,873.34,30.6,877a160.76,160.76,0,0,0-11.9,17,106.71,106.71,0,0,0-9,18.63,60.19,60.19,0,0,0-2.82,8.18,42.28,42.28,0,0,0-1.55,9.82,20.3,20.3,0,0,0,1.55,8.9A9.72,9.72,0,0,0,13.51,945a28.34,28.34,0,0,0,10.09,1.09,58.53,58.53,0,0,0,10.46-1.73A91.3,91.3,0,0,0,44.42,941q5.09-2,9.45-3.82,4.73-2,9.36-4.27c3.1-1.52,6.21-3.06,9.37-4.64l9.45-4.54,2.27-1.37,2.91-1.72a19.59,19.59,0,0,1,3-1.46,7.49,7.49,0,0,1,2.55-.54,1.9,1.9,0,0,1,1.81,1.91,1.93,1.93,0,0,1-1.27,2.27,8.28,8.28,0,0,1-3.82,2.09,22.55,22.55,0,0,0-4.18,1.55Q80.24,929,75.23,931.6T65,936.78q-8.35,4.17-17,8.36a78.33,78.33,0,0,1-18.08,6.18,41.65,41.65,0,0,1-8.91.91A29.8,29.8,0,0,1,12.15,951a19.13,19.13,0,0,1-7.27-4.18,14.62,14.62,0,0,1-4.27-8,30.15,30.15,0,0,1-.46-9.09A49.78,49.78,0,0,1,2,920.33a75.23,75.23,0,0,1,3.27-9q1.92-4.37,3.91-8.18a159.79,159.79,0,0,1,22.36-34l6-6.73A66.33,66.33,0,0,1,44.15,856a56.81,56.81,0,0,1,7.45-5.36,29.81,29.81,0,0,1,8.27-3.46A25.27,25.27,0,0,1,68.32,846a11.83,11.83,0,0,1,7.91,3,11.1,11.1,0,0,1,3.82,7,26.1,26.1,0,0,1-.18,8.09,70.12,70.12,0,0,1-6,18.72q-4.37,9.11-9.09,17.46-2.55,4.18-5.09,8.27a54.78,54.78,0,0,1-5.82,7.72,3.81,3.81,0,0,1-2.82.64,3.86,3.86,0,0,1-2.18-1.18,3.18,3.18,0,0,1-.82-2.18A3,3,0,0,1,49.51,911.14Z"/><path class="cls-1" d="M90.05,919.14a73.92,73.92,0,0,0,9.27-3.54q4.55-2.08,9.09-4.09a33.9,33.9,0,0,0,3.36-2.09,53.16,53.16,0,0,1,4.64-2.82,17.37,17.37,0,0,1,4.45-1.73,2.8,2.8,0,0,1,3.19,1.18,2.84,2.84,0,0,1,.27,2.82,11,11,0,0,1-1.91,2.73,26.23,26.23,0,0,1-2.73,2.54c-1,.79-1.7,1.43-2.18,1.91a63.45,63.45,0,0,0-5.27,6,11.08,11.08,0,0,0-2.55,6.91,16.71,16.71,0,0,0,6.91-1.64c2.42-1.09,4.55-2,6.36-2.72a182.09,182.09,0,0,0,17.27-9.09q4.72-2.91,8.55-5.82a2.85,2.85,0,0,1,3.36,0A3,3,0,0,1,153.5,913a8.17,8.17,0,0,1-1.55,3.18,25.31,25.31,0,0,0-2.09,3.19,18.31,18.31,0,0,0-1.73,4,7,7,0,0,0-.09,4.55,6.35,6.35,0,0,0,4.91.27c1.94-.54,3.51-1,4.73-1.36a115.09,115.09,0,0,0,14.54-6.18c.85-.37,1.91-.88,3.18-1.55a1.82,1.82,0,0,1,2.82.82c.6,1.09.51,1.91-.27,2.45a14.21,14.21,0,0,1-2.46,1.37l-12,5.63q-3.81,1.63-8.36,3.73a13.56,13.56,0,0,1-9.09,1c-2.18-.6-3.42-1.85-3.72-3.73a10.53,10.53,0,0,1,.45-5.36l2.73-6.54q-4.74,2.18-9.18,4.54c-3,1.58-6,3-9.18,4.36-1.34.73-2.91,1.61-4.73,2.64s-3.73,2-5.73,2.91a29.23,29.23,0,0,1-5.91,2,8.46,8.46,0,0,1-5.09-.27,3,3,0,0,1-2.27-2.82,11.81,11.81,0,0,1,1-4.82,35,35,0,0,1,3.09-5.82c1.33-2.06,2.73-4.06,4.18-6l-4.36,2q-7.45,2.73-10.73,4.18a25.7,25.7,0,0,1-5.09,1.82,1.67,1.67,0,0,1-1.72-.18,3,3,0,0,1-.91-1.27,2,2,0,0,1,0-1.46A1.94,1.94,0,0,1,90.05,919.14Z"/><path class="cls-1" d="M175.49,919.14a114.56,114.56,0,0,0,10.91-5.63q5.26-3.09,10.54-6.73a98.26,98.26,0,0,1,5.64-9.82q3.09-4.73,6-9.27c2.06-2.78,4.11-5.6,6.18-8.45s4.18-5.66,6.36-8.45q2.73-3.64,5.91-7.37a27.36,27.36,0,0,1,7.36-6.09,15.18,15.18,0,0,1,4.91-1.54c1.94-.3,3.27.57,4,2.63a5.84,5.84,0,0,1,.09,3.91,16.05,16.05,0,0,1-1.91,3.82,41.11,41.11,0,0,1-2.73,3.64c-1,1.15-1.75,2.15-2.36,3a146.34,146.34,0,0,1-16.27,19.36,169.44,169.44,0,0,1-19.36,16.63c-.61,1.46-1.3,3-2.09,4.64a42.09,42.09,0,0,0-2.09,5.18,29.46,29.46,0,0,0-1.27,5.36,13.43,13.43,0,0,0,.18,5q2-.36,3.63-.54c1-.12,1.88-.22,2.73-.28a5.51,5.51,0,0,0,1.64-.27A83.24,83.24,0,0,0,214.21,925q5.28-1.82,10.36-4a15.54,15.54,0,0,0,3.46-1.45,3.24,3.24,0,0,1,3.45-.18c1.33,1,1.52,1.84.55,2.63a12,12,0,0,1-2.73,1.73l-21.09,7.82q-3.09,1.08-6,2.27a18.68,18.68,0,0,1-6,1.36,5.9,5.9,0,0,1-4.36-.82,6,6,0,0,1-2.27-3.09,10.36,10.36,0,0,1-.46-4.18,23.47,23.47,0,0,1,.73-4.27,64.52,64.52,0,0,1,3.27-8.73A139.12,139.12,0,0,1,177.49,923a2.83,2.83,0,0,1-3-1.18C173.7,920.75,174,919.87,175.49,919.14Zm36.9-24.9A140.56,140.56,0,0,0,228,877a62.38,62.38,0,0,0,6.18-8.73A22.89,22.89,0,0,1,235.3,866a23.81,23.81,0,0,0,1.27-2.82,19.86,19.86,0,0,0-4.82,3.45q-2.26,2.19-3.72,3.64a97.41,97.41,0,0,0-7.82,8.82q-3.63,4.63-7.27,9.54-2,2.91-3.82,5.73t-3.45,5.72q1.64-1.26,3.36-2.81Z"/><path class="cls-1" d="M245.12,896.78c2.18.12,4.36.16,6.54.09s4.36-.21,6.54-.45q5.1-7.81,11-16.27a65.29,65.29,0,0,1,13.37-14.27c1-.61,2-1.21,3-1.82a7.88,7.88,0,0,1,3.19-1.09,3,3,0,0,1,2.72,1.45,3.49,3.49,0,0,1,.37,3.09,16.22,16.22,0,0,1-4,7c-2.07,2.25-3.82,4.28-5.27,6.09q-2.73,3.64-5.73,7.09t-6.09,6.73l10.72-2.55,18-5.45a13.46,13.46,0,0,1,2.64-.82,2.42,2.42,0,0,1,2.45,1.18,3.07,3.07,0,0,1,.55,3,3.28,3.28,0,0,1-2,2.09,115.35,115.35,0,0,1-17.45,4.55q-9.11,1.64-17.82,2.73l-2.55.54c-1.45,1.34-3,2.67-4.54,4s-3.21,2.67-4.91,4a24.82,24.82,0,0,0-2.18,3.73c-.61,1.27-1.21,2.57-1.82,3.91a14.46,14.46,0,0,0-1.09,2.72c-.48,1.46-.94,2.94-1.36,4.46s-.76,2.91-1,4.18-.18,1.91.18,1.91a15.66,15.66,0,0,0,8.27-.46c3-.91,5.55-1.66,7.73-2.27l8.36-2.91c2.79-1,5.57-2.06,8.36-3.27a14.49,14.49,0,0,1,2.82-.55c1.15-.12,1.66.61,1.55,2.18-.13,1.1-.89,1.85-2.28,2.28a34.15,34.15,0,0,0-3.36,1.18l-12.91,4.73L261,932.05a57.47,57.47,0,0,1-7.81,2.64,15.14,15.14,0,0,1-7.09.27q-3.19-.72-3.91-4.91a16,16,0,0,1,1.54-8.27c1.27-2.73,2.76-5.66,4.46-8.82a138.43,138.43,0,0,1-17.46,10,2,2,0,0,1-1.81.18,2.37,2.37,0,0,1-1.1-1.09,2,2,0,0,1-.09-1.54,2.6,2.6,0,0,1,1.19-1.37,136.55,136.55,0,0,0,12.27-6.36,127.17,127.17,0,0,0,11.54-7.64l2.55-4.36c-1.82.12-3.82.37-6,.73A8.15,8.15,0,0,1,244,901a2.08,2.08,0,0,1-1-2.54A2,2,0,0,1,245.12,896.78ZM278,879.51a28.78,28.78,0,0,0,1.73-2.72c.54-1,1.12-1.94,1.72-2.91q-1.82,1.82-3.36,3.63c-1,1.22-1.91,2.18-2.64,2.91q-3.27,3.65-6.36,7.36a67,67,0,0,0-5.63,7.91A107.71,107.71,0,0,0,278,879.51Z"/><path class="cls-1" d="M283.11,919.14a73.92,73.92,0,0,0,9.27-3.54q4.55-2.08,9.09-4.09a33.9,33.9,0,0,0,3.36-2.09,53.16,53.16,0,0,1,4.64-2.82,17.37,17.37,0,0,1,4.45-1.73,2.78,2.78,0,0,1,3.18,1.18,2.82,2.82,0,0,1,.28,2.82,11,11,0,0,1-1.91,2.73,26.23,26.23,0,0,1-2.73,2.54c-1,.79-1.7,1.43-2.18,1.91a63.45,63.45,0,0,0-5.27,6,11.08,11.08,0,0,0-2.55,6.91,16.75,16.75,0,0,0,6.91-1.64q3.63-1.64,6.36-2.72a182.09,182.09,0,0,0,17.27-9.09q4.73-2.91,8.55-5.82a2.85,2.85,0,0,1,3.36,0,3,3,0,0,1,1.36,3.27,8,8,0,0,1-1.54,3.18,25.31,25.31,0,0,0-2.09,3.19,18.31,18.31,0,0,0-1.73,4,6.92,6.92,0,0,0-.09,4.55,6.35,6.35,0,0,0,4.91.27c1.94-.54,3.51-1,4.73-1.36a115.72,115.72,0,0,0,14.54-6.18c.85-.37,1.91-.88,3.18-1.55a1.82,1.82,0,0,1,2.82.82c.6,1.09.51,1.91-.27,2.45a14.21,14.21,0,0,1-2.46,1.37l-12,5.63q-3.81,1.63-8.36,3.73a13.56,13.56,0,0,1-9.09,1c-2.18-.6-3.43-1.85-3.73-3.73a10.64,10.64,0,0,1,.46-5.36l2.73-6.54q-4.74,2.18-9.19,4.54t-9.18,4.36q-2,1.09-4.72,2.64t-5.73,2.91a29.23,29.23,0,0,1-5.91,2,8.46,8.46,0,0,1-5.09-.27,3,3,0,0,1-2.27-2.82,11.81,11.81,0,0,1,1-4.82,35,35,0,0,1,3.09-5.82c1.33-2.06,2.73-4.06,4.18-6l-4.36,2q-7.45,2.73-10.73,4.18a25.7,25.7,0,0,1-5.09,1.82,1.67,1.67,0,0,1-1.72-.18,3,3,0,0,1-.91-1.27,1.91,1.91,0,0,1,1.18-2.55Z"/><path class="cls-1" d="M368.55,919.14c2.54-1.33,5.06-2.66,7.54-4s5.18-2.84,8.09-4.54a8.85,8.85,0,0,1,2.09-6.55,7.22,7.22,0,0,1,6.28-2.9,3.69,3.69,0,0,1,3.27,2.54,4.41,4.41,0,0,1-.73,4.18,12.11,12.11,0,0,1-3.82,3.64,6.19,6.19,0,0,0,3.09.73,16.74,16.74,0,0,0,8-1.37,52.9,52.9,0,0,0,7.46-3.73q3.27-1.08,4.18.73c.6,1.22.36,2.67-.73,4.37-.61,1-1.3,2.21-2.09,3.72a33.64,33.64,0,0,0-2,4.64,15.71,15.71,0,0,0-.91,4.54,4.11,4.11,0,0,0,1.36,3.46c.61.72,2.21.72,4.82,0s6.09-1.94,10.45-3.64c1.46-.6,2.94-1.3,4.46-2.09s3.06-1.55,4.63-2.27a9.32,9.32,0,0,0,1.64-.82,8.85,8.85,0,0,1,2.09-.91,3.13,3.13,0,0,1,1.82,0c.54.18.82.82.82,1.91a2.18,2.18,0,0,1-.82,1.64,10.36,10.36,0,0,1-1.82,1.27,13,13,0,0,1-2.09.91l-1.64.54-7.63,3.46-5,2.72a42.12,42.12,0,0,1-6.09,2.73,17.9,17.9,0,0,1-6,1.09,5.22,5.22,0,0,1-4.54-2.36,6,6,0,0,1-1.1-2.82,10.34,10.34,0,0,1,.1-3.09,28.73,28.73,0,0,1,.72-3.09c.3-1,.58-2,.82-3l1.46-6c-.61.12-1.85.43-3.73.91a35.85,35.85,0,0,1-6.09,1,31.09,31.09,0,0,1-6.27-.09,6.1,6.1,0,0,1-4.46-2.37c-2.06,1.1-3.76,2-5.09,2.73s-2.7,1.52-4.09,2.37-2.52,1.51-3.36,2a10.82,10.82,0,0,0-2.55,1.37,2.12,2.12,0,0,1-2.54.27,2.27,2.27,0,0,1-1.09-2A1.88,1.88,0,0,1,368.55,919.14Z"/><path class="cls-1" d="M437.63,919.14q3.27-1.64,6.82-3.63a59.76,59.76,0,0,1,7.18-3.46,18.5,18.5,0,0,1,6.72-6.81,27.53,27.53,0,0,1,9.27-3.55,24.23,24.23,0,0,1,5.91,0,7.2,7.2,0,0,1,5.18,2.73,2.85,2.85,0,0,1,.64,3.09,8.61,8.61,0,0,1-2.18,3.09,20.86,20.86,0,0,1-3.46,2.63L470.9,915a25.84,25.84,0,0,1-7.18,3,23.21,23.21,0,0,1-7.91.64h-.73a10.22,10.22,0,0,0,3.27,6.18,15.88,15.88,0,0,0,6,3.18,21.77,21.77,0,0,0,7.18.82,53.23,53.23,0,0,0,6.82-.73,78.83,78.83,0,0,0,8.54-2.27,79.7,79.7,0,0,0,8.19-3.18c1.21-.61,2.45-1.18,3.72-1.73a36.67,36.67,0,0,0,3.55-1.73,3.42,3.42,0,0,1,2.63.37c.91.48,1,1.27.27,2.36a4.6,4.6,0,0,1-2.54,2c-1.09.36-2.06.73-2.91,1.09l-9.09,4a154.24,154.24,0,0,1-16.54,5.45,27.11,27.11,0,0,1-7.36.46,21.27,21.27,0,0,1-6.91-1.64,18.2,18.2,0,0,1-5.73-3.91,14.23,14.23,0,0,1-3.63-6.54c-.25-1-.46-1.94-.64-2.91a5.94,5.94,0,0,1,.09-2.73,36.8,36.8,0,0,0-3.91,2.09l-3.36,2.09a13,13,0,0,0-2.36,1.37,2.45,2.45,0,0,1-2.91.09,2.07,2.07,0,0,1-1-2A1.69,1.69,0,0,1,437.63,919.14Zm18.54-5.09a20.89,20.89,0,0,0,8.45-2.18,26.65,26.65,0,0,0,7.19-5.09,10.22,10.22,0,0,0-5-.54,14.1,14.1,0,0,0-4.55,1.45,14.39,14.39,0,0,0-3.73,2.82A11.23,11.23,0,0,0,456.17,914.05Z"/></svg>