<svg id="レイヤー_1" data-name="レイヤー 1" xmlns="http://www.w3.org/2000/svg" viewBox="0 0 627.71 131.89"><defs><style>.cls-1{fill:#fff;}</style></defs><title>アートボード 1</title><path class="cls-1" d="M626.77,91.28a4.28,4.28,0,0,0-3.27-.45A48.79,48.79,0,0,1,619.1,93q-2.37,1-4.62,2.14a97.9,97.9,0,0,1-10.16,4,98.9,98.9,0,0,1-10.6,2.82,66.28,66.28,0,0,1-8.46.91,27.06,27.06,0,0,1-8.92-1,19.44,19.44,0,0,1-7.44-4,12.65,12.65,0,0,1-4.06-7.67h.9a28.73,28.73,0,0,0,9.81-.79,32.27,32.27,0,0,0,8.92-3.72c.75-.45,1.91-1.17,3.49-2.15a26.09,26.09,0,0,0,4.29-3.27A10.6,10.6,0,0,0,595,76.39a3.56,3.56,0,0,0-.79-3.84,9,9,0,0,0-6.43-3.38,29.9,29.9,0,0,0-7.34,0,34.05,34.05,0,0,0-11.5,4.4A23,23,0,0,0,560.55,82a74.05,74.05,0,0,0-8.91,4.28c-2.6,1.47-5.1,2.81-7.52,4a5.2,5.2,0,0,0-.83.15,10.63,10.63,0,0,0-2.6,1.13,11.5,11.5,0,0,1-2,1c-1.95.9-3.87,1.85-5.75,2.82s-3.72,1.85-5.53,2.6q-8.11,3.17-13,4.51t-6,0a5.06,5.06,0,0,1-1.69-4.29,19.85,19.85,0,0,1,1.12-5.64,43.23,43.23,0,0,1,2.49-5.75c1-1.88,1.84-3.42,2.59-4.63,1.35-2.1,1.65-3.91.9-5.41s-2.48-1.81-5.19-.91a65.33,65.33,0,0,1-9.25,4.63,20.57,20.57,0,0,1-9.92,1.69,7.63,7.63,0,0,1-3.84-.9,15.28,15.28,0,0,0,4.74-4.51,5.48,5.48,0,0,0,.9-5.19,4.57,4.57,0,0,0-4.06-3.16,8.92,8.92,0,0,0-7.79,3.61,10.91,10.91,0,0,0-2.59,8.12q-5.41,3.16-10,5.64-4.16,2.23-8.41,4.47a4.07,4.07,0,0,0-1.07.38c-1.57.83-2.89,1.47-3.94,1.92a141.07,141.07,0,0,1-18.05,7.67q-2.26.67-5.87,1.7a8,8,0,0,1-6.09-.34,8.49,8.49,0,0,1,.11-5.64,23,23,0,0,1,2.14-5,32.36,32.36,0,0,1,2.6-4,10.13,10.13,0,0,0,1.91-3.94,3.69,3.69,0,0,0-1.69-4.07,3.56,3.56,0,0,0-4.17,0,127.53,127.53,0,0,1-10.61,7.22A223.65,223.65,0,0,1,392.23,97.6q-3.39,1.35-7.9,3.38a20.83,20.83,0,0,1-8.57,2,13.72,13.72,0,0,1,3.16-8.57A78.59,78.59,0,0,1,385.46,87c.6-.6,1.5-1.39,2.71-2.37a33.7,33.7,0,0,0,3.38-3.16,13.38,13.38,0,0,0,2.37-3.38,3.65,3.65,0,0,0-4.29-5,21.72,21.72,0,0,0-5.53,2.15,64.9,64.9,0,0,0-5.75,3.5,41.15,41.15,0,0,1-4.17,2.59q-5.64,2.49-11.29,5.08a92.22,92.22,0,0,1-11.5,4.4,2.91,2.91,0,0,0-.5.25,13.88,13.88,0,0,0-1.76.42q-5.19,2.27-10.38,4.07l-10.38,3.61q-4,1.13-9.58,2.82a19.49,19.49,0,0,1-10.27.56c-.45,0-.53-.79-.23-2.37s.72-3.31,1.24-5.19,1.09-3.72,1.7-5.53a18.35,18.35,0,0,1,1.35-3.38q1.13-2.48,2.26-4.85a32.57,32.57,0,0,1,2.7-4.63c2.11-1.65,4.14-3.31,6.1-5s3.83-3.31,5.64-5l3.16-.67q10.83-1.37,22.11-3.39A142.08,142.08,0,0,0,376.21,57a4,4,0,0,0,2.48-2.59,3.82,3.82,0,0,0-.67-3.73,3,3,0,0,0-3-1.46,16.09,16.09,0,0,0-3.27,1L349.36,57l-13.31,3.16q3.82-4.06,7.56-8.35t7.1-8.8q2.71-3.37,6.55-7.56a20.13,20.13,0,0,0,5-8.68,4.35,4.35,0,0,0-.45-3.84,3.75,3.75,0,0,0-3.39-1.81,10,10,0,0,0-3.94,1.36q-1.92,1.13-3.73,2.26a80.87,80.87,0,0,0-16.58,17.71q-7.33,10.49-13.65,20.19c-2.71.31-5.42.49-8.13.57s-5.41,0-8.12-.12a2.48,2.48,0,0,0-2.59,2,2.57,2.57,0,0,0,1.24,3.16,10,10,0,0,0,6.54.68q4.06-.68,7.45-.9l-3.16,5.41a156.28,156.28,0,0,1-14.33,9.48q-7.22,4.21-15,7.78a7,7,0,0,0-1.37.57,18.84,18.84,0,0,1-4.28,1.8q-6.33,2.72-12.86,5a104.41,104.41,0,0,1-13.32,3.61,6.85,6.85,0,0,1-2,.34c-1.05.07-2.18.19-3.38.34-1.36.15-2.86.37-4.52.67a17.06,17.06,0,0,1-.22-6.2A36.46,36.46,0,0,1,244,90.15a53.57,53.57,0,0,1,2.59-6.43c1-2,1.84-4,2.6-5.75a211.15,211.15,0,0,0,24-20.65,182,182,0,0,0,20.19-24q1.13-1.57,2.94-3.72a50.61,50.61,0,0,0,3.38-4.52,20,20,0,0,0,2.37-4.74,7.17,7.17,0,0,0-.11-4.85c-.91-2.55-2.56-3.64-5-3.27a18.89,18.89,0,0,0-6.09,1.92,34,34,0,0,0-9.14,7.56q-3.94,4.62-7.33,9.14-4.06,5.19-7.9,10.49t-7.67,10.49q-3.61,5.64-7.45,11.51a120,120,0,0,0-7,12.18q-6.56,4.51-13.09,8.35a137.75,137.75,0,0,1-12.42,6.47,3.78,3.78,0,0,0-1.23.41c-1.58.83-2.89,1.47-3.94,1.92a140.62,140.62,0,0,1-18.06,7.67c-1.5.45-3.46,1-5.86,1.7a8,8,0,0,1-6.09-.34,8.49,8.49,0,0,1,.11-5.64,23,23,0,0,1,2.14-5,32.36,32.36,0,0,1,2.6-4,10.13,10.13,0,0,0,1.91-3.94,3.69,3.69,0,0,0-1.69-4.07,3.56,3.56,0,0,0-4.17,0A127.53,127.53,0,0,1,174,86.31,223.65,223.65,0,0,1,152.61,97.6q-3.39,1.35-7.9,3.38a20.83,20.83,0,0,1-8.57,2,13.72,13.72,0,0,1,3.16-8.57A78.59,78.59,0,0,1,145.84,87c.6-.6,1.5-1.39,2.71-2.37a33.7,33.7,0,0,0,3.38-3.16,13.38,13.38,0,0,0,2.37-3.38,3.65,3.65,0,0,0-4.29-5,21.72,21.72,0,0,0-5.53,2.15,64.9,64.9,0,0,0-5.75,3.5,41.15,41.15,0,0,1-4.17,2.59q-5.64,2.49-11.29,5.08a92.22,92.22,0,0,1-11.5,4.4,3.22,3.22,0,0,0-.64.35,24.07,24.07,0,0,0-2.86,1.45l-3.61,2.15-2.82,1.69-11.73,5.64q-5.88,2.94-11.62,5.75c-3.84,1.89-7.71,3.65-11.63,5.31q-5.41,2.25-11.73,4.73a110.84,110.84,0,0,1-12.86,4.18,71.61,71.61,0,0,1-13,2.14,35.21,35.21,0,0,1-12.53-1.35q-6.09-1.82-8.23-6.77A25.22,25.22,0,0,1,6.62,105,52.53,52.53,0,0,1,8.54,92.86,75.72,75.72,0,0,1,12,82.7,134.34,134.34,0,0,1,23.2,59.58,201.58,201.58,0,0,1,38,38.48Q41.6,34,46,29.12A107.78,107.78,0,0,1,55.36,20a60.63,60.63,0,0,1,10.49-7.34A38.36,38.36,0,0,1,77.47,8.47a18.45,18.45,0,0,1,10,.45Q91.68,10.5,92.14,17a41.5,41.5,0,0,1-.91,12.19A63.11,63.11,0,0,1,87.4,41q-2,5.19-4.63,10.72a118.25,118.25,0,0,1-5.86,10.94A92.79,92.79,0,0,1,69.8,72.78a47.67,47.67,0,0,1-8.35,8.12,3.74,3.74,0,0,0-1.81,2.93,3.89,3.89,0,0,0,1,2.71A4.84,4.84,0,0,0,63.37,88a4.75,4.75,0,0,0,3.49-.79,68.64,68.64,0,0,0,7.23-9.59q3.15-5.09,6.31-10.27Q86.27,57,91.69,45.7a87.11,87.11,0,0,0,7.44-23.24,32.17,32.17,0,0,0,.23-10,13.77,13.77,0,0,0-4.74-8.69A14.73,14.73,0,0,0,84.8,0,31,31,0,0,0,74.31,1.47,37.67,37.67,0,0,0,64,5.76a73.33,73.33,0,0,0-9.25,6.66,81.92,81.92,0,0,0-8.23,8l-7.45,8.35A198.6,198.6,0,0,0,11.36,71Q8.87,75.71,6.51,81.13A92.11,92.11,0,0,0,2.45,92.29,61.65,61.65,0,0,0,.19,103.91,37.44,37.44,0,0,0,.75,115.2a18.14,18.14,0,0,0,5.31,9.92,23.54,23.54,0,0,0,9,5.19A36.76,36.76,0,0,0,26,131.89a51.5,51.5,0,0,0,11.06-1.13,97.44,97.44,0,0,0,22.45-7.67q10.71-5.19,21.1-10.38,6.54-3.15,12.75-6.43t12.52-6.43a27.9,27.9,0,0,1,5.19-1.92,10.29,10.29,0,0,0,4.74-2.59,2.84,2.84,0,0,0,.82-.47c1-.36,2-.8,3.24-1.34q4.06-1.8,13.31-5.18l5.42-2.49q-2.72,3.61-5.19,7.45a42.72,42.72,0,0,0-3.84,7.22,14.64,14.64,0,0,0-1.24,6,3.67,3.67,0,0,0,2.82,3.5,10.4,10.4,0,0,0,6.32.33,36.23,36.23,0,0,0,7.33-2.48c2.49-1.12,4.85-2.33,7.11-3.61s4.21-2.37,5.87-3.27q5.87-2.48,11.39-5.41c3.69-2,7.48-3.84,11.4-5.65l-3.39,8.13a13.18,13.18,0,0,0-.56,6.65c.37,2.34,1.92,3.88,4.62,4.63a16.94,16.94,0,0,0,11.29-1.24c3.75-1.73,7.22-3.27,10.38-4.63l14.89-7a15.91,15.91,0,0,0,1.65-.83,4.81,4.81,0,0,0,.83-.07,175.39,175.39,0,0,0,19.4-11.06,78.16,78.16,0,0,0-4.06,10.83,29,29,0,0,0-.9,5.3,12.92,12.92,0,0,0,.56,5.19,7.64,7.64,0,0,0,2.82,3.84,7.38,7.38,0,0,0,5.42,1A23.19,23.19,0,0,0,251,109q3.61-1.47,7.45-2.82l26.17-9.7a12.75,12.75,0,0,0,1.4-.74c.13,0,.26-.09.41-.16a172,172,0,0,0,21.66-12.41Q304.9,89,302.54,94.1a19.88,19.88,0,0,0-1.92,10.27q.9,5.19,4.85,6.09a18.73,18.73,0,0,0,8.8-.34,70.51,70.51,0,0,0,9.7-3.27l7.56-3.16,16-5.87a43.06,43.06,0,0,1,4.18-1.47,5.91,5.91,0,0,0,1.19-.49l.27-.07a32.63,32.63,0,0,0,6.32-2.26q4.07-1.8,13.31-5.18l5.42-2.49q-2.72,3.61-5.19,7.45a42.72,42.72,0,0,0-3.84,7.22,14.64,14.64,0,0,0-1.24,6,3.67,3.67,0,0,0,2.82,3.5,10.4,10.4,0,0,0,6.32.33,36.23,36.23,0,0,0,7.33-2.48c2.49-1.12,4.85-2.33,7.11-3.61s4.21-2.37,5.87-3.27q5.86-2.48,11.39-5.41c3.69-2,7.48-3.84,11.4-5.65l-3.39,8.13a13.18,13.18,0,0,0-.56,6.65c.37,2.34,1.92,3.88,4.62,4.63a16.94,16.94,0,0,0,11.29-1.24c3.75-1.73,7.22-3.27,10.38-4.63l14.89-7c.36-.16.71-.35,1.07-.53a3.34,3.34,0,0,0,2.08-.71,13.69,13.69,0,0,1,3.16-1.7c1.05-.59,2.45-1.42,4.18-2.48s3.42-2,5.07-2.93,3.76-2,6.32-3.39a7.57,7.57,0,0,0,5.53,2.94,37.94,37.94,0,0,0,7.78.11,44.86,44.86,0,0,0,7.56-1.24c2.33-.6,3.87-1,4.63-1.13L503,92.86c-.3,1.2-.64,2.45-1,3.72a33.31,33.31,0,0,0-.9,3.84,13,13,0,0,0-.12,3.83,7.33,7.33,0,0,0,1.36,3.5,6.46,6.46,0,0,0,5.64,2.93,22.38,22.38,0,0,0,7.44-1.35,50.65,50.65,0,0,0,7.56-3.39l6.21-3.38,9.47-4.29c.46-.14,1.13-.37,2-.67a15.84,15.84,0,0,0,2.6-1.13c.35-.19.67-.4,1-.62a3.15,3.15,0,0,0,2.27-.62,16.77,16.77,0,0,1,2.93-1.7l4.18-2.59a41.93,41.93,0,0,1,4.85-2.59,7.1,7.1,0,0,0-.11,3.38c.22,1.21.48,2.41.78,3.61a17.87,17.87,0,0,0,4.52,8.12,22.28,22.28,0,0,0,7.1,4.85,26.31,26.31,0,0,0,8.58,2,33.72,33.72,0,0,0,9.14-.56A190.72,190.72,0,0,0,609.06,103l11.28-5c1-.45,2.26-.9,3.61-1.36a5.7,5.7,0,0,0,3.16-2.48C628,92.86,627.9,91.88,626.77,91.28ZM569.12,80.11a17.51,17.51,0,0,1,4.63-3.5,17.75,17.75,0,0,1,5.64-1.8,12.7,12.7,0,0,1,6.2.67,32.76,32.76,0,0,1-8.91,6.32,26,26,0,0,1-10.49,2.71A14.14,14.14,0,0,1,569.12,80.11ZM334,51.9c2.55-3.08,5.19-6.12,7.89-9.13q1.36-1.37,3.28-3.61c1.27-1.51,2.66-3,4.17-4.52-.76,1.21-1.47,2.41-2.14,3.61a37.11,37.11,0,0,1-2.15,3.39A134,134,0,0,1,327,61.72,83.52,83.52,0,0,1,334,51.9ZM259.56,60q2.25-3.49,4.74-7.11,4.5-6.09,9-11.85A122.51,122.51,0,0,1,283,30.13c1.21-1.2,2.75-2.71,4.63-4.51a24.15,24.15,0,0,1,6-4.29,29,29,0,0,1-1.58,3.5,30.22,30.22,0,0,0-1.35,2.82A76.84,76.84,0,0,1,283,38.48a173.47,173.47,0,0,1-19.4,21.43l-4.18,3.73c-1.43,1.28-2.82,2.44-4.17,3.5Q257.3,63.53,259.56,60Z"/></svg>