<svg id="レイヤー_1" data-name="レイヤー 1" xmlns="http://www.w3.org/2000/svg" viewBox="0 0 507.27 134.32"><defs><style>.cls-1{fill:#fff;}</style></defs><title>アートボード 1</title><path class="cls-1" d="M506.33,98.68a4.3,4.3,0,0,0-3.28-.45,44,44,0,0,1-4.4,2.14c-1.57.68-3.12,1.4-4.62,2.15a100,100,0,0,1-10.15,4,102.16,102.16,0,0,1-10.61,2.82,68.23,68.23,0,0,1-8.46.9,27,27,0,0,1-8.91-1,19.6,19.6,0,0,1-7.45-3.94,12.7,12.7,0,0,1-4.06-7.68h.9a28.54,28.54,0,0,0,9.82-.79A32,32,0,0,0,464,93c.75-.45,1.92-1.16,3.5-2.14a27.15,27.15,0,0,0,4.28-3.27,10.72,10.72,0,0,0,2.71-3.84,3.54,3.54,0,0,0-.79-3.84,8.93,8.93,0,0,0-6.43-3.38,29.82,29.82,0,0,0-7.33,0A34.1,34.1,0,0,0,448.45,81a23,23,0,0,0-8.35,8.46,74.13,74.13,0,0,0-8.91,4.29c-2.68,1.51-5.25,2.88-7.74,4.14a3.58,3.58,0,0,0-2.3.71c-1.21.83-2.18,1.47-2.93,1.92a114.14,114.14,0,0,1-14.44,6.65,71.26,71.26,0,0,1-15.35,4,17.49,17.49,0,0,1-11.28-1.92,31.15,31.15,0,0,1-9-7.33,57,57,0,0,0,16.58-2.48,39.6,39.6,0,0,0,14.55-7.9,23.35,23.35,0,0,0,2.49-2.93,10.13,10.13,0,0,0,1.57-3.27,6.09,6.09,0,0,0,0-3.28,4.7,4.7,0,0,0-2.48-2.7,12.36,12.36,0,0,0-7.56-1.7,27.08,27.08,0,0,0-8.23,2,58,58,0,0,0-7.79,3.94c-2.48,1.51-4.7,2.86-6.65,4.07a48.93,48.93,0,0,0-4.74,2.93l-4.51,3.16,13.53-26.63c1.66-1.35,3.31-2.82,5-4.4s3.31-3.12,5-4.62q4.06-3.84,8-7.67t7.79-7.68c.9-.9,1.88-1.91,2.93-3s2.07-2.26,3.05-3.39a19.46,19.46,0,0,0,2.48-3.61,10.82,10.82,0,0,0,1.24-3.95,4,4,0,0,0-.9-3.38,5.43,5.43,0,0,0-2.71-1.47,10.89,10.89,0,0,0-3.5-.11,9.86,9.86,0,0,0-3.27.9,22.57,22.57,0,0,0-7.78,5.76,87.17,87.17,0,0,0-6,7.56q-4.29,6.09-8,12.63t-7.11,13.09l-3.84,3.38Q356.39,75.89,344.77,84a193.53,193.53,0,0,1-24.25,14.44l-.21.1c-.34.1-.68.21-1,.35A18.78,18.78,0,0,0,316,100.6a9.34,9.34,0,0,1-2.49,1.24q-3.6,1.81-8.57,4a100.46,100.46,0,0,1-10,3.72,85.64,85.64,0,0,1-9.82,2.48,24.48,24.48,0,0,1-7.89.46,2.17,2.17,0,0,1-1.58-1q-.47-.78.45-2.37a7.8,7.8,0,0,1,1.69-2.82l2.14-2.14a6.18,6.18,0,0,0,1.58-2.71A3.81,3.81,0,0,0,280,96.76a3,3,0,0,0-4.4.57A48.59,48.59,0,0,1,265,105.9a34,34,0,0,1-3.61,2.15c-1.8,1-3.76,1.91-5.87,2.82a35,35,0,0,1-6.2,2q-3,.67-4.4-.45c-1.05-.91-1.05-2.37,0-4.4a35.71,35.71,0,0,1,4.29-6.32q2.7-3.27,5.52-6.09t3.95-3.73c1.81-1.2,3.42-2.21,4.85-3a23.79,23.79,0,0,1,5.31-2.15L279,85.6a6.92,6.92,0,0,0,4.17-2.49c1.13-1.35.8-2.85-1-4.51-1.21-.75-3.12-1-5.75-.68a67.82,67.82,0,0,0-8.47,1.58c-3,.76-5.86,1.58-8.57,2.48s-4.59,1.58-5.64,2q-2.94,1.13-7.33,2.93t-9.14,3.83q-4.74,2-8.92,4.18l-5.46,2.79a1.47,1.47,0,0,0-.4.14,18.32,18.32,0,0,1-2.14,1l-11.29,5q-5.64,2.49-11.5,5a124.18,124.18,0,0,1-11.74,4.28q-5.87,1.81-12.29,3.27a41.77,41.77,0,0,1-12.53,1,7.54,7.54,0,0,1-4.73-1.69,6.65,6.65,0,0,1-2-3.5,14.11,14.11,0,0,1-.22-4.4,29,29,0,0,1,.9-4.85,71.89,71.89,0,0,1,8.35-19.29A135.47,135.47,0,0,1,176,66.3q7.11-8.23,14.89-15.9t15-15.12q2.25-2.25,5.52-5.42a12.68,12.68,0,0,0,4-6.77c.3-1.8,0-3.08-1-3.83a6,6,0,0,0-3.73-1.13,20.24,20.24,0,0,0-4.62.56c-1.58.38-2.9.72-3.95,1a76.4,76.4,0,0,0-22.23,11.17q-10.49,7.56-20,15Q148.35,55.13,137.41,65T116.09,85.37q2.49-4.07,5.3-8t5.76-8q7.22-10.15,15.45-19.74a139.12,139.12,0,0,0,14.56-20.42,71.06,71.06,0,0,0,4.74-9.48A18.15,18.15,0,0,0,163,9.56q-1.12-5.64-5.75-7.79A19,19,0,0,0,147.46.08a58.74,58.74,0,0,0-22.57,6.09,203.88,203.88,0,0,0-20.53,11.51A210.32,210.32,0,0,0,84.16,32.8q-9.59,8.12-18.84,16.69Q55.86,58.3,47.05,67.66T30.12,87a39.43,39.43,0,0,0-1.58-11.06A4.41,4.41,0,0,0,26,73.3a3.57,3.57,0,0,0-3.72.56,3.69,3.69,0,0,0-1.47,2.6,14.86,14.86,0,0,0,.11,3.16,15.76,15.76,0,0,0,.79,3.27,8.17,8.17,0,0,1,.57,2.71,40.85,40.85,0,0,1-2.94,15.56q-5,6.56-9.81,13.32A90.56,90.56,0,0,0,1,128.92c-.91,1.65-1.21,2.89-.91,3.72A2.47,2.47,0,0,0,2,134.22a6,6,0,0,0,3.5-.45A12.16,12.16,0,0,0,9.59,131a73.46,73.46,0,0,0,11.17-14.67,78.87,78.87,0,0,0,7.78-17.6c2-2.55,3.91-5.08,5.87-7.56s4-5,6.09-7.56A327.56,327.56,0,0,1,85,39.11a186.71,186.71,0,0,1,21.67-15.45,131.41,131.41,0,0,1,23.69-11.4q2-.67,5.19-1.92a48.24,48.24,0,0,1,6.54-2,29.18,29.18,0,0,1,6.54-.79A9.24,9.24,0,0,1,154,9.1a4.56,4.56,0,0,1,1.58,4.29,19.74,19.74,0,0,1-1.47,6,42.84,42.84,0,0,1-2.93,5.87q-1.69,2.82-2.37,4.17a134.7,134.7,0,0,1-8.91,13.43q-4.86,6.42-9.59,13L114.06,78.38q-8.11,11.28-16.47,22.56l-9.25,12.63a34.2,34.2,0,0,1-3.61,4.52q-2.49,2.7-2.26,5.19a4.2,4.2,0,0,0,2.15,3.38,3.36,3.36,0,0,0,3.72,0,8.8,8.8,0,0,0,2.93-3,24.21,24.21,0,0,1,2.26-3.28,489.29,489.29,0,0,1,35.65-39.71q9.25-9.25,18.84-17.82t20-16.48q5.19-3.82,10.6-7.33t11.29-6.66a48.9,48.9,0,0,1,6.65-3.15,58.1,58.1,0,0,1,7.11-2.26Q200,31.45,194.28,38.1l-11.4,13.2-10,11.62q-4.4,5.07-5.3,6.2-5,6.55-9.71,13.32a72.41,72.41,0,0,0-7.89,14.66,46.84,46.84,0,0,0-2.48,6.1A26.61,26.61,0,0,0,146.1,110a17.39,17.39,0,0,0,.79,6.55,11.61,11.61,0,0,0,3.72,5.41,14,14,0,0,0,6.66,3.16,25.49,25.49,0,0,0,7.56.23,52.31,52.31,0,0,0,7.56-1.47q3.72-1,6.88-2.14,5.86-2.27,11.85-4.63T203,112.22q5.19-2.48,10.61-4.63t10.83-4.85h0q4.07-2,8.91-4.4t9.25-4.62q4.4-2.25,7.9-3.84a43.31,43.31,0,0,1,5.07-2,31.78,31.78,0,0,0-6.31,4.74A54.12,54.12,0,0,0,243,99.47a49.79,49.79,0,0,0-4.62,7.22,13.32,13.32,0,0,0-1.81,5.76,7.47,7.47,0,0,0,3.39,6.31,11.75,11.75,0,0,0,7.22,1.81,21.84,21.84,0,0,0,8.68-2.82q4.17-2.37,8-4.63l6.1-3.61a11.55,11.55,0,0,0-.23,6c.45,1.89,1.95,3.35,4.51,4.4a13.06,13.06,0,0,0,6.43.68,36.75,36.75,0,0,0,6.89-1.58,50.57,50.57,0,0,0,6.54-2.71q3.15-1.57,5.87-2.71l7.89-3.49c2.56-1.13,5.11-2.29,7.67-3.5.6-.3,1.51-.68,2.71-1.13s2.41-.94,3.61-1.46a10.39,10.39,0,0,0,1.56-.85,5.68,5.68,0,0,0,1.71-.85c1.28-.9,2.29-1.65,3.05-2.25q5.42-3.17,10.26-6.21t9.82-6.43q4.28-3.16,8.57-6.2t8.58-6.44l-2.26,3.84q-2.94,5-5.75,9.93c-1.89,3.31-4,6.62-6.21,9.93L344,108.61c-.6.9-1.13,1.73-1.58,2.48a2.87,2.87,0,0,0,0,2.71q1.13,3.84,3.05,3.27a8.79,8.79,0,0,0,3.72-2.37c.75-.75,1.39-1.43,1.92-2a14.72,14.72,0,0,0,1.47-2c1.2-1.5,2.48-3,3.83-4.51a59.87,59.87,0,0,1,4.29-4.29c1.2,1.81,2.52,3.61,3.95,5.42a42,42,0,0,0,4.62,5A21.93,21.93,0,0,0,379,118a26,26,0,0,0,9.92.57,35.65,35.65,0,0,0,9.93-2.93q5-2.27,9.93-4.74c2.1-.91,4.21-1.88,6.32-2.94s4.21-2.18,6.32-3.38c.6-.3,1.16-.56,1.69-.79a7.74,7.74,0,0,0,.92-.5,3.18,3.18,0,0,0,2.12-.63,16.6,16.6,0,0,1,2.93-1.69l4.18-2.6a43.52,43.52,0,0,1,4.85-2.59,7.23,7.23,0,0,0-.11,3.38c.22,1.21.48,2.41.79,3.61a17.85,17.85,0,0,0,4.51,8.13,22.49,22.49,0,0,0,7.11,4.85,26.57,26.57,0,0,0,8.57,2,34.13,34.13,0,0,0,9.14-.57,192.86,192.86,0,0,0,20.53-6.76l11.29-5c1.05-.45,2.25-.9,3.61-1.35a5.76,5.76,0,0,0,3.15-2.48C507.57,100.26,507.45,99.28,506.33,98.68ZM448.68,87.51a17.49,17.49,0,0,1,10.26-5.3,12.76,12.76,0,0,1,6.21.68,33,33,0,0,1-8.92,6.32,26,26,0,0,1-10.49,2.7A14,14,0,0,1,448.68,87.51ZM389.79,42.16a35.57,35.57,0,0,1,10.15-8.69,44.92,44.92,0,0,1-5.42,7.34q-3.15,3.49-5.86,6.43L381.89,54A74.27,74.27,0,0,1,389.79,42.16Zm-23,54.27c.3-.15,1.16-.68,2.6-1.58s3.08-1.88,5-2.94,3.8-2.06,5.75-3a22.42,22.42,0,0,1,5-1.92c1.2-.3,2.52-.64,3.95-1a16.57,16.57,0,0,1,4.17-.56,33.51,33.51,0,0,1-10.94,8,34.78,34.78,0,0,1-13.43,3.05Z"/></svg>