<svg id="レイヤー_1" data-name="レイヤー 1" xmlns="http://www.w3.org/2000/svg" viewBox="0 0 1311.66 446.05"><defs><style>.cls-1{fill:#fff;}</style></defs><title>アートボード 1</title><path class="cls-1" d="M348.27,87.4q4.28-3.16,8.57-6.2t8.58-6.44l-2.26,3.84q-2.94,5-5.75,9.93c-1.89,3.31-4,6.62-6.21,9.93L344,108.61c-.6.9-1.13,1.73-1.58,2.48a2.87,2.87,0,0,0,0,2.71q1.13,3.84,3.05,3.27a8.79,8.79,0,0,0,3.72-2.37c.75-.75,1.39-1.43,1.92-2a14.72,14.72,0,0,0,1.47-2c1.2-1.5,2.48-3,3.83-4.51a59.87,59.87,0,0,1,4.29-4.29c1.2,1.81,2.52,3.61,3.95,5.42a42,42,0,0,0,4.62,5A21.93,21.93,0,0,0,379,118a26,26,0,0,0,9.92.57,35.65,35.65,0,0,0,9.93-2.93q5-2.27,9.93-4.74c2.1-.91,4.21-1.88,6.32-2.94s4.21-2.18,6.32-3.38c.6-.3,1.16-.56,1.69-.79a7.74,7.74,0,0,0,.92-.5,3.18,3.18,0,0,0,2.12-.63,16.6,16.6,0,0,1,2.93-1.69l4.18-2.6a43.52,43.52,0,0,1,4.85-2.59,7.23,7.23,0,0,0-.11,3.38c.22,1.21.48,2.41.79,3.61a17.85,17.85,0,0,0,4.51,8.13,22.49,22.49,0,0,0,7.11,4.85,26.57,26.57,0,0,0,8.57,2,34.13,34.13,0,0,0,9.14-.57,192.86,192.86,0,0,0,20.53-6.76l11.29-5c1.05-.45,2.25-.9,3.61-1.35a5.76,5.76,0,0,0,3.15-2.48c.91-1.36.79-2.34-.33-2.94a4.3,4.3,0,0,0-3.28-.45,44,44,0,0,1-4.4,2.14c-1.57.68-3.12,1.4-4.62,2.15a100,100,0,0,1-10.15,4,102.16,102.16,0,0,1-10.61,2.82,68.23,68.23,0,0,1-8.46.9,27,27,0,0,1-8.91-1,19.6,19.6,0,0,1-7.45-3.94,12.7,12.7,0,0,1-4.06-7.68h.9a28.54,28.54,0,0,0,9.82-.79A32,32,0,0,0,464,93c.75-.45,1.92-1.16,3.5-2.14a27.15,27.15,0,0,0,4.28-3.27,10.72,10.72,0,0,0,2.71-3.84,3.54,3.54,0,0,0-.79-3.84,8.93,8.93,0,0,0-6.43-3.38,29.82,29.82,0,0,0-7.33,0A34.1,34.1,0,0,0,448.45,81a23,23,0,0,0-8.35,8.46,74.13,74.13,0,0,0-8.91,4.29c-2.68,1.51-5.25,2.88-7.74,4.14a3.58,3.58,0,0,0-2.3.71c-1.21.83-2.18,1.47-2.93,1.92a114.14,114.14,0,0,1-14.44,6.65,71.26,71.26,0,0,1-15.35,4,17.49,17.49,0,0,1-11.28-1.92,31.15,31.15,0,0,1-9-7.33,57,57,0,0,0,16.58-2.48,39.6,39.6,0,0,0,14.55-7.9,23.35,23.35,0,0,0,2.49-2.93,10.13,10.13,0,0,0,1.57-3.27,6.09,6.09,0,0,0,0-3.28,4.7,4.7,0,0,0-2.48-2.7,12.36,12.36,0,0,0-7.56-1.7,27.08,27.08,0,0,0-8.23,2,58,58,0,0,0-7.79,3.94c-2.48,1.51-4.7,2.86-6.65,4.07a48.93,48.93,0,0,0-4.74,2.93l-4.51,3.16,13.53-26.63c1.66-1.35,3.31-2.82,5-4.4s3.31-3.12,5-4.62q4.06-3.84,8-7.67t7.79-7.68c.9-.9,1.88-1.91,2.93-3s2.07-2.26,3.05-3.39a19.46,19.46,0,0,0,2.48-3.61,10.82,10.82,0,0,0,1.24-3.95,4,4,0,0,0-.9-3.38,5.43,5.43,0,0,0-2.71-1.47,10.89,10.89,0,0,0-3.5-.11,9.86,9.86,0,0,0-3.27.9,22.57,22.57,0,0,0-7.78,5.76,87.17,87.17,0,0,0-6,7.56q-4.29,6.09-8,12.63t-7.11,13.09l-3.84,3.38Q356.39,75.89,344.77,84a193.53,193.53,0,0,1-24.25,14.44l-.21.1c-.34.1-.68.21-1,.35A18.78,18.78,0,0,0,316,100.6a9.34,9.34,0,0,1-2.49,1.24q-3.6,1.81-8.57,4a100.46,100.46,0,0,1-10,3.72,85.64,85.64,0,0,1-9.82,2.48,24.48,24.48,0,0,1-7.89.46,2.17,2.17,0,0,1-1.58-1q-.47-.78.45-2.37a7.8,7.8,0,0,1,1.69-2.82l2.14-2.14a6.18,6.18,0,0,0,1.58-2.71A3.81,3.81,0,0,0,280,96.76a3,3,0,0,0-4.4.57A48.59,48.59,0,0,1,265,105.9a34,34,0,0,1-3.61,2.15c-1.8,1-3.76,1.91-5.87,2.82a35,35,0,0,1-6.2,2q-3,.67-4.4-.45c-1.05-.91-1.05-2.37,0-4.4a35.71,35.71,0,0,1,4.29-6.32q2.7-3.27,5.52-6.09t3.95-3.73c1.81-1.2,3.42-2.21,4.85-3a23.79,23.79,0,0,1,5.31-2.15L279,85.6a6.92,6.92,0,0,0,4.17-2.49c1.13-1.35.8-2.85-1-4.51-1.21-.75-3.12-1-5.75-.68a67.82,67.82,0,0,0-8.47,1.58c-3,.76-5.86,1.58-8.57,2.48s-4.59,1.58-5.64,2q-2.94,1.13-7.33,2.93t-9.14,3.83q-4.74,2-8.91,4.18l-5.47,2.79a1.47,1.47,0,0,0-.4.14,18.32,18.32,0,0,1-2.14,1l-11.29,5q-5.64,2.49-11.5,5a124.18,124.18,0,0,1-11.74,4.28q-5.87,1.81-12.29,3.27a41.77,41.77,0,0,1-12.53,1,7.54,7.54,0,0,1-4.73-1.69,6.65,6.65,0,0,1-2-3.5,14.11,14.11,0,0,1-.22-4.4,29,29,0,0,1,.9-4.85,71.89,71.89,0,0,1,8.35-19.29A135.47,135.47,0,0,1,176,66.3q7.11-8.23,14.89-15.9t15-15.12q2.25-2.25,5.52-5.42a12.68,12.68,0,0,0,4-6.77c.3-1.8,0-3.08-1-3.83a6,6,0,0,0-3.73-1.13,20.24,20.24,0,0,0-4.62.56c-1.58.38-2.9.72-3.95,1a76.4,76.4,0,0,0-22.23,11.17q-10.49,7.56-20,15Q148.35,55.13,137.41,65T116.09,85.37q2.49-4.07,5.3-8t5.76-8q7.22-10.15,15.45-19.74a139.12,139.12,0,0,0,14.56-20.42,71.06,71.06,0,0,0,4.74-9.48A18.15,18.15,0,0,0,163,9.56q-1.12-5.64-5.75-7.79A19,19,0,0,0,147.46.08a58.74,58.74,0,0,0-22.57,6.09,203.88,203.88,0,0,0-20.53,11.51A210.32,210.32,0,0,0,84.16,32.8q-9.59,8.12-18.84,16.69Q55.86,58.3,47.05,67.66T30.12,87a39.43,39.43,0,0,0-1.58-11.06A4.41,4.41,0,0,0,26,73.3a3.57,3.57,0,0,0-3.72.56,3.69,3.69,0,0,0-1.47,2.6,14.86,14.86,0,0,0,.11,3.16,15.76,15.76,0,0,0,.79,3.27,8.17,8.17,0,0,1,.57,2.71,40.85,40.85,0,0,1-2.94,15.56q-5,6.56-9.81,13.32A90.56,90.56,0,0,0,1,128.92c-.91,1.65-1.21,2.89-.91,3.72A2.47,2.47,0,0,0,2,134.22a6,6,0,0,0,3.5-.45A12.16,12.16,0,0,0,9.59,131a73.46,73.46,0,0,0,11.17-14.67,78.87,78.87,0,0,0,7.78-17.6c2-2.55,3.91-5.08,5.87-7.56s4-5,6.09-7.56A327.56,327.56,0,0,1,85,39.11a186.71,186.71,0,0,1,21.67-15.45,131.41,131.41,0,0,1,23.69-11.4q2-.67,5.19-1.92a48.24,48.24,0,0,1,6.54-2,29.18,29.18,0,0,1,6.54-.79A9.24,9.24,0,0,1,154,9.1a4.56,4.56,0,0,1,1.58,4.29,19.74,19.74,0,0,1-1.47,6,42.84,42.84,0,0,1-2.93,5.87q-1.69,2.82-2.37,4.17a134.7,134.7,0,0,1-8.91,13.43q-4.86,6.42-9.59,13L114.06,78.38q-8.11,11.28-16.47,22.56l-9.25,12.63a34.2,34.2,0,0,1-3.61,4.52q-2.49,2.7-2.26,5.19a4.2,4.2,0,0,0,2.15,3.38,3.36,3.36,0,0,0,3.72,0,8.8,8.8,0,0,0,2.93-3,24.21,24.21,0,0,1,2.26-3.28,489.29,489.29,0,0,1,35.65-39.71q9.25-9.25,18.84-17.82t20-16.48q5.19-3.82,10.6-7.33t11.29-6.66a48.9,48.9,0,0,1,6.65-3.15,58.1,58.1,0,0,1,7.11-2.26Q200,31.45,194.28,38.1l-11.4,13.2-10,11.62q-4.4,5.07-5.3,6.2-5,6.55-9.71,13.32a72.41,72.41,0,0,0-7.89,14.66,46.84,46.84,0,0,0-2.48,6.1A26.61,26.61,0,0,0,146.1,110a17.39,17.39,0,0,0,.79,6.55,11.61,11.61,0,0,0,3.72,5.41,14,14,0,0,0,6.66,3.16,25.49,25.49,0,0,0,7.56.23,52.31,52.31,0,0,0,7.56-1.47q3.72-1,6.88-2.14,5.86-2.27,11.85-4.63T203,112.22q5.19-2.48,10.61-4.63t10.83-4.85h0q4.07-2,8.91-4.4t9.25-4.62q4.4-2.25,7.9-3.84a43.31,43.31,0,0,1,5.07-2,31.78,31.78,0,0,0-6.31,4.74A54.12,54.12,0,0,0,243,99.47a49.79,49.79,0,0,0-4.62,7.22,13.32,13.32,0,0,0-1.81,5.76,7.47,7.47,0,0,0,3.39,6.31,11.75,11.75,0,0,0,7.22,1.81,21.84,21.84,0,0,0,8.68-2.82q4.17-2.37,8-4.63l6.1-3.61a11.55,11.55,0,0,0-.23,6c.45,1.89,1.95,3.35,4.51,4.4a13.06,13.06,0,0,0,6.43.68,36.75,36.75,0,0,0,6.89-1.58,50.57,50.57,0,0,0,6.54-2.71q3.15-1.57,5.87-2.71l7.89-3.49c2.56-1.13,5.11-2.29,7.67-3.5.6-.3,1.51-.68,2.71-1.13s2.41-.94,3.61-1.46a10.39,10.39,0,0,0,1.56-.85,5.68,5.68,0,0,0,1.71-.85c1.28-.9,2.29-1.65,3.05-2.25q5.42-3.17,10.26-6.21T348.27,87.4Zm100.41.11a17.49,17.49,0,0,1,10.26-5.3,12.76,12.76,0,0,1,6.21.68,33,33,0,0,1-8.92,6.32,26,26,0,0,1-10.49,2.7A14,14,0,0,1,448.68,87.51Zm-79.31,7.34c1.42-.91,3.08-1.88,5-2.94s3.8-2.06,5.75-3a22.42,22.42,0,0,1,5-1.92c1.2-.3,2.52-.64,3.95-1a16.57,16.57,0,0,1,4.17-.56,33.51,33.51,0,0,1-10.94,8,34.78,34.78,0,0,1-13.43,3.05h-2C367.07,96.28,367.93,95.75,369.37,94.85Zm20.42-52.69a35.57,35.57,0,0,1,10.15-8.69,44.92,44.92,0,0,1-5.42,7.34q-3.15,3.49-5.86,6.43L381.89,54A74.27,74.27,0,0,1,389.79,42.16Z"/><path class="cls-1" d="M693.89,258.86a11.65,11.65,0,0,0-.22,6c.45,1.89,2,3.35,4.51,4.4a13,13,0,0,0,6.43.68,36.47,36.47,0,0,0,6.88-1.58,48.78,48.78,0,0,0,6.55-2.71c2.1-1.05,4.06-1.95,5.86-2.71l7.9-3.49c2.56-1.13,5.11-2.29,7.67-3.5a29.1,29.1,0,0,1,2.71-1.13c1.2-.45,2.4-.94,3.61-1.46A9.1,9.1,0,0,0,748,252a173.29,173.29,0,0,0,18.76-10.73,78.16,78.16,0,0,0-4.06,10.83,29.12,29.12,0,0,0-.9,5.31,12.94,12.94,0,0,0,.56,5.19,7.57,7.57,0,0,0,2.82,3.83,7.33,7.33,0,0,0,5.42,1,23.19,23.19,0,0,0,7.44-1.69q3.62-1.47,7.45-2.83l26.17-9.7a14.75,14.75,0,0,0,3.39-2.14q1.8-1.47-.68-3.27-1.8-1.12-4.29.22a18.49,18.49,0,0,1-4.28,1.81q-6.33,2.7-12.86,5a101.21,101.21,0,0,1-13.32,3.61,6.52,6.52,0,0,1-2,.34c-1.05.08-2.18.19-3.38.34-1.36.15-2.86.38-4.51.68a16.9,16.9,0,0,1-.23-6.21,36.46,36.46,0,0,1,1.58-6.66,54.24,54.24,0,0,1,2.59-6.43c1-2,1.84-3.94,2.6-5.75a211.15,211.15,0,0,0,24-20.65,180,180,0,0,0,20.19-24q1.13-1.57,2.94-3.72a50.46,50.46,0,0,0,3.38-4.51,20.19,20.19,0,0,0,2.37-4.74,7.17,7.17,0,0,0-.11-4.85q-1.35-3.84-5-3.27a18.73,18.73,0,0,0-6.09,1.91,34,34,0,0,0-9.14,7.56q-3.95,4.64-7.33,9.14-4.07,5.19-7.9,10.49T786,208.55q-3.62,5.64-7.45,11.5a123.21,123.21,0,0,0-7,12.19q-6.54,4.51-13.09,8.35a140.58,140.58,0,0,1-13.54,7l-.52.3a9.22,9.22,0,0,0-1.16.38,18.87,18.87,0,0,0-3.28,1.69,9.17,9.17,0,0,1-2.48,1.24q-3.62,1.81-8.57,3.95a100.46,100.46,0,0,1-10,3.72,87.88,87.88,0,0,1-9.82,2.49,24.77,24.77,0,0,1-7.9.45,2.19,2.19,0,0,1-1.58-1c-.3-.52-.15-1.31.46-2.37a7.8,7.8,0,0,1,1.69-2.82l2.14-2.14a6.18,6.18,0,0,0,1.58-2.71,3.82,3.82,0,0,0-1.47-4.63c-1.58-1.12-3-.93-4.4.57a48.28,48.28,0,0,1-10.6,8.57,35.12,35.12,0,0,1-3.61,2.15c-1.81,1-3.76,1.92-5.87,2.82a35.28,35.28,0,0,1-6.2,2q-3,.67-4.4-.45c-1.06-.91-1.06-2.37,0-4.4a36.17,36.17,0,0,1,4.28-6.32q2.72-3.27,5.53-6.09t4-3.73c1.81-1.2,3.42-2.21,4.85-3a23.89,23.89,0,0,1,5.3-2.15L702.92,235a6.9,6.9,0,0,0,4.17-2.49q1.7-2-1-4.51-1.82-1.12-5.76-.68a68,68,0,0,0-8.46,1.58c-3,.76-5.86,1.58-8.57,2.49s-4.59,1.57-5.64,2c-2,.75-4.4,1.73-7.34,2.93s-6,2.48-9.13,3.84-6.14,2.74-8.92,4.17-5.07,2.59-6.88,3.5a3.32,3.32,0,0,0-1,.75c-1.65.84-3.47,1.79-5.5,2.86a54.36,54.36,0,0,1-9.48,3.83q-4.05,1.37-9.47,2.94a60.9,60.9,0,0,1-10.95,2.14,30.13,30.13,0,0,1-10.49-.68,15.51,15.51,0,0,1-8.35-5.3c-2.25-3-2.71-5.9-1.35-8.69a12.82,12.82,0,0,1,6.54-6.2,18.27,18.27,0,0,1,6-2,28.52,28.52,0,0,1,6.21-.23c1.2.15,2.37.34,3.49.57a5.85,5.85,0,0,0,3-.12,3.73,3.73,0,0,0,2.82-1.35,3.68,3.68,0,0,0,.68-2.48,4.7,4.7,0,0,0-1.13-2.6,5.15,5.15,0,0,0-2.6-1.69,29,29,0,0,0-9.25.68,54.73,54.73,0,0,0-9,2.7,17,17,0,0,0-3.84,1.36c-1.2.6-2.48,1.2-3.83,1.8q-5.65,2.72-11,5.87a89.8,89.8,0,0,1-11.17,5.64l-.09,0a20.41,20.41,0,0,0-3.63,1.19q-2.37,1-4.62,2.15a15.54,15.54,0,0,1-3.39,1.35,34.9,34.9,0,0,1-8.12,1.35,13.13,13.13,0,0,1-7.9-2,10.58,10.58,0,0,1-2.71-2.25,24.23,24.23,0,0,0,3.39-7.9,7.16,7.16,0,0,0-2-7,4.32,4.32,0,0,0-3.16-.9,3.36,3.36,0,0,0-1.36-3.61,8.22,8.22,0,0,0-6.54-.9,28,28,0,0,0-6.54,2.48q-4.51,1.35-9.37,2.71a91.8,91.8,0,0,0-9.36,3.16l-23.47,10.15h0L457.43,258q-8.81,4.52-19.07,9.7a149,149,0,0,1-21,8.69,86.73,86.73,0,0,1-21.55,4.17,42.54,42.54,0,0,1-21-4.06l-2.93-1.58a61.09,61.09,0,0,0,12.19-14q5.17-8.12,9.7-15.34,5.19-7.89,9.93-15.91t9.25-15.9q4.95-8.36,9.93-17.27T433.4,179.1a167,167,0,0,1,12-16.13,100.8,100.8,0,0,1,14.32-14A2.82,2.82,0,0,0,461,146.5a5.17,5.17,0,0,0-.68-2.71,4.17,4.17,0,0,0-1.92-1.69,3.38,3.38,0,0,0-2.82.11,16.54,16.54,0,0,0-6.88,5.64q-3,4.07-5.3,7.22a184,184,0,0,0-12.07,16.81q-5.53,8.69-10.72,17.71-7.9,14.22-15.68,28.1t-16.81,27.18a139.85,139.85,0,0,1-10.5,14,48.51,48.51,0,0,1-13.42,11.06c-2.41-1.51-4.89-2.93-7.45-4.29a36.68,36.68,0,0,0-7.56-3,18.72,18.72,0,0,0-7.33-.57,12.15,12.15,0,0,0-6.77,3.39,8,8,0,0,0-2.71,4.4,8.74,8.74,0,0,0,.34,4.62,12.82,12.82,0,0,0,2.48,4.18,10.11,10.11,0,0,0,4.18,2.82A19.76,19.76,0,0,0,350.81,283a75.82,75.82,0,0,0,11.62-2.71L367,278q5.19,3.16,10.49,5.87A40.88,40.88,0,0,0,400.68,288a65.58,65.58,0,0,0,11.62-2.48A111.63,111.63,0,0,0,430,278.16q8.46-4.41,17-8.92,5.42-2.7,10.6-5.52T468,258l5.87-2.71a40.66,40.66,0,0,0,4.72-2.57l.13,0a14.44,14.44,0,0,0,2.59-1c.91-.45,1.81-.93,2.71-1.46s1.66-.94,2.26-1.24q5-2.49,9.93-4.74t10.15-4.06l-4.29,4.28a49.93,49.93,0,0,0-4.73,5.64,28.9,28.9,0,0,0-3.84,7,11.54,11.54,0,0,0-.56,6.88q.78,3.27,5.3,5.3a14.77,14.77,0,0,0,7.67,1.13,25.36,25.36,0,0,0,7.78-2.14,39.3,39.3,0,0,0,7.11-4.18,68.93,68.93,0,0,0,6.09-5l5-5.19a13.73,13.73,0,0,0,5.86,3.5,24.48,24.48,0,0,0,7,1,41,41,0,0,0,7.33-.67,52.06,52.06,0,0,0,7.11-1.81l2.71-.9c1.35-.45,2.67-.94,4-1.47a9.59,9.59,0,0,0,1.72-.9,5,5,0,0,0,2.79-1c1.27-.9,2.37-1.65,3.27-2.25a34.81,34.81,0,0,0,4.85-2.71q2.37-1.58,4.85-2.93V244a14.46,14.46,0,0,0-1.24,9.37,16.22,16.22,0,0,0,3.95,7.55,21,21,0,0,0,16.25,6.55,58.25,58.25,0,0,0,20.76-3.84q10.14-3.83,19.4-8.35a37.17,37.17,0,0,0,4.17-1.35,4.93,4.93,0,0,0,2.89-2.4c2.38-1.19,5-2.45,7.72-3.8q4.85-2.38,9.25-4.63t7.9-3.84a45.22,45.22,0,0,1,5.07-2,32.11,32.11,0,0,0-6.32,4.74,54.81,54.81,0,0,0-6.2,6.88A50.77,50.77,0,0,0,662.3,256a13.42,13.42,0,0,0-1.8,5.76,7.48,7.48,0,0,0,3.38,6.32,11.84,11.84,0,0,0,7.22,1.8,21.83,21.83,0,0,0,8.69-2.82q4.17-2.37,8-4.63Zm92.74-42.08q2.25-3.5,4.74-7.11,4.5-6.09,9-11.84a122.63,122.63,0,0,1,9.7-11q1.81-1.8,4.63-4.51a24.68,24.68,0,0,1,6-4.29,29,29,0,0,1-1.58,3.5,30.22,30.22,0,0,0-1.35,2.82,76.84,76.84,0,0,1-7.68,10.83,174.29,174.29,0,0,1-19.4,21.44l-4.17,3.72q-2.16,1.92-4.18,3.5C783.69,221.48,785.12,219.12,786.63,216.78Zm-432,57.09a26.43,26.43,0,0,0-2.82.79,40.37,40.37,0,0,1-5.87.56,6.31,6.31,0,0,1-5.41-2.37c-.61-.6-.79-1.09-.57-1.46a3,3,0,0,1,1.13-1,6.48,6.48,0,0,1,1.81-.68,8,8,0,0,1,1.69-.22,21.86,21.86,0,0,1,6.43,1,67.92,67.92,0,0,1,6.43,2.37A12.85,12.85,0,0,1,354.65,273.87Zm173.4-24.71a16,16,0,0,1-2.71,3.61L522,256.16a22.72,22.72,0,0,1-9.59,5.19,27.79,27.79,0,0,1-11.17.45c-2.11-.3-3-1.24-2.82-2.82a12.6,12.6,0,0,1,2.14-5.08,38.79,38.79,0,0,1,4.18-5.19q2.37-2.47,3.27-3.38a38.84,38.84,0,0,1,9.14-5.65A33.82,33.82,0,0,1,528.5,237a9.14,9.14,0,0,0-1.69,5.86A19.41,19.41,0,0,0,528.05,249.16Z"/><path class="cls-1" d="M1310.72,405.44a4.28,4.28,0,0,0-3.27-.45q-2,1.13-4.4,2.14c-1.58.68-3.13,1.39-4.63,2.14a97.73,97.73,0,0,1-10.15,4,99.71,99.71,0,0,1-10.61,2.82,66.36,66.36,0,0,1-8.46.9,26.7,26.7,0,0,1-8.91-1,19.62,19.62,0,0,1-7.45-3.95,12.68,12.68,0,0,1-4.06-7.67h.9a28.79,28.79,0,0,0,9.82-.79,32.64,32.64,0,0,0,8.91-3.72l3.5-2.15a26,26,0,0,0,4.28-3.27,10.55,10.55,0,0,0,2.71-3.84,3.52,3.52,0,0,0-.79-3.83,8.94,8.94,0,0,0-6.43-3.39,29.82,29.82,0,0,0-7.33,0,34.53,34.53,0,0,0-11.51,4.4,23.25,23.25,0,0,0-8.35,8.46,75.68,75.68,0,0,0-8.91,4.29c-2.59,1.47-5.1,2.81-7.51,4a5.32,5.32,0,0,0-.84.15,10.74,10.74,0,0,0-2.59,1.12,12.09,12.09,0,0,1-2,1q-2.94,1.35-5.76,2.82c-1.88,1-3.72,1.84-5.52,2.6q-8.13,3.15-13,4.51t-6,0a5.09,5.09,0,0,1-1.69-4.29,19.54,19.54,0,0,1,1.13-5.64,41.9,41.9,0,0,1,2.48-5.75q1.47-2.82,2.59-4.63c1.36-2.1,1.66-3.91.91-5.41s-2.48-1.81-5.19-.91a66.42,66.42,0,0,1-9.25,4.63,20.73,20.73,0,0,1-9.93,1.69,7.63,7.63,0,0,1-3.84-.9,15.17,15.17,0,0,0,4.74-4.51,5.48,5.48,0,0,0,.9-5.19,4.56,4.56,0,0,0-4.06-3.16,8.91,8.91,0,0,0-7.78,3.61,10.91,10.91,0,0,0-2.6,8.12q-5.41,3.17-10,5.64-4.15,2.24-8.41,4.46a4.06,4.06,0,0,0-1.06.39c-1.58.83-2.9,1.47-4,1.92a141.07,141.07,0,0,1-18,7.67c-1.51.45-3.46,1-5.87,1.69a7.91,7.91,0,0,1-6.09-.33,8.65,8.65,0,0,1,.11-5.65,22.61,22.61,0,0,1,2.15-5,32.27,32.27,0,0,1,2.59-3.95,10,10,0,0,0,1.92-3.95,3.69,3.69,0,0,0-1.69-4.06,3.57,3.57,0,0,0-4.18,0,127.29,127.29,0,0,1-10.6,7.22,222.62,222.62,0,0,1-21.44,11.28c-2.25.91-4.89,2-7.9,3.39a21,21,0,0,1-8.57,2,13.7,13.7,0,0,1,3.16-8.57,80,80,0,0,1,6.54-7.45c.6-.6,1.5-1.39,2.71-2.37a33.7,33.7,0,0,0,3.38-3.16,13.3,13.3,0,0,0,2.37-3.38,3.64,3.64,0,0,0-4.28-5,21.58,21.58,0,0,0-5.53,2.15,65.89,65.89,0,0,0-5.76,3.49,41.73,41.73,0,0,1-4.17,2.6q-5.64,2.49-11.28,5.07a92.42,92.42,0,0,1-11.51,4.41,3.31,3.31,0,0,0-.5.24,16,16,0,0,0-1.75.43q-5.19,2.26-10.38,4.06l-10.38,3.61q-4.07,1.14-9.59,2.82a19.39,19.39,0,0,1-10.27.57c-.45,0-.53-.79-.22-2.37s.71-3.31,1.24-5.19,1.09-3.72,1.69-5.53a18.35,18.35,0,0,1,1.35-3.38c.75-1.66,1.51-3.27,2.26-4.85a31.72,31.72,0,0,1,2.71-4.63c2.1-1.65,4.13-3.31,6.09-5s3.84-3.31,5.64-5l3.16-.68q10.83-1.35,22.11-3.38a142.08,142.08,0,0,0,21.66-5.64,4.08,4.08,0,0,0,2.49-2.6,3.81,3.81,0,0,0-.68-3.72,3,3,0,0,0-3-1.46,16.09,16.09,0,0,0-3.27,1l-22.34,6.77L1020,374.3q3.84-4.07,7.56-8.35t7.11-8.8c1.8-2.26,4-4.77,6.54-7.56a20.06,20.06,0,0,0,5-8.69,4.29,4.29,0,0,0-.45-3.83,3.73,3.73,0,0,0-3.38-1.81,9.91,9.91,0,0,0-3.95,1.36q-1.92,1.13-3.72,2.25a81.43,81.43,0,0,0-16.59,17.72q-7.34,10.49-13.65,20.19c-2.71.3-5.41.49-8.12.56s-5.42,0-8.12-.11a2.48,2.48,0,0,0-2.6,2,2.59,2.59,0,0,0,1.24,3.16,10.1,10.1,0,0,0,6.54.68q4.07-.68,7.45-.9l-3.16,5.41a157,157,0,0,1-14.33,9.48q-7.22,4.21-15,7.78a6.25,6.25,0,0,0-1.37.57,19.08,19.08,0,0,1-4.29,1.8q-6.31,2.72-12.86,5a104.71,104.71,0,0,1-13.31,3.61,6.71,6.71,0,0,1-2,.33c-1.05.08-2.18.19-3.38.34-1.35.15-2.86.38-4.51.68a17.06,17.06,0,0,1-.23-6.2,37.3,37.3,0,0,1,1.58-6.66,53.59,53.59,0,0,1,2.6-6.43c1-2,1.84-3.95,2.59-5.76a209.35,209.35,0,0,0,24-20.64,181.3,181.3,0,0,0,20.2-24c.75-1.05,1.72-2.29,2.93-3.73a49.06,49.06,0,0,0,3.38-4.51,20.19,20.19,0,0,0,2.37-4.74,7.17,7.17,0,0,0-.11-4.85c-.9-2.55-2.56-3.64-5-3.27a19,19,0,0,0-6.1,1.92,33.91,33.91,0,0,0-9.13,7.56q-4,4.62-7.34,9.14-4,5.19-7.89,10.49T942.82,366q-3.6,5.64-7.44,11.51a122,122,0,0,0-7,12.18q-6.54,4.51-13.08,8.35-6,3.52-12.42,6.47a3.7,3.7,0,0,0-1.23.41c-1.58.83-2.9,1.47-3.95,1.92a141.07,141.07,0,0,1-18.05,7.67c-1.51.45-3.46,1-5.87,1.69a7.91,7.91,0,0,1-6.09-.33,8.65,8.65,0,0,1,.11-5.65,22.61,22.61,0,0,1,2.15-5,32.27,32.27,0,0,1,2.59-3.95,10,10,0,0,0,1.92-3.95,3.69,3.69,0,0,0-1.69-4.06,3.57,3.57,0,0,0-4.18,0,127.29,127.29,0,0,1-10.6,7.22,222.62,222.62,0,0,1-21.44,11.28c-2.25.91-4.89,2-7.9,3.39a21,21,0,0,1-8.57,2,13.7,13.7,0,0,1,3.16-8.57,80,80,0,0,1,6.54-7.45c.6-.6,1.5-1.39,2.71-2.37a33.7,33.7,0,0,0,3.38-3.16,13.3,13.3,0,0,0,2.37-3.38,3.64,3.64,0,0,0-4.28-5,21.58,21.58,0,0,0-5.53,2.15,65.89,65.89,0,0,0-5.76,3.49,41.73,41.73,0,0,1-4.17,2.6q-5.64,2.49-11.28,5.07A92.42,92.42,0,0,1,795.71,405a3,3,0,0,0-.64.34,26.71,26.71,0,0,0-2.86,1.46l-3.61,2.14-2.82,1.7-11.73,5.64q-5.87,2.93-11.62,5.75t-11.62,5.3c-3.61,1.51-7.52,3.08-11.73,4.74a111,111,0,0,1-12.87,4.18,72.35,72.35,0,0,1-13,2.14A35.15,35.15,0,0,1,700.72,437q-6.09-1.81-8.24-6.77a25.22,25.22,0,0,1-1.92-11.06A52.53,52.53,0,0,1,692.48,407a73.75,73.75,0,0,1,3.5-10.16,134.05,134.05,0,0,1,11.17-23.13,199.52,199.52,0,0,1,14.78-21.09q3.6-4.51,8-9.37a107.7,107.7,0,0,1,9.36-9.14,61.91,61.91,0,0,1,10.49-7.33,38.45,38.45,0,0,1,11.62-4.17,18.45,18.45,0,0,1,10,.45q4.18,1.57,4.63,8.12a41.86,41.86,0,0,1-.9,12.19,63.14,63.14,0,0,1-3.84,11.73c-1.35,3.46-2.9,7-4.62,10.72a120.81,120.81,0,0,1-5.87,10.94,89.1,89.1,0,0,1-7.11,10.15,47.38,47.38,0,0,1-8.35,8.13,3.75,3.75,0,0,0-1.8,2.93,3.94,3.94,0,0,0,1,2.71,4.84,4.84,0,0,0,2.71,1.47,4.78,4.78,0,0,0,3.5-.79,68.07,68.07,0,0,0,7.22-9.6q3.15-5.07,6.32-10.26,5.86-10.38,11.28-21.66a87.11,87.11,0,0,0,7.44-23.24,32.17,32.17,0,0,0,.23-10,13.77,13.77,0,0,0-4.74-8.69,14.68,14.68,0,0,0-9.81-3.72,31.07,31.07,0,0,0-10.5,1.46A37.17,37.17,0,0,0,748,319.92a71,71,0,0,0-9.25,6.66,82,82,0,0,0-8.24,8l-7.44,8.34a198.57,198.57,0,0,0-27.76,42.2q-2.49,4.74-4.85,10.15a94.62,94.62,0,0,0-4.06,11.17,62.46,62.46,0,0,0-2.26,11.62,37.37,37.37,0,0,0,.57,11.28,18.19,18.19,0,0,0,5.3,9.93,23.54,23.54,0,0,0,9,5.19,36.78,36.78,0,0,0,11,1.58,52.05,52.05,0,0,0,11-1.13,97.68,97.68,0,0,0,22.46-7.67q10.71-5.19,21.09-10.38,6.54-3.17,12.75-6.43T789.84,414a28.44,28.44,0,0,1,5.19-1.92,10.28,10.28,0,0,0,4.74-2.59,2.43,2.43,0,0,0,.82-.48c1-.35,2-.79,3.24-1.33q4.06-1.8,13.32-5.19l5.41-2.48q-2.7,3.62-5.19,7.45a42.62,42.62,0,0,0-3.83,7.22,14.45,14.45,0,0,0-1.24,6,3.64,3.64,0,0,0,2.82,3.49,10.36,10.36,0,0,0,6.31.34,36.31,36.31,0,0,0,7.34-2.48q3.72-1.69,7.1-3.61c2.26-1.28,4.21-2.37,5.87-3.27q5.87-2.49,11.4-5.42t11.39-5.64l-3.38,8.13a13.07,13.07,0,0,0-.57,6.65q.57,3.51,4.63,4.63a16.9,16.9,0,0,0,11.28-1.24q5.64-2.6,10.38-4.63l14.89-7a18.18,18.18,0,0,0,1.65-.83,4,4,0,0,0,.83-.08,173.73,173.73,0,0,0,19.4-11.05,79.46,79.46,0,0,0-4.06,10.83,29,29,0,0,0-.9,5.3,13.12,13.12,0,0,0,.56,5.19,7.64,7.64,0,0,0,2.82,3.84,7.38,7.38,0,0,0,5.42,1,23.24,23.24,0,0,0,7.45-1.69q3.6-1.47,7.44-2.82l26.18-9.7a12.65,12.65,0,0,0,1.39-.74,3.56,3.56,0,0,0,.41-.17A170.77,170.77,0,0,0,992,397.31c-2.11,3.92-4,7.56-5.53,10.95a19.84,19.84,0,0,0-1.92,10.26q.9,5.21,4.86,6.1a18.73,18.73,0,0,0,8.8-.34,71.43,71.43,0,0,0,9.7-3.27l7.56-3.16,16-5.87a42.74,42.74,0,0,1,4.17-1.47,5.68,5.68,0,0,0,1.19-.49l.28-.07a32.36,32.36,0,0,0,6.31-2.26q4.07-1.8,13.32-5.19l5.41-2.48q-2.7,3.62-5.19,7.45a42.62,42.62,0,0,0-3.83,7.22,14.45,14.45,0,0,0-1.24,6,3.64,3.64,0,0,0,2.82,3.49,10.36,10.36,0,0,0,6.31.34,36.31,36.31,0,0,0,7.34-2.48q3.72-1.69,7.1-3.61c2.26-1.28,4.21-2.37,5.87-3.27q5.87-2.49,11.4-5.42t11.39-5.64l-3.38,8.13a13.07,13.07,0,0,0-.57,6.65q.57,3.51,4.63,4.63a16.9,16.9,0,0,0,11.28-1.24q5.64-2.6,10.38-4.63l14.89-7c.36-.16.72-.35,1.07-.53a3.43,3.43,0,0,0,2.09-.71,13.3,13.3,0,0,1,3.16-1.7q1.58-.9,4.17-2.48t5.08-2.93q2.47-1.35,6.31-3.39a7.59,7.59,0,0,0,5.53,2.94,38,38,0,0,0,7.79.11,46.25,46.25,0,0,0,7.56-1.24c2.33-.6,3.87-1,4.62-1.13L1187,407c-.31,1.2-.64,2.44-1,3.72a33.65,33.65,0,0,0-.9,3.83,12.69,12.69,0,0,0-.11,3.84,7.22,7.22,0,0,0,1.35,3.5,6.46,6.46,0,0,0,5.64,2.93,22.39,22.39,0,0,0,7.45-1.35,51.58,51.58,0,0,0,7.56-3.39l6.2-3.38,9.48-4.29,2-.68a16.07,16.07,0,0,0,2.59-1.12,11.18,11.18,0,0,0,1-.62,3.19,3.19,0,0,0,2.27-.62,16.43,16.43,0,0,1,2.94-1.7l4.17-2.59a43.61,43.61,0,0,1,4.85-2.6,7.27,7.27,0,0,0-.11,3.39c.22,1.2.48,2.41.79,3.61a17.76,17.76,0,0,0,4.51,8.12,22.49,22.49,0,0,0,7.11,4.85,26.31,26.31,0,0,0,8.57,2,33.72,33.72,0,0,0,9.14-.56,193,193,0,0,0,20.53-6.77l11.29-5c1-.46,2.25-.91,3.61-1.36a5.71,5.71,0,0,0,3.15-2.48C1312,407,1311.85,406,1310.72,405.44Zm-57.65-11.17a17.3,17.3,0,0,1,4.62-3.5,18,18,0,0,1,5.64-1.81,12.88,12.88,0,0,1,6.21.68,32.82,32.82,0,0,1-8.92,6.32,26,26,0,0,1-10.49,2.71A14,14,0,0,1,1253.07,394.27ZM1018,366.06q3.84-4.62,7.9-9.14,1.35-1.35,3.27-3.61c1.27-1.5,2.67-3,4.17-4.51-.75,1.21-1.46,2.41-2.14,3.61a37.06,37.06,0,0,1-2.14,3.39A134.11,134.11,0,0,1,1011,375.88,83.52,83.52,0,0,1,1018,366.06Zm-74.46,8.13c1.5-2.34,3.08-4.7,4.74-7.11q4.51-6.09,9-11.85A121.07,121.07,0,0,1,967,344.29c1.2-1.2,2.74-2.71,4.62-4.51a24.15,24.15,0,0,1,6-4.29A29.73,29.73,0,0,1,976,339a29.06,29.06,0,0,0-1.35,2.82A77.63,77.63,0,0,1,967,352.64a175.09,175.09,0,0,1-19.41,21.43l-4.17,3.73q-2.14,1.92-4.18,3.49Q941.25,377.69,943.5,374.19Z"/></svg>